<?plantuml 1.2026.2?><svg xmlns="http://www.w3.org/2000/svg" xmlns:xlink="http://www.w3.org/1999/xlink" contentStyleType="text/css" data-diagram-type="SEQUENCE" height="766px" preserveAspectRatio="none" style="width:2383px;height:766px;background:#FFFFFF;" version="1.1" viewBox="0 0 2383 766" width="2383px" zoomAndPan="magnify"><title>Cancel Premium</title><defs/><g><text fill="#000000" font-family="sans-serif" font-size="14" font-weight="bold" lengthAdjust="spacing" textLength="113.5011" x="1128.6803" y="29.9659">Cancel Premium</text><g><title>UserProfileView</title><rect fill="#FFFFFF" height="540.0023" style="stroke:#181818;stroke-width:1;" width="10" x="213.0461" y="134.1358"/></g><g><title>UserProfileController</title><rect fill="#FFFFFF" height="484.5902" style="stroke:#181818;stroke-width:1;" width="10" x="670.3004" y="189.5479"/></g><g><title>UserService</title><rect fill="#FFFFFF" height="412.1782" style="stroke:#181818;stroke-width:1;" width="10" x="916.3096" y="221.2539"/></g><g><title>UserApi</title><rect fill="#FFFFFF" height="348.7662" style="stroke:#181818;stroke-width:1;" width="10" x="1162.3188" y="252.9599"/></g><g><title>ApiService</title><rect fill="#FFFFFF" height="285.3541" style="stroke:#181818;stroke-width:1;" width="10" x="1470.39" y="284.6659"/></g><g><title>UserBackendController</title><rect fill="#FFFFFF" height="221.9421" style="stroke:#181818;stroke-width:1;" width="10" x="1716.3992" y="316.3719"/></g><g><title>UserBackendService</title><rect fill="#FFFFFF" height="158.5301" style="stroke:#181818;stroke-width:1;" width="10" x="1962.4084" y="348.0779"/></g><g><title>UserBackendRepository</title><rect fill="#FFFFFF" height="95.118" style="stroke:#181818;stroke-width:1;" width="10" x="2208.4176" y="379.784"/></g><g class="participant-lifeline" data-entity-uid="part1" data-qualified-name="User" id="part1-lifeline"><g><title>User</title><rect fill="#000000" fill-opacity="0.00000" height="559.0023" width="8" x="19.3089" y="124.1358"/><line style="stroke:#181818;stroke-width:0.5;stroke-dasharray:5,5;" x1="23" x2="23" y1="124.1358" y2="683.1381"/></g></g><g class="participant-lifeline" data-entity-uid="part2" data-qualified-name="UserProfileView" id="part2-lifeline"><g><title>UserProfileView</title><rect fill="#000000" fill-opacity="0.00000" height="559.0023" width="8" x="214.0461" y="124.1358"/><line style="stroke:#181818;stroke-width:0.5;stroke-dasharray:5,5;" x1="217.9523" x2="217.9523" y1="124.1358" y2="683.1381"/></g></g><g class="participant-lifeline" data-entity-uid="part3" data-qualified-name="UserProfileController" id="part3-lifeline"><g><title>UserProfileController</title><rect fill="#000000" fill-opacity="0.00000" height="559.0023" width="8" x="671.3004" y="124.1358"/><line style="stroke:#181818;stroke-width:0.5;stroke-dasharray:5,5;" x1="674.5736" x2="674.5736" y1="124.1358" y2="683.1381"/></g></g><g class="participant-lifeline" data-entity-uid="part4" data-qualified-name="UserService" id="part4-lifeline"><g><title>UserService</title><rect fill="#000000" fill-opacity="0.00000" height="559.0023" width="8" x="917.3096" y="124.1358"/><line style="stroke:#181818;stroke-width:0.5;stroke-dasharray:5,5;" x1="920.6487" x2="920.6487" y1="124.1358" y2="683.1381"/></g></g><g class="participant-lifeline" data-entity-uid="part5" data-qualified-name="UserApi" id="part5-lifeline"><g><title>UserApi</title><rect fill="#000000" fill-opacity="0.00000" height="559.0023" width="8" x="1163.3188" y="124.1358"/><line style="stroke:#181818;stroke-width:0.5;stroke-dasharray:5,5;" x1="1166.4258" x2="1166.4258" y1="124.1358" y2="683.1381"/></g></g><g class="participant-lifeline" data-entity-uid="part6" data-qualified-name="ApiService" id="part6-lifeline"><g><title>ApiService</title><rect fill="#000000" fill-opacity="0.00000" height="559.0023" width="8" x="1471.39" y="124.1358"/><line style="stroke:#181818;stroke-width:0.5;stroke-dasharray:5,5;" x1="1474.4541" x2="1474.4541" y1="124.1358" y2="683.1381"/></g></g><g class="participant-lifeline" data-entity-uid="part7" data-qualified-name="UserBackendController" id="part7-lifeline"><g><title>UserBackendController</title><rect fill="#000000" fill-opacity="0.00000" height="559.0023" width="8" x="1717.3992" y="124.1358"/><line style="stroke:#181818;stroke-width:0.5;stroke-dasharray:5,5;" x1="1720.8475" x2="1720.8475" y1="124.1358" y2="683.1381"/></g></g><g class="participant-lifeline" data-entity-uid="part8" data-qualified-name="UserBackendService" id="part8-lifeline"><g><title>UserBackendService</title><rect fill="#000000" fill-opacity="0.00000" height="559.0023" width="8" x="1963.4084" y="124.1358"/><line style="stroke:#181818;stroke-width:0.5;stroke-dasharray:5,5;" x1="1966.5937" x2="1966.5937" y1="124.1358" y2="683.1381"/></g></g><g class="participant-lifeline" data-entity-uid="part9" data-qualified-name="UserBackendRepository" id="part9-lifeline"><g><title>UserBackendRepository</title><rect fill="#000000" fill-opacity="0.00000" height="559.0023" width="8" x="2209.4176" y="124.1358"/><line style="stroke:#181818;stroke-width:0.5;stroke-dasharray:5,5;" x1="2212.7309" x2="2212.7309" y1="124.1358" y2="683.1381"/></g></g><g class="participant-lifeline" data-entity-uid="part10" data-qualified-name="DB" id="part10-lifeline"><g><title>DB</title><rect fill="#000000" fill-opacity="0.00000" height="559.0023" width="8" x="2344.8617" y="124.1358"/><line style="stroke:#181818;stroke-width:0.5;stroke-dasharray:5,5;" x1="2348.8617" x2="2348.8617" y1="124.1358" y2="683.1381"/></g></g><g class="participant participant-head" data-entity-uid="part1" data-qualified-name="User" id="part1-head"><text fill="#000000" font-family="sans-serif" font-size="14" lengthAdjust="spacing" textLength="30.6179" x="5" y="120.0339">User</text><ellipse cx="23.3089" cy="53.5679" fill="#E2E2F0" rx="8" ry="8" style="stroke:#181818;stroke-width:0.5;"/><path d="M23.3089,61.5679 L23.3089,88.5679 M10.3089,69.5679 L36.3089,69.5679 M23.3089,88.5679 L10.3089,103.5679 M23.3089,88.5679 L36.3089,103.5679" fill="none" style="stroke:#181818;stroke-width:0.5;"/></g><g class="participant participant-tail" data-entity-uid="part1" data-qualified-name="User" id="part1-tail"><text fill="#000000" font-family="sans-serif" font-size="14" lengthAdjust="spacing" textLength="30.6179" x="5" y="697.104">User</text><ellipse cx="23.3089" cy="709.706" fill="#E2E2F0" rx="8" ry="8" style="stroke:#181818;stroke-width:0.5;"/><path d="M23.3089,717.706 L23.3089,744.706 M10.3089,725.706 L36.3089,725.706 M23.3089,744.706 L10.3089,759.706 M23.3089,744.706 L36.3089,759.706" fill="none" style="stroke:#181818;stroke-width:0.5;"/></g><g class="participant participant-head" data-entity-uid="part2" data-qualified-name="UserProfileView" id="part2-head"><rect fill="#E2E2F0" height="33.0679" rx="2.5" ry="2.5" style="stroke:#181818;stroke-width:0.5;" width="118.1876" x="158.9523" y="90.0679"/><text fill="#000000" font-family="sans-serif" font-size="14" lengthAdjust="spacing" textLength="104.1876" x="165.9523" y="112.0339">UserProfileView</text></g><g class="participant participant-tail" data-entity-uid="part2" data-qualified-name="UserProfileView" id="part2-tail"><rect fill="#E2E2F0" height="33.0679" rx="2.5" ry="2.5" style="stroke:#181818;stroke-width:0.5;" width="118.1876" x="158.9523" y="682.1381"/><text fill="#000000" font-family="sans-serif" font-size="14" lengthAdjust="spacing" textLength="104.1876" x="165.9523" y="704.104">UserProfileView</text></g><g class="participant participant-head" data-entity-uid="part3" data-qualified-name="UserProfileController" id="part3-head"><rect fill="#E2E2F0" height="33.0679" rx="2.5" ry="2.5" style="stroke:#181818;stroke-width:0.5;" width="153.4535" x="598.5736" y="90.0679"/><text fill="#000000" font-family="sans-serif" font-size="14" lengthAdjust="spacing" textLength="139.4535" x="605.5736" y="112.0339">UserProfileController</text></g><g class="participant participant-tail" data-entity-uid="part3" data-qualified-name="UserProfileController" id="part3-tail"><rect fill="#E2E2F0" height="33.0679" rx="2.5" ry="2.5" style="stroke:#181818;stroke-width:0.5;" width="153.4535" x="598.5736" y="682.1381"/><text fill="#000000" font-family="sans-serif" font-size="14" lengthAdjust="spacing" textLength="139.4535" x="605.5736" y="704.104">UserProfileController</text></g><g class="participant participant-head" data-entity-uid="part4" data-qualified-name="UserService" id="part4-head"><rect fill="#E2E2F0" height="33.0679" rx="2.5" ry="2.5" style="stroke:#181818;stroke-width:0.5;" width="91.3217" x="875.6487" y="90.0679"/><text fill="#000000" font-family="sans-serif" font-size="14" lengthAdjust="spacing" textLength="77.3217" x="882.6487" y="112.0339">UserService</text></g><g class="participant participant-tail" data-entity-uid="part4" data-qualified-name="UserService" id="part4-tail"><rect fill="#E2E2F0" height="33.0679" rx="2.5" ry="2.5" style="stroke:#181818;stroke-width:0.5;" width="91.3217" x="875.6487" y="682.1381"/><text fill="#000000" font-family="sans-serif" font-size="14" lengthAdjust="spacing" textLength="77.3217" x="882.6487" y="704.104">UserService</text></g><g class="participant participant-head" data-entity-uid="part5" data-qualified-name="UserApi" id="part5-head"><rect fill="#E2E2F0" height="33.0679" rx="2.5" ry="2.5" style="stroke:#181818;stroke-width:0.5;" width="65.7858" x="1134.4258" y="90.0679"/><text fill="#000000" font-family="sans-serif" font-size="14" lengthAdjust="spacing" textLength="51.7858" x="1141.4258" y="112.0339">UserApi</text></g><g class="participant participant-tail" data-entity-uid="part5" data-qualified-name="UserApi" id="part5-tail"><rect fill="#E2E2F0" height="33.0679" rx="2.5" ry="2.5" style="stroke:#181818;stroke-width:0.5;" width="65.7858" x="1134.4258" y="682.1381"/><text fill="#000000" font-family="sans-serif" font-size="14" lengthAdjust="spacing" textLength="51.7858" x="1141.4258" y="704.104">UserApi</text></g><g class="participant participant-head" data-entity-uid="part6" data-qualified-name="ApiService" id="part6-head"><rect fill="#E2E2F0" height="33.0679" rx="2.5" ry="2.5" style="stroke:#181818;stroke-width:0.5;" width="81.8717" x="1434.4541" y="90.0679"/><text fill="#000000" font-family="sans-serif" font-size="14" lengthAdjust="spacing" textLength="67.8717" x="1441.4541" y="112.0339">ApiService</text></g><g class="participant participant-tail" data-entity-uid="part6" data-qualified-name="ApiService" id="part6-tail"><rect fill="#E2E2F0" height="33.0679" rx="2.5" ry="2.5" style="stroke:#181818;stroke-width:0.5;" width="81.8717" x="1434.4541" y="682.1381"/><text fill="#000000" font-family="sans-serif" font-size="14" lengthAdjust="spacing" textLength="67.8717" x="1441.4541" y="704.104">ApiService</text></g><g class="participant participant-head" data-entity-uid="part7" data-qualified-name="UserBackendController" id="part7-head"><rect fill="#E2E2F0" height="33.0679" rx="2.5" ry="2.5" style="stroke:#181818;stroke-width:0.5;" width="167.1034" x="1637.8475" y="90.0679"/><text fill="#000000" font-family="sans-serif" font-size="14" lengthAdjust="spacing" textLength="153.1034" x="1644.8475" y="112.0339">UserBackendController</text></g><g class="participant participant-tail" data-entity-uid="part7" data-qualified-name="UserBackendController" id="part7-tail"><rect fill="#E2E2F0" height="33.0679" rx="2.5" ry="2.5" style="stroke:#181818;stroke-width:0.5;" width="167.1034" x="1637.8475" y="682.1381"/><text fill="#000000" font-family="sans-serif" font-size="14" lengthAdjust="spacing" textLength="153.1034" x="1644.8475" y="704.104">UserBackendController</text></g><g class="participant participant-head" data-entity-uid="part8" data-qualified-name="UserBackendService" id="part8-head"><rect fill="#E2E2F0" height="33.0679" rx="2.5" ry="2.5" style="stroke:#181818;stroke-width:0.5;" width="147.6295" x="1893.5937" y="90.0679"/><text fill="#000000" font-family="sans-serif" font-size="14" lengthAdjust="spacing" textLength="133.6295" x="1900.5937" y="112.0339">UserBackendService</text></g><g class="participant participant-tail" data-entity-uid="part8" data-qualified-name="UserBackendService" id="part8-tail"><rect fill="#E2E2F0" height="33.0679" rx="2.5" ry="2.5" style="stroke:#181818;stroke-width:0.5;" width="147.6295" x="1893.5937" y="682.1381"/><text fill="#000000" font-family="sans-serif" font-size="14" lengthAdjust="spacing" textLength="133.6295" x="1900.5937" y="704.104">UserBackendService</text></g><g class="participant participant-head" data-entity-uid="part9" data-qualified-name="UserBackendRepository" id="part9-head"><rect fill="#E2E2F0" height="33.0679" rx="2.5" ry="2.5" style="stroke:#181818;stroke-width:0.5;" width="171.3734" x="2127.7309" y="90.0679"/><text fill="#000000" font-family="sans-serif" font-size="14" lengthAdjust="spacing" textLength="157.3734" x="2134.7309" y="112.0339">UserBackendRepository</text></g><g class="participant participant-tail" data-entity-uid="part9" data-qualified-name="UserBackendRepository" id="part9-tail"><rect fill="#E2E2F0" height="33.0679" rx="2.5" ry="2.5" style="stroke:#181818;stroke-width:0.5;" width="171.3734" x="2127.7309" y="682.1381"/><text fill="#000000" font-family="sans-serif" font-size="14" lengthAdjust="spacing" textLength="157.3734" x="2134.7309" y="704.104">UserBackendRepository</text></g><g class="participant participant-head" data-entity-uid="part10" data-qualified-name="DB" id="part10-head"><text fill="#000000" font-family="sans-serif" font-size="14" lengthAdjust="spacing" textLength="19.3199" x="2336.2018" y="120.0339">DB</text><path d="M2330.8617,69.0679 C2330.8617,59.0679 2348.8617,59.0679 2348.8617,59.0679 C2348.8617,59.0679 2366.8617,59.0679 2366.8617,69.0679 L2366.8617,95.0679 C2366.8617,105.0679 2348.8617,105.0679 2348.8617,105.0679 C2348.8617,105.0679 2330.8617,105.0679 2330.8617,95.0679 L2330.8617,69.0679" fill="#E2E2F0" style="stroke:#181818;stroke-width:0.5;"/><path d="M2330.8617,69.0679 C2330.8617,79.0679 2348.8617,79.0679 2348.8617,79.0679 C2348.8617,79.0679 2366.8617,79.0679 2366.8617,69.0679" fill="none" style="stroke:#181818;stroke-width:0.5;"/></g><g class="participant participant-tail" data-entity-uid="part10" data-qualified-name="DB" id="part10-tail"><text fill="#000000" font-family="sans-serif" font-size="14" lengthAdjust="spacing" textLength="19.3199" x="2336.2018" y="697.104">DB</text><path d="M2330.8617,711.206 C2330.8617,701.206 2348.8617,701.206 2348.8617,701.206 C2348.8617,701.206 2366.8617,701.206 2366.8617,711.206 L2366.8617,737.206 C2366.8617,747.206 2348.8617,747.206 2348.8617,747.206 C2348.8617,747.206 2330.8617,747.206 2330.8617,737.206 L2330.8617,711.206" fill="#E2E2F0" style="stroke:#181818;stroke-width:0.5;"/><path d="M2330.8617,711.206 C2330.8617,721.206 2348.8617,721.206 2348.8617,721.206 C2348.8617,721.206 2366.8617,721.206 2366.8617,711.206" fill="none" style="stroke:#181818;stroke-width:0.5;"/></g><g><title>UserProfileView</title><rect fill="#FFFFFF" height="540.0023" style="stroke:#181818;stroke-width:1;" width="10" x="213.0461" y="134.1358"/></g><g><title>UserProfileController</title><rect fill="#FFFFFF" height="484.5902" style="stroke:#181818;stroke-width:1;" width="10" x="670.3004" y="189.5479"/></g><g><title>UserService</title><rect fill="#FFFFFF" height="412.1782" style="stroke:#181818;stroke-width:1;" width="10" x="916.3096" y="221.2539"/></g><g><title>UserApi</title><rect fill="#FFFFFF" height="348.7662" style="stroke:#181818;stroke-width:1;" width="10" x="1162.3188" y="252.9599"/></g><g><title>ApiService</title><rect fill="#FFFFFF" height="285.3541" style="stroke:#181818;stroke-width:1;" width="10" x="1470.39" y="284.6659"/></g><g><title>UserBackendController</title><rect fill="#FFFFFF" height="221.9421" style="stroke:#181818;stroke-width:1;" width="10" x="1716.3992" y="316.3719"/></g><g><title>UserBackendService</title><rect fill="#FFFFFF" height="158.5301" style="stroke:#181818;stroke-width:1;" width="10" x="1962.4084" y="348.0779"/></g><g><title>UserBackendRepository</title><rect fill="#FFFFFF" height="95.118" style="stroke:#181818;stroke-width:1;" width="10" x="2208.4176" y="379.784"/></g><g class="message" data-entity-1="part1" data-entity-2="part2" id="msg1"><polygon fill="#181818" points="201.0461,153.8419,211.0461,157.8419,201.0461,161.8419,205.0461,157.8419" style="stroke:#181818;stroke-width:1;"/><line style="stroke:#181818;stroke-width:1;" x1="23.3089" x2="207.0461" y1="157.8419" y2="157.8419"/><text fill="#000000" font-family="sans-serif" font-size="13" lengthAdjust="spacing" textLength="165.7371" x="30.3089" y="152.0328">clicks on "Cancel Premium"</text></g><g class="message" data-entity-1="part2" data-entity-2="part3" id="msg2"><polygon fill="#181818" points="658.3004,185.5479,668.3004,189.5479,658.3004,193.5479,662.3004,189.5479" style="stroke:#181818;stroke-width:1;"/><line style="stroke:#181818;stroke-width:1;" x1="223.0461" x2="664.3004" y1="189.5479" y2="189.5479"/><text fill="#000000" font-family="sans-serif" font-size="13" lengthAdjust="spacing" textLength="217.0092" x="230.0461" y="183.7389">updatePremiumStatus(userId,false)</text></g><g class="message" data-entity-1="part3" data-entity-2="part4" id="msg3"><polygon fill="#181818" points="904.3096,217.2539,914.3096,221.2539,904.3096,225.2539,908.3096,221.2539" style="stroke:#181818;stroke-width:1;"/><line style="stroke:#181818;stroke-width:1;" x1="680.3004" x2="910.3096" y1="221.2539" y2="221.2539"/><text fill="#000000" font-family="sans-serif" font-size="13" lengthAdjust="spacing" textLength="217.0092" x="687.3004" y="215.4449">updatePremiumStatus(userId,false)</text></g><g class="message" data-entity-1="part4" data-entity-2="part5" id="msg4"><polygon fill="#181818" points="1150.3188,248.9599,1160.3188,252.9599,1150.3188,256.9599,1154.3188,252.9599" style="stroke:#181818;stroke-width:1;"/><line style="stroke:#181818;stroke-width:1;" x1="926.3096" x2="1156.3188" y1="252.9599" y2="252.9599"/><text fill="#000000" font-family="sans-serif" font-size="13" lengthAdjust="spacing" textLength="217.0092" x="933.3096" y="247.1509">updatePremiumStatus(userId,false)</text></g><g class="message" data-entity-1="part5" data-entity-2="part6" id="msg5"><polygon fill="#181818" points="1458.39,280.6659,1468.39,284.6659,1458.39,288.6659,1462.39,284.6659" style="stroke:#181818;stroke-width:1;"/><line style="stroke:#181818;stroke-width:1;" x1="1172.3188" x2="1464.39" y1="284.6659" y2="284.6659"/><text fill="#000000" font-family="sans-serif" font-size="13" lengthAdjust="spacing" textLength="279.0712" x="1179.3188" y="278.8569">post(user/updatePremiumStatus,userId,false)</text></g><g class="message" data-entity-1="part6" data-entity-2="part7" id="msg6"><polygon fill="#181818" points="1704.3992,312.3719,1714.3992,316.3719,1704.3992,320.3719,1708.3992,316.3719" style="stroke:#181818;stroke-width:1;"/><line style="stroke:#181818;stroke-width:1;" x1="1480.39" x2="1710.3992" y1="316.3719" y2="316.3719"/><text fill="#000000" font-family="sans-serif" font-size="13" lengthAdjust="spacing" textLength="217.0092" x="1487.39" y="310.5629">updatePremiumStatus(userId,false)</text></g><g class="message" data-entity-1="part7" data-entity-2="part8" id="msg7"><polygon fill="#181818" points="1950.4084,344.0779,1960.4084,348.0779,1950.4084,352.0779,1954.4084,348.0779" style="stroke:#181818;stroke-width:1;"/><line style="stroke:#181818;stroke-width:1;" x1="1726.3992" x2="1956.4084" y1="348.0779" y2="348.0779"/><text fill="#000000" font-family="sans-serif" font-size="13" lengthAdjust="spacing" textLength="217.0092" x="1733.3992" y="342.2689">updatePremiumStatus(userId,false)</text></g><g class="message" data-entity-1="part8" data-entity-2="part9" id="msg8"><polygon fill="#181818" points="2196.4176,375.784,2206.4176,379.784,2196.4176,383.784,2200.4176,379.784" style="stroke:#181818;stroke-width:1;"/><line style="stroke:#181818;stroke-width:1;" x1="1972.4084" x2="2202.4176" y1="379.784" y2="379.784"/><text fill="#000000" font-family="sans-serif" font-size="13" lengthAdjust="spacing" textLength="217.0092" x="1979.4084" y="373.975">updatePremiumStatus(userId,false)</text></g><g class="message" data-entity-1="part9" data-entity-2="part10" id="msg9"><polygon fill="#181818" points="2336.8617,407.49,2346.8617,411.49,2336.8617,415.49,2340.8617,411.49" style="stroke:#181818;stroke-width:1;"/><line style="stroke:#181818;stroke-width:1;" x1="2218.4176" x2="2342.8617" y1="411.49" y2="411.49"/><text fill="#000000" font-family="sans-serif" font-size="13" lengthAdjust="spacing" textLength="106.4441" x="2225.4176" y="405.681">run mySQL query</text></g><g class="message" data-entity-1="part10" data-entity-2="part9" id="msg10"><polygon fill="#181818" points="2229.4176,439.196,2219.4176,443.196,2229.4176,447.196,2225.4176,443.196" style="stroke:#181818;stroke-width:1;"/><line style="stroke:#181818;stroke-width:1;stroke-dasharray:2,2;" x1="2223.4176" x2="2347.8617" y1="443.196" y2="443.196"/><text fill="#000000" font-family="sans-serif" font-size="13" lengthAdjust="spacing" textLength="88.7381" x="2235.4176" y="437.387">return success</text></g><g class="message" data-entity-1="part9" data-entity-2="part8" id="msg11"><polygon fill="#181818" points="1983.4084,470.902,1973.4084,474.902,1983.4084,478.902,1979.4084,474.902" style="stroke:#181818;stroke-width:1;"/><line style="stroke:#181818;stroke-width:1;stroke-dasharray:2,2;" x1="1977.4084" x2="2212.4176" y1="474.902" y2="474.902"/><text fill="#000000" font-family="sans-serif" font-size="13" lengthAdjust="spacing" textLength="88.7381" x="1989.4084" y="469.093">return success</text></g><g class="message" data-entity-1="part8" data-entity-2="part7" id="msg12"><polygon fill="#181818" points="1737.3992,502.608,1727.3992,506.608,1737.3992,510.608,1733.3992,506.608" style="stroke:#181818;stroke-width:1;"/><line style="stroke:#181818;stroke-width:1;" x1="1731.3992" x2="1966.4084" y1="506.608" y2="506.608"/><text fill="#000000" font-family="sans-serif" font-size="13" lengthAdjust="spacing" textLength="88.7381" x="1743.3992" y="500.799">return success</text></g><g class="message" data-entity-1="part7" data-entity-2="part6" id="msg13"><polygon fill="#181818" points="1491.39,534.314,1481.39,538.314,1491.39,542.314,1487.39,538.314" style="stroke:#181818;stroke-width:1;"/><line style="stroke:#181818;stroke-width:1;stroke-dasharray:2,2;" x1="1485.39" x2="1720.3992" y1="538.314" y2="538.314"/><text fill="#000000" font-family="sans-serif" font-size="13" lengthAdjust="spacing" textLength="88.7381" x="1497.39" y="532.505">return success</text></g><g class="message" data-entity-1="part6" data-entity-2="part5" id="msg14"><polygon fill="#181818" points="1183.3188,566.0201,1173.3188,570.0201,1183.3188,574.0201,1179.3188,570.0201" style="stroke:#181818;stroke-width:1;"/><line style="stroke:#181818;stroke-width:1;stroke-dasharray:2,2;" x1="1177.3188" x2="1474.39" y1="570.0201" y2="570.0201"/><text fill="#000000" font-family="sans-serif" font-size="13" lengthAdjust="spacing" textLength="88.7381" x="1189.3188" y="564.2111">return success</text></g><g class="message" data-entity-1="part5" data-entity-2="part4" id="msg15"><polygon fill="#181818" points="937.3096,597.7261,927.3096,601.7261,937.3096,605.7261,933.3096,601.7261" style="stroke:#181818;stroke-width:1;"/><line style="stroke:#181818;stroke-width:1;stroke-dasharray:2,2;" x1="931.3096" x2="1166.3188" y1="601.7261" y2="601.7261"/><text fill="#000000" font-family="sans-serif" font-size="13" lengthAdjust="spacing" textLength="88.7381" x="943.3096" y="595.9171">return success</text></g><g class="message" data-entity-1="part4" data-entity-2="part3" id="msg16"><polygon fill="#181818" points="691.3004,629.4321,681.3004,633.4321,691.3004,637.4321,687.3004,633.4321" style="stroke:#181818;stroke-width:1;"/><line style="stroke:#181818;stroke-width:1;stroke-dasharray:2,2;" x1="685.3004" x2="920.3096" y1="633.4321" y2="633.4321"/><text fill="#000000" font-family="sans-serif" font-size="13" lengthAdjust="spacing" textLength="88.7381" x="697.3004" y="627.6231">return success</text></g><g class="message" data-entity-1="part3" data-entity-2="part2" id="msg17"><polygon fill="#181818" points="234.0461,661.1381,224.0461,665.1381,234.0461,669.1381,230.0461,665.1381" style="stroke:#181818;stroke-width:1;"/><line style="stroke:#181818;stroke-width:1;" x1="228.0461" x2="669.3004" y1="665.1381" y2="665.1381"/><text fill="#000000" font-family="sans-serif" font-size="13" lengthAdjust="spacing" textLength="423.2543" x="240.0461" y="659.3291">showSuccessMessage("Premium Subscription Canceled successfully")</text></g><?plantuml-src dPHDRy8m38Rl-HLHJo21TjzXqe3B92QnLTizf6QB24sN3n3_VWRQaQHfLpXmgB4VE_PhMs4bq3ahEKYwqh0JRaS8urPf-c504r8nRGKN5IljsRBIQYCaV0euTFqtLwNLIaeCZproq7l1eML_haHWm-ykrndZMoYBdYIrnp-0TwYK4VZG8o45ispD3D35xFnwiMSMMiyzVTFfKsodZvHBmRU6gf9cOIyp4Zk7yTTN8CLLM0VKaRbbrfcHGz-NOh9Xqi0uMPhNY3IupbYtu_OyJHzzICt4CTtEEysw2KRETTI8mf7OS-n30ZhfW7fYyM1rYIsvt5vmMt5fS9Znxdv7yaqWmqHN8T-Tozk5D1WpBcQ8rwwaksF-jgG_3j0RZTEUQZHOfqjg7ETWJ1UxgszHT073InyWWa7qn13yWSVo7SJqTEJBDLYfRf0dzhybQcruVntD0iQfKpUfd-HNqdbumbDfljKXlz1UySU-O9JLSgMvMnkkHMK5NjBB8OMYoRrnKXwpCVa5?></g></svg>