<?plantuml 1.2026.2?><svg xmlns="http://www.w3.org/2000/svg" xmlns:xlink="http://www.w3.org/1999/xlink" contentStyleType="text/css" data-diagram-type="SEQUENCE" height="981px" preserveAspectRatio="none" style="width:2131px;height:981px;background:#FFFFFF;" version="1.1" viewBox="0 0 2131 981" width="2131px" zoomAndPan="magnify"><title>Search Playlist</title><defs/><g><text fill="#000000" font-family="sans-serif" font-size="14" font-weight="bold" lengthAdjust="spacing" textLength="100.4146" x="1014.345" y="29.9659">Search Playlist</text><g><title>MainPanel</title><rect fill="#FFFFFF" height="31.706" style="stroke:#181818;stroke-width:1;" width="10" x="88.2678" y="760.2562"/></g><g><title>TopBarView</title><rect fill="#FFFFFF" height="118.8241" style="stroke:#181818;stroke-width:1;" width="10" x="186.1735" y="134.1358"/></g><g><title>TopBarController</title><rect fill="#FFFFFF" height="31.706" style="stroke:#181818;stroke-width:1;" width="10" x="371.9926" y="252.9599"/></g><g><title>SearchView</title><rect fill="#FFFFFF" height="43.0679" style="stroke:#181818;stroke-width:1;" width="10" x="490.6322" y="846.0301"/></g><g><title>SearchController</title><rect fill="#FFFFFF" height="87.1358" style="stroke:#181818;stroke-width:1;" width="10" x="691.3704" y="801.9622"/></g><g><title>PlaylistService</title><rect fill="#FFFFFF" height="412.1782" style="stroke:#181818;stroke-width:1;" width="10" x="817.136" y="284.6659"/></g><g><title>PlaylistApi</title><rect fill="#FFFFFF" height="348.7662" style="stroke:#181818;stroke-width:1;" width="10" x="1024.3011" y="316.3719"/></g><g><title>ApiService</title><rect fill="#FFFFFF" height="285.3541" style="stroke:#181818;stroke-width:1;" width="10" x="1260.2093" y="348.0779"/></g><g><title>PlaylistBackendController</title><rect fill="#FFFFFF" height="221.9421" style="stroke:#181818;stroke-width:1;" width="10" x="1467.3745" y="379.784"/></g><g><title>PlaylistBackendService</title><rect fill="#FFFFFF" height="158.5301" style="stroke:#181818;stroke-width:1;" width="10" x="1674.5396" y="411.49"/></g><g><title>PlaylistBackendRepository</title><rect fill="#FFFFFF" height="95.118" style="stroke:#181818;stroke-width:1;" width="10" x="1881.7048" y="443.196"/></g><g><title>EventBus</title><rect fill="#FFFFFF" height="31.706" style="stroke:#181818;stroke-width:1;" width="10" x="2082.6268" y="728.5501"/></g><g class="participant-lifeline" data-entity-uid="part1" data-qualified-name="User" id="part1-lifeline"><g><title>User</title><rect fill="#000000" fill-opacity="0.00000" height="773.9622" width="8" x="19.3089" y="124.1358"/><line style="stroke:#181818;stroke-width:0.5;stroke-dasharray:5,5;" x1="23" x2="23" y1="124.1358" y2="898.098"/></g></g><g class="participant-lifeline" data-entity-uid="part2" data-qualified-name="MainPanel" id="part2-lifeline"><g><title>MainPanel</title><rect fill="#000000" fill-opacity="0.00000" height="773.9622" width="8" x="89.2678" y="124.1358"/><line style="stroke:#181818;stroke-width:0.5;stroke-dasharray:5,5;" x1="92.6179" x2="92.6179" y1="124.1358" y2="898.098"/></g></g><g class="participant-lifeline" data-entity-uid="part3" data-qualified-name="TopBarView" id="part3-lifeline"><g><title>TopBarView</title><rect fill="#000000" fill-opacity="0.00000" height="773.9622" width="8" x="187.1735" y="124.1358"/><line style="stroke:#181818;stroke-width:0.5;stroke-dasharray:5,5;" x1="190.9176" x2="190.9176" y1="124.1358" y2="898.098"/></g></g><g class="participant-lifeline" data-entity-uid="part4" data-qualified-name="TopBarController" id="part4-lifeline"><g><title>TopBarController</title><rect fill="#000000" fill-opacity="0.00000" height="773.9622" width="8" x="372.9926" y="124.1358"/><line style="stroke:#181818;stroke-width:0.5;stroke-dasharray:5,5;" x1="376.1038" x2="376.1038" y1="124.1358" y2="898.098"/></g></g><g class="participant-lifeline" data-entity-uid="part5" data-qualified-name="SearchView" id="part5-lifeline"><g><title>SearchView</title><rect fill="#000000" fill-opacity="0.00000" height="53.74" width="8" x="491.6322" y="844.358"/><line style="stroke:#181818;stroke-width:0.5;stroke-dasharray:5,5;" x1="494.8814" x2="494.8814" y1="844.358" y2="898.098"/></g></g><g class="participant-lifeline" data-entity-uid="part6" data-qualified-name="SearchController" id="part6-lifeline"><g><title>SearchController</title><rect fill="#000000" fill-opacity="0.00000" height="97.8079" width="8" x="692.3704" y="800.2901"/><line style="stroke:#181818;stroke-width:0.5;stroke-dasharray:5,5;" x1="695.9866" x2="695.9866" y1="800.2901" y2="898.098"/></g></g><g class="participant-lifeline" data-entity-uid="part7" data-qualified-name="PlaylistService" id="part7-lifeline"><g><title>PlaylistService</title><rect fill="#000000" fill-opacity="0.00000" height="773.9622" width="8" x="818.136" y="124.1358"/><line style="stroke:#181818;stroke-width:0.5;stroke-dasharray:5,5;" x1="821.7542" x2="821.7542" y1="124.1358" y2="898.098"/></g></g><g class="participant-lifeline" data-entity-uid="part8" data-qualified-name="PlaylistApi" id="part8-lifeline"><g><title>PlaylistApi</title><rect fill="#000000" fill-opacity="0.00000" height="773.9622" width="8" x="1025.3011" y="124.1358"/><line style="stroke:#181818;stroke-width:0.5;stroke-dasharray:5,5;" x1="1028.6873" x2="1028.6873" y1="124.1358" y2="898.098"/></g></g><g class="participant-lifeline" data-entity-uid="part9" data-qualified-name="ApiService" id="part9-lifeline"><g><title>ApiService</title><rect fill="#000000" fill-opacity="0.00000" height="773.9622" width="8" x="1261.2093" y="124.1358"/><line style="stroke:#181818;stroke-width:0.5;stroke-dasharray:5,5;" x1="1264.2735" x2="1264.2735" y1="124.1358" y2="898.098"/></g></g><g class="participant-lifeline" data-entity-uid="part10" data-qualified-name="PlaylistBackendController" id="part10-lifeline"><g><title>PlaylistBackendController</title><rect fill="#000000" fill-opacity="0.00000" height="773.9622" width="8" x="1468.3745" y="124.1358"/><line style="stroke:#181818;stroke-width:0.5;stroke-dasharray:5,5;" x1="1472.1018" x2="1472.1018" y1="124.1358" y2="898.098"/></g></g><g class="participant-lifeline" data-entity-uid="part11" data-qualified-name="PlaylistBackendService" id="part11-lifeline"><g><title>PlaylistBackendService</title><rect fill="#000000" fill-opacity="0.00000" height="773.9622" width="8" x="1675.5396" y="124.1358"/><line style="stroke:#181818;stroke-width:0.5;stroke-dasharray:5,5;" x1="1679.0039" x2="1679.0039" y1="124.1358" y2="898.098"/></g></g><g class="participant-lifeline" data-entity-uid="part12" data-qualified-name="PlaylistBackendRepository" id="part12-lifeline"><g><title>PlaylistBackendRepository</title><rect fill="#000000" fill-opacity="0.00000" height="773.9622" width="8" x="1882.7048" y="124.1358"/><line style="stroke:#181818;stroke-width:0.5;stroke-dasharray:5,5;" x1="1886.2971" x2="1886.2971" y1="124.1358" y2="898.098"/></g></g><g class="participant-lifeline" data-entity-uid="part13" data-qualified-name="DB" id="part13-lifeline"><g><title>DB</title><rect fill="#000000" fill-opacity="0.00000" height="773.9622" width="8" x="2018.1489" y="124.1358"/><line style="stroke:#181818;stroke-width:0.5;stroke-dasharray:5,5;" x1="2022.1489" x2="2022.1489" y1="124.1358" y2="898.098"/></g></g><g class="participant-lifeline" data-entity-uid="part14" data-qualified-name="EventBus" id="part14-lifeline"><g><title>EventBus</title><rect fill="#000000" fill-opacity="0.00000" height="773.9622" width="8" x="2083.6268" y="124.1358"/><line style="stroke:#181818;stroke-width:0.5;stroke-dasharray:5,5;" x1="2087.1489" x2="2087.1489" y1="124.1358" y2="898.098"/></g></g><g class="participant participant-head" data-entity-uid="part1" data-qualified-name="User" id="part1-head"><text fill="#000000" font-family="sans-serif" font-size="14" lengthAdjust="spacing" textLength="30.6179" x="5" y="120.0339">User</text><ellipse cx="23.3089" cy="53.5679" fill="#E2E2F0" rx="8" ry="8" style="stroke:#181818;stroke-width:0.5;"/><path d="M23.3089,61.5679 L23.3089,88.5679 M10.3089,69.5679 L36.3089,69.5679 M23.3089,88.5679 L10.3089,103.5679 M23.3089,88.5679 L36.3089,103.5679" fill="none" style="stroke:#181818;stroke-width:0.5;"/></g><g class="participant participant-tail" data-entity-uid="part1" data-qualified-name="User" id="part1-tail"><text fill="#000000" font-family="sans-serif" font-size="14" lengthAdjust="spacing" textLength="30.6179" x="5" y="912.0639">User</text><ellipse cx="23.3089" cy="924.6659" fill="#E2E2F0" rx="8" ry="8" style="stroke:#181818;stroke-width:0.5;"/><path d="M23.3089,932.6659 L23.3089,959.6659 M10.3089,940.6659 L36.3089,940.6659 M23.3089,959.6659 L10.3089,974.6659 M23.3089,959.6659 L36.3089,974.6659" fill="none" style="stroke:#181818;stroke-width:0.5;"/></g><g class="participant participant-head" data-entity-uid="part2" data-qualified-name="MainPanel" id="part2-head"><rect fill="#E2E2F0" height="33.0679" rx="2.5" ry="2.5" style="stroke:#181818;stroke-width:0.5;" width="83.2997" x="51.6179" y="90.0679"/><text fill="#000000" font-family="sans-serif" font-size="14" lengthAdjust="spacing" textLength="69.2997" x="58.6179" y="112.0339">MainPanel</text></g><g class="participant participant-tail" data-entity-uid="part2" data-qualified-name="MainPanel" id="part2-tail"><rect fill="#E2E2F0" height="33.0679" rx="2.5" ry="2.5" style="stroke:#181818;stroke-width:0.5;" width="83.2997" x="51.6179" y="897.098"/><text fill="#000000" font-family="sans-serif" font-size="14" lengthAdjust="spacing" textLength="69.2997" x="58.6179" y="919.0639">MainPanel</text></g><g class="participant participant-head" data-entity-uid="part3" data-qualified-name="TopBarView" id="part3-head"><rect fill="#E2E2F0" height="33.0679" rx="2.5" ry="2.5" style="stroke:#181818;stroke-width:0.5;" width="92.5117" x="144.9176" y="90.0679"/><text fill="#000000" font-family="sans-serif" font-size="14" lengthAdjust="spacing" textLength="78.5117" x="151.9176" y="112.0339">TopBarView</text></g><g class="participant participant-tail" data-entity-uid="part3" data-qualified-name="TopBarView" id="part3-tail"><rect fill="#E2E2F0" height="33.0679" rx="2.5" ry="2.5" style="stroke:#181818;stroke-width:0.5;" width="92.5117" x="144.9176" y="897.098"/><text fill="#000000" font-family="sans-serif" font-size="14" lengthAdjust="spacing" textLength="78.5117" x="151.9176" y="919.0639">TopBarView</text></g><g class="participant participant-head" data-entity-uid="part4" data-qualified-name="TopBarController" id="part4-head"><rect fill="#E2E2F0" height="33.0679" rx="2.5" ry="2.5" style="stroke:#181818;stroke-width:0.5;" width="127.7776" x="313.1038" y="90.0679"/><text fill="#000000" font-family="sans-serif" font-size="14" lengthAdjust="spacing" textLength="113.7776" x="320.1038" y="112.0339">TopBarController</text></g><g class="participant participant-tail" data-entity-uid="part4" data-qualified-name="TopBarController" id="part4-tail"><rect fill="#E2E2F0" height="33.0679" rx="2.5" ry="2.5" style="stroke:#181818;stroke-width:0.5;" width="127.7776" x="313.1038" y="897.098"/><text fill="#000000" font-family="sans-serif" font-size="14" lengthAdjust="spacing" textLength="113.7776" x="320.1038" y="919.0639">TopBarController</text></g><g class="participant participant-tail" data-entity-uid="part5" data-qualified-name="SearchView" id="part5-tail"><rect fill="#E2E2F0" height="33.0679" rx="2.5" ry="2.5" style="stroke:#181818;stroke-width:0.5;" width="89.5017" x="450.8814" y="897.098"/><text fill="#000000" font-family="sans-serif" font-size="14" lengthAdjust="spacing" textLength="75.5017" x="457.8814" y="919.0639">SearchView</text></g><g class="participant participant-tail" data-entity-uid="part6" data-qualified-name="SearchController" id="part6-tail"><rect fill="#E2E2F0" height="33.0679" rx="2.5" ry="2.5" style="stroke:#181818;stroke-width:0.5;" width="124.7676" x="633.9866" y="897.098"/><text fill="#000000" font-family="sans-serif" font-size="14" lengthAdjust="spacing" textLength="110.7676" x="640.9866" y="919.0639">SearchController</text></g><g class="participant participant-head" data-entity-uid="part7" data-qualified-name="PlaylistService" id="part7-head"><rect fill="#E2E2F0" height="33.0679" rx="2.5" ry="2.5" style="stroke:#181818;stroke-width:0.5;" width="106.7636" x="768.7542" y="90.0679"/><text fill="#000000" font-family="sans-serif" font-size="14" lengthAdjust="spacing" textLength="92.7636" x="775.7542" y="112.0339">PlaylistService</text></g><g class="participant participant-tail" data-entity-uid="part7" data-qualified-name="PlaylistService" id="part7-tail"><rect fill="#E2E2F0" height="33.0679" rx="2.5" ry="2.5" style="stroke:#181818;stroke-width:0.5;" width="106.7636" x="768.7542" y="897.098"/><text fill="#000000" font-family="sans-serif" font-size="14" lengthAdjust="spacing" textLength="92.7636" x="775.7542" y="919.0639">PlaylistService</text></g><g class="participant participant-head" data-entity-uid="part8" data-qualified-name="PlaylistApi" id="part8-head"><rect fill="#E2E2F0" height="33.0679" rx="2.5" ry="2.5" style="stroke:#181818;stroke-width:0.5;" width="81.2278" x="988.6873" y="90.0679"/><text fill="#000000" font-family="sans-serif" font-size="14" lengthAdjust="spacing" textLength="67.2278" x="995.6873" y="112.0339">PlaylistApi</text></g><g class="participant participant-tail" data-entity-uid="part8" data-qualified-name="PlaylistApi" id="part8-tail"><rect fill="#E2E2F0" height="33.0679" rx="2.5" ry="2.5" style="stroke:#181818;stroke-width:0.5;" width="81.2278" x="988.6873" y="897.098"/><text fill="#000000" font-family="sans-serif" font-size="14" lengthAdjust="spacing" textLength="67.2278" x="995.6873" y="919.0639">PlaylistApi</text></g><g class="participant participant-head" data-entity-uid="part9" data-qualified-name="ApiService" id="part9-head"><rect fill="#E2E2F0" height="33.0679" rx="2.5" ry="2.5" style="stroke:#181818;stroke-width:0.5;" width="81.8717" x="1224.2735" y="90.0679"/><text fill="#000000" font-family="sans-serif" font-size="14" lengthAdjust="spacing" textLength="67.8717" x="1231.2735" y="112.0339">ApiService</text></g><g class="participant participant-tail" data-entity-uid="part9" data-qualified-name="ApiService" id="part9-tail"><rect fill="#E2E2F0" height="33.0679" rx="2.5" ry="2.5" style="stroke:#181818;stroke-width:0.5;" width="81.8717" x="1224.2735" y="897.098"/><text fill="#000000" font-family="sans-serif" font-size="14" lengthAdjust="spacing" textLength="67.8717" x="1231.2735" y="919.0639">ApiService</text></g><g class="participant participant-head" data-entity-uid="part10" data-qualified-name="PlaylistBackendController" id="part10-head"><rect fill="#E2E2F0" height="33.0679" rx="2.5" ry="2.5" style="stroke:#181818;stroke-width:0.5;" width="182.5453" x="1381.1018" y="90.0679"/><text fill="#000000" font-family="sans-serif" font-size="14" lengthAdjust="spacing" textLength="168.5453" x="1388.1018" y="112.0339">PlaylistBackendController</text></g><g class="participant participant-tail" data-entity-uid="part10" data-qualified-name="PlaylistBackendController" id="part10-tail"><rect fill="#E2E2F0" height="33.0679" rx="2.5" ry="2.5" style="stroke:#181818;stroke-width:0.5;" width="182.5453" x="1381.1018" y="897.098"/><text fill="#000000" font-family="sans-serif" font-size="14" lengthAdjust="spacing" textLength="168.5453" x="1388.1018" y="919.0639">PlaylistBackendController</text></g><g class="participant participant-head" data-entity-uid="part11" data-qualified-name="PlaylistBackendService" id="part11-head"><rect fill="#E2E2F0" height="33.0679" rx="2.5" ry="2.5" style="stroke:#181818;stroke-width:0.5;" width="163.0714" x="1598.0039" y="90.0679"/><text fill="#000000" font-family="sans-serif" font-size="14" lengthAdjust="spacing" textLength="149.0714" x="1605.0039" y="112.0339">PlaylistBackendService</text></g><g class="participant participant-tail" data-entity-uid="part11" data-qualified-name="PlaylistBackendService" id="part11-tail"><rect fill="#E2E2F0" height="33.0679" rx="2.5" ry="2.5" style="stroke:#181818;stroke-width:0.5;" width="163.0714" x="1598.0039" y="897.098"/><text fill="#000000" font-family="sans-serif" font-size="14" lengthAdjust="spacing" textLength="149.0714" x="1605.0039" y="919.0639">PlaylistBackendService</text></g><g class="participant participant-head" data-entity-uid="part12" data-qualified-name="PlaylistBackendRepository" id="part12-head"><rect fill="#E2E2F0" height="33.0679" rx="2.5" ry="2.5" style="stroke:#181818;stroke-width:0.5;" width="186.8153" x="1793.2971" y="90.0679"/><text fill="#000000" font-family="sans-serif" font-size="14" lengthAdjust="spacing" textLength="172.8153" x="1800.2971" y="112.0339">PlaylistBackendRepository</text></g><g class="participant participant-tail" data-entity-uid="part12" data-qualified-name="PlaylistBackendRepository" id="part12-tail"><rect fill="#E2E2F0" height="33.0679" rx="2.5" ry="2.5" style="stroke:#181818;stroke-width:0.5;" width="186.8153" x="1793.2971" y="897.098"/><text fill="#000000" font-family="sans-serif" font-size="14" lengthAdjust="spacing" textLength="172.8153" x="1800.2971" y="919.0639">PlaylistBackendRepository</text></g><g class="participant participant-head" data-entity-uid="part13" data-qualified-name="DB" id="part13-head"><text fill="#000000" font-family="sans-serif" font-size="14" lengthAdjust="spacing" textLength="19.3199" x="2009.4889" y="120.0339">DB</text><path d="M2004.1489,69.0679 C2004.1489,59.0679 2022.1489,59.0679 2022.1489,59.0679 C2022.1489,59.0679 2040.1489,59.0679 2040.1489,69.0679 L2040.1489,95.0679 C2040.1489,105.0679 2022.1489,105.0679 2022.1489,105.0679 C2022.1489,105.0679 2004.1489,105.0679 2004.1489,95.0679 L2004.1489,69.0679" fill="#E2E2F0" style="stroke:#181818;stroke-width:0.5;"/><path d="M2004.1489,69.0679 C2004.1489,79.0679 2022.1489,79.0679 2022.1489,79.0679 C2022.1489,79.0679 2040.1489,79.0679 2040.1489,69.0679" fill="none" style="stroke:#181818;stroke-width:0.5;"/></g><g class="participant participant-tail" data-entity-uid="part13" data-qualified-name="DB" id="part13-tail"><text fill="#000000" font-family="sans-serif" font-size="14" lengthAdjust="spacing" textLength="19.3199" x="2009.4889" y="912.0639">DB</text><path d="M2004.1489,926.1659 C2004.1489,916.1659 2022.1489,916.1659 2022.1489,916.1659 C2022.1489,916.1659 2040.1489,916.1659 2040.1489,926.1659 L2040.1489,952.1659 C2040.1489,962.1659 2022.1489,962.1659 2022.1489,962.1659 C2022.1489,962.1659 2004.1489,962.1659 2004.1489,952.1659 L2004.1489,926.1659" fill="#E2E2F0" style="stroke:#181818;stroke-width:0.5;"/><path d="M2004.1489,926.1659 C2004.1489,936.1659 2022.1489,936.1659 2022.1489,936.1659 C2022.1489,936.1659 2040.1489,936.1659 2040.1489,926.1659" fill="none" style="stroke:#181818;stroke-width:0.5;"/></g><g class="participant participant-head" data-entity-uid="part14" data-qualified-name="EventBus" id="part14-head"><rect fill="#E2E2F0" height="33.0679" rx="2.5" ry="2.5" style="stroke:#181818;stroke-width:0.5;" width="74.9557" x="2050.1489" y="90.0679"/><text fill="#000000" font-family="sans-serif" font-size="14" lengthAdjust="spacing" textLength="60.9557" x="2057.1489" y="112.0339">EventBus</text></g><g class="participant participant-tail" data-entity-uid="part14" data-qualified-name="EventBus" id="part14-tail"><rect fill="#E2E2F0" height="33.0679" rx="2.5" ry="2.5" style="stroke:#181818;stroke-width:0.5;" width="74.9557" x="2050.1489" y="897.098"/><text fill="#000000" font-family="sans-serif" font-size="14" lengthAdjust="spacing" textLength="60.9557" x="2057.1489" y="919.0639">EventBus</text></g><g><title>MainPanel</title><rect fill="#FFFFFF" height="31.706" style="stroke:#181818;stroke-width:1;" width="10" x="88.2678" y="760.2562"/></g><g><title>TopBarView</title><rect fill="#FFFFFF" height="118.8241" style="stroke:#181818;stroke-width:1;" width="10" x="186.1735" y="134.1358"/></g><g><title>TopBarController</title><rect fill="#FFFFFF" height="31.706" style="stroke:#181818;stroke-width:1;" width="10" x="371.9926" y="252.9599"/></g><g><title>SearchView</title><rect fill="#FFFFFF" height="43.0679" style="stroke:#181818;stroke-width:1;" width="10" x="490.6322" y="846.0301"/></g><g><title>SearchController</title><rect fill="#FFFFFF" height="87.1358" style="stroke:#181818;stroke-width:1;" width="10" x="691.3704" y="801.9622"/></g><g><title>PlaylistService</title><rect fill="#FFFFFF" height="412.1782" style="stroke:#181818;stroke-width:1;" width="10" x="817.136" y="284.6659"/></g><g><title>PlaylistApi</title><rect fill="#FFFFFF" height="348.7662" style="stroke:#181818;stroke-width:1;" width="10" x="1024.3011" y="316.3719"/></g><g><title>ApiService</title><rect fill="#FFFFFF" height="285.3541" style="stroke:#181818;stroke-width:1;" width="10" x="1260.2093" y="348.0779"/></g><g><title>PlaylistBackendController</title><rect fill="#FFFFFF" height="221.9421" style="stroke:#181818;stroke-width:1;" width="10" x="1467.3745" y="379.784"/></g><g><title>PlaylistBackendService</title><rect fill="#FFFFFF" height="158.5301" style="stroke:#181818;stroke-width:1;" width="10" x="1674.5396" y="411.49"/></g><g><title>PlaylistBackendRepository</title><rect fill="#FFFFFF" height="95.118" style="stroke:#181818;stroke-width:1;" width="10" x="1881.7048" y="443.196"/></g><g><title>EventBus</title><rect fill="#FFFFFF" height="31.706" style="stroke:#181818;stroke-width:1;" width="10" x="2082.6268" y="728.5501"/></g><g class="message" data-entity-1="part1" data-entity-2="part3" id="msg1"><polygon fill="#181818" points="174.1735,153.8419,184.1735,157.8419,174.1735,161.8419,178.1735,157.8419" style="stroke:#181818;stroke-width:1;"/><line style="stroke:#181818;stroke-width:1;" x1="23.3089" x2="180.1735" y1="157.8419" y2="157.8419"/><text fill="#000000" font-family="sans-serif" font-size="13" lengthAdjust="spacing" textLength="119.8081" x="30.3089" y="152.0328">writes search query</text></g><g class="message" data-entity-1="part1" data-entity-2="part3" id="msg2"><polygon fill="#181818" points="174.1735,185.5479,184.1735,189.5479,174.1735,193.5479,178.1735,189.5479" style="stroke:#181818;stroke-width:1;"/><line style="stroke:#181818;stroke-width:1;" x1="23.3089" x2="180.1735" y1="189.5479" y2="189.5479"/><text fill="#000000" font-family="sans-serif" font-size="13" lengthAdjust="spacing" textLength="87.5551" x="30.3089" y="183.7389">selects Playlist</text></g><g class="message" data-entity-1="part1" data-entity-2="part3" id="msg3"><polygon fill="#181818" points="174.1735,217.2539,184.1735,221.2539,174.1735,225.2539,178.1735,221.2539" style="stroke:#181818;stroke-width:1;"/><line style="stroke:#181818;stroke-width:1;" x1="23.3089" x2="180.1735" y1="221.2539" y2="221.2539"/><text fill="#000000" font-family="sans-serif" font-size="13" lengthAdjust="spacing" textLength="107.0291" x="30.3089" y="215.4449">clicks on "Search"</text></g><g class="message" data-entity-1="part3" data-entity-2="part4" id="msg4"><polygon fill="#181818" points="359.9926,248.9599,369.9926,252.9599,359.9926,256.9599,363.9926,252.9599" style="stroke:#181818;stroke-width:1;"/><line style="stroke:#181818;stroke-width:1;" x1="191.1735" x2="365.9926" y1="252.9599" y2="252.9599"/><text fill="#000000" font-family="sans-serif" font-size="13" lengthAdjust="spacing" textLength="156.8191" x="198.1735" y="247.1509">search(query,searchType)</text></g><g class="message" data-entity-1="part4" data-entity-2="part7" id="msg5"><polygon fill="#181818" points="805.136,280.6659,815.136,284.6659,805.136,288.6659,809.136,284.6659" style="stroke:#181818;stroke-width:1;"/><line style="stroke:#181818;stroke-width:1;" x1="376.9926" x2="811.136" y1="284.6659" y2="284.6659"/><text fill="#000000" font-family="sans-serif" font-size="13" lengthAdjust="spacing" textLength="178.1651" x="383.9926" y="278.8569">searchPlaylistByName(query)</text></g><g class="message" data-entity-1="part7" data-entity-2="part8" id="msg6"><polygon fill="#181818" points="1012.3011,312.3719,1022.3011,316.3719,1012.3011,320.3719,1016.3011,316.3719" style="stroke:#181818;stroke-width:1;"/><line style="stroke:#181818;stroke-width:1;" x1="827.136" x2="1018.3011" y1="316.3719" y2="316.3719"/><text fill="#000000" font-family="sans-serif" font-size="13" lengthAdjust="spacing" textLength="178.1651" x="834.136" y="310.5629">searchPlaylistByName(query)</text></g><g class="message" data-entity-1="part8" data-entity-2="part9" id="msg7"><polygon fill="#181818" points="1248.2093,344.0779,1258.2093,348.0779,1248.2093,352.0779,1252.2093,348.0779" style="stroke:#181818;stroke-width:1;"/><line style="stroke:#181818;stroke-width:1;" x1="1034.3011" x2="1254.2093" y1="348.0779" y2="348.0779"/><text fill="#000000" font-family="sans-serif" font-size="13" lengthAdjust="spacing" textLength="206.9082" x="1041.3011" y="342.2689">post("playlist/getByName", query)</text></g><g class="message" data-entity-1="part9" data-entity-2="part10" id="msg8"><polygon fill="#181818" points="1455.3745,375.784,1465.3745,379.784,1455.3745,383.784,1459.3745,379.784" style="stroke:#181818;stroke-width:1;"/><line style="stroke:#181818;stroke-width:1;" x1="1270.2093" x2="1461.3745" y1="379.784" y2="379.784"/><text fill="#000000" font-family="sans-serif" font-size="13" lengthAdjust="spacing" textLength="178.1651" x="1277.2093" y="373.975">searchPlaylistByName(query)</text></g><g class="message" data-entity-1="part10" data-entity-2="part11" id="msg9"><polygon fill="#181818" points="1662.5396,407.49,1672.5396,411.49,1662.5396,415.49,1666.5396,411.49" style="stroke:#181818;stroke-width:1;"/><line style="stroke:#181818;stroke-width:1;" x1="1477.3745" x2="1668.5396" y1="411.49" y2="411.49"/><text fill="#000000" font-family="sans-serif" font-size="13" lengthAdjust="spacing" textLength="178.1651" x="1484.3745" y="405.681">searchPlaylistByName(query)</text></g><g class="message" data-entity-1="part11" data-entity-2="part12" id="msg10"><polygon fill="#181818" points="1869.7048,439.196,1879.7048,443.196,1869.7048,447.196,1873.7048,443.196" style="stroke:#181818;stroke-width:1;"/><line style="stroke:#181818;stroke-width:1;" x1="1684.5396" x2="1875.7048" y1="443.196" y2="443.196"/><text fill="#000000" font-family="sans-serif" font-size="13" lengthAdjust="spacing" textLength="178.1651" x="1691.5396" y="437.387">searchPlaylistByName(query)</text></g><g class="message" data-entity-1="part12" data-entity-2="part13" id="msg11"><polygon fill="#181818" points="2010.1489,470.902,2020.1489,474.902,2010.1489,478.902,2014.1489,474.902" style="stroke:#181818;stroke-width:1;"/><line style="stroke:#181818;stroke-width:1;" x1="1891.7048" x2="2016.1489" y1="474.902" y2="474.902"/><text fill="#000000" font-family="sans-serif" font-size="13" lengthAdjust="spacing" textLength="106.4441" x="1898.7048" y="469.093">run mySQL query</text></g><g class="message" data-entity-1="part13" data-entity-2="part12" id="msg12"><polygon fill="#181818" points="1902.7048,502.608,1892.7048,506.608,1902.7048,510.608,1898.7048,506.608" style="stroke:#181818;stroke-width:1;"/><line style="stroke:#181818;stroke-width:1;stroke-dasharray:2,2;" x1="1896.7048" x2="2021.1489" y1="506.608" y2="506.608"/><text fill="#000000" font-family="sans-serif" font-size="13" lengthAdjust="spacing" textLength="83.4471" x="1908.7048" y="500.799">return results</text></g><g class="message" data-entity-1="part12" data-entity-2="part11" id="msg13"><polygon fill="#181818" points="1695.5396,534.314,1685.5396,538.314,1695.5396,542.314,1691.5396,538.314" style="stroke:#181818;stroke-width:1;"/><line style="stroke:#181818;stroke-width:1;stroke-dasharray:2,2;" x1="1689.5396" x2="1885.7048" y1="538.314" y2="538.314"/><text fill="#000000" font-family="sans-serif" font-size="13" lengthAdjust="spacing" textLength="83.4471" x="1701.5396" y="532.505">return results</text></g><g class="message" data-entity-1="part11" data-entity-2="part10" id="msg14"><polygon fill="#181818" points="1488.3745,566.0201,1478.3745,570.0201,1488.3745,574.0201,1484.3745,570.0201" style="stroke:#181818;stroke-width:1;"/><line style="stroke:#181818;stroke-width:1;stroke-dasharray:2,2;" x1="1482.3745" x2="1678.5396" y1="570.0201" y2="570.0201"/><text fill="#000000" font-family="sans-serif" font-size="13" lengthAdjust="spacing" textLength="83.4471" x="1494.3745" y="564.2111">return results</text></g><g class="message" data-entity-1="part10" data-entity-2="part9" id="msg15"><polygon fill="#181818" points="1281.2093,597.7261,1271.2093,601.7261,1281.2093,605.7261,1277.2093,601.7261" style="stroke:#181818;stroke-width:1;"/><line style="stroke:#181818;stroke-width:1;stroke-dasharray:2,2;" x1="1275.2093" x2="1471.3745" y1="601.7261" y2="601.7261"/><text fill="#000000" font-family="sans-serif" font-size="13" lengthAdjust="spacing" textLength="83.4471" x="1287.2093" y="595.9171">return results</text></g><g class="message" data-entity-1="part9" data-entity-2="part8" id="msg16"><polygon fill="#181818" points="1045.3011,629.4321,1035.3011,633.4321,1045.3011,637.4321,1041.3011,633.4321" style="stroke:#181818;stroke-width:1;"/><line style="stroke:#181818;stroke-width:1;stroke-dasharray:2,2;" x1="1039.3011" x2="1264.2093" y1="633.4321" y2="633.4321"/><text fill="#000000" font-family="sans-serif" font-size="13" lengthAdjust="spacing" textLength="83.4471" x="1051.3011" y="627.6231">return results</text></g><g class="message" data-entity-1="part8" data-entity-2="part7" id="msg17"><polygon fill="#181818" points="838.136,661.1381,828.136,665.1381,838.136,669.1381,834.136,665.1381" style="stroke:#181818;stroke-width:1;"/><line style="stroke:#181818;stroke-width:1;stroke-dasharray:2,2;" x1="832.136" x2="1028.3011" y1="665.1381" y2="665.1381"/><text fill="#000000" font-family="sans-serif" font-size="13" lengthAdjust="spacing" textLength="83.4471" x="844.136" y="659.3291">return results</text></g><g class="message" data-entity-1="part7" data-entity-2="part4" id="msg18"><polygon fill="#181818" points="387.9926,692.8441,377.9926,696.8441,387.9926,700.8441,383.9926,696.8441" style="stroke:#181818;stroke-width:1;"/><line style="stroke:#181818;stroke-width:1;stroke-dasharray:2,2;" x1="381.9926" x2="821.136" y1="696.8441" y2="696.8441"/><text fill="#000000" font-family="sans-serif" font-size="13" lengthAdjust="spacing" textLength="83.4471" x="393.9926" y="691.0351">return results</text></g><g class="message" data-entity-1="part4" data-entity-2="part14" id="msg19"><polygon fill="#181818" points="2070.6268,724.5501,2080.6268,728.5501,2070.6268,732.5501,2074.6268,728.5501" style="stroke:#181818;stroke-width:1;"/><line style="stroke:#181818;stroke-width:1;" x1="376.9926" x2="2076.6268" y1="728.5501" y2="728.5501"/><text fill="#000000" font-family="sans-serif" font-size="13" lengthAdjust="spacing" textLength="303.5762" x="383.9926" y="722.7411">publish SwitchMainScreenEvent, SearchController</text></g><g class="message" data-entity-1="part14" data-entity-2="part2" id="msg20"><polygon fill="#181818" points="109.2678,756.2562,99.2678,760.2562,109.2678,764.2562,105.2678,760.2562" style="stroke:#181818;stroke-width:1;"/><line style="stroke:#181818;stroke-width:1;" x1="103.2678" x2="2086.6268" y1="760.2562" y2="760.2562"/><text fill="#000000" font-family="sans-serif" font-size="13" lengthAdjust="spacing" textLength="221.3382" x="115.2678" y="754.4472">switchMainScreen(SearchController)</text></g><g class="message" data-entity-1="part2" data-entity-2="part6" id="msg21"><line style="stroke:#181818;stroke-width:1;" x1="631.9866" x2="621.9866" y1="791.9622" y2="787.9622"/><line style="stroke:#181818;stroke-width:1;" x1="631.9866" x2="621.9866" y1="791.9622" y2="795.9622"/><line style="stroke:#181818;stroke-width:1;stroke-dasharray:2,2;" x1="93.2678" x2="632.9866" y1="791.9622" y2="791.9622"/><text fill="#000000" font-family="sans-serif" font-size="13" lengthAdjust="spacing" textLength="74.6201" x="100.2678" y="786.1532">new(results)</text></g><rect fill="#E2E2F0" height="33.0679" rx="2.5" ry="2.5" style="stroke:#181818;stroke-width:0.5;" width="124.7676" x="633.9866" y="768.2562"/><text fill="#000000" font-family="sans-serif" font-size="14" lengthAdjust="spacing" textLength="110.7676" x="640.9866" y="790.2221">SearchController</text><g class="message" data-entity-1="part6" data-entity-2="part5" id="msg23"><line style="stroke:#181818;stroke-width:1;" x1="541.3831" x2="551.3831" y1="836.0301" y2="832.0301"/><line style="stroke:#181818;stroke-width:1;" x1="541.3831" x2="551.3831" y1="836.0301" y2="840.0301"/><line style="stroke:#181818;stroke-width:1;stroke-dasharray:2,2;" x1="540.3831" x2="690.3704" y1="836.0301" y2="836.0301"/><text fill="#000000" font-family="sans-serif" font-size="13" lengthAdjust="spacing" textLength="33.384" x="557.3831" y="830.2211">new()</text></g><rect fill="#E2E2F0" height="33.0679" rx="2.5" ry="2.5" style="stroke:#181818;stroke-width:0.5;" width="89.5017" x="450.8814" y="812.3241"/><text fill="#000000" font-family="sans-serif" font-size="14" lengthAdjust="spacing" textLength="75.5017" x="457.8814" y="834.29">SearchView</text><g class="message" data-entity-1="part6" data-entity-2="part5" id="msg25"><polygon fill="#181818" points="511.6322,876.098,501.6322,880.098,511.6322,884.098,507.6322,880.098" style="stroke:#181818;stroke-width:1;"/><line style="stroke:#181818;stroke-width:1;" x1="505.6322" x2="690.3704" y1="880.098" y2="880.098"/><text fill="#000000" font-family="sans-serif" font-size="13" lengthAdjust="spacing" textLength="166.7382" x="517.6322" y="874.289">showSearchResults(results)</text></g><?plantuml-src dLLDRzim3BtxLmWvfK2AtNSeCBUzRKDNTxkh2j48LMLFacFutu_-Y4nBSkpk58GYtwEV7aKddG9M03VYn9uKRvMqBikuSALXlosOBAkuSLB8Ycl7Vd2fdxW6DOk-b5NEpHy9JI9yNsfdIgKGYXuEb57D45wekVHNW3bB0ScpRvMSnV7_jVISYtVGnnN2CMi3q3DKfPKeNfjbH-xuAxV07lAvYezdq2wlRQ-pF7C7LC9ETNPxHqBiAskCT62P7IxgRmr8a4oqe40uEzrbCaieATujApNR3OhlCdBkioTPUkGkSTzp7uO_Bsq5DzaHKfyHn8Z24JRo1LVhwRoyxK_-0GDvWf6W-vFGBI45OKMJh316g9tFQ3cYJLP3CBI1s--gCUFB6uo0kmCB8Ob52GHfBpBfPvkDNRuC7VDkkvCbqb3-03IccqReFnd932v38-z3ZWIcrkoZBNvz7uSAWxShFHbmjT7uOslbx3MEQre6ACJIcp_7QxZYbSrK2tT5tH7wV3CsCHzrUJI5ou1aJcQJbtm-rlkY4qpRIJnzws2Nnb9ls-Mvxrw5-XMpJwnef1EdRfiMmW3eFkKGRp_FurU61qDWlusxGGaGzo7MxDNqS3uoRNOixm9HBnCRgdGNdMCF6fhzgD6CRSBseGXznjela8Y0q8vhh2Ey2K4NYeDIUogR8V0yT3nr_Wy0?></g></svg>