<?plantuml 1.2026.2?><svg xmlns="http://www.w3.org/2000/svg" xmlns:xlink="http://www.w3.org/1999/xlink" contentStyleType="text/css" data-diagram-type="SEQUENCE" height="981px" preserveAspectRatio="none" style="width:2073px;height:981px;background:#FFFFFF;" version="1.1" viewBox="0 0 2073 981" width="2073px" zoomAndPan="magnify"><title>Search Artist</title><defs/><g><text fill="#000000" font-family="sans-serif" font-size="14" font-weight="bold" lengthAdjust="spacing" textLength="88.6337" x="991.6195" y="29.9659">Search Artist</text><g><title>MainPanel</title><rect fill="#FFFFFF" height="31.706" style="stroke:#181818;stroke-width:1;" width="10" x="88.2678" y="760.2562"/></g><g><title>TopBarView</title><rect fill="#FFFFFF" height="118.8241" style="stroke:#181818;stroke-width:1;" width="10" x="186.1735" y="134.1358"/></g><g><title>TopBarController</title><rect fill="#FFFFFF" height="31.706" style="stroke:#181818;stroke-width:1;" width="10" x="371.9926" y="252.9599"/></g><g><title>SearchView</title><rect fill="#FFFFFF" height="43.0679" style="stroke:#181818;stroke-width:1;" width="10" x="490.6322" y="846.0301"/></g><g><title>SearchController</title><rect fill="#FFFFFF" height="87.1358" style="stroke:#181818;stroke-width:1;" width="10" x="691.3704" y="801.9622"/></g><g><title>ArtistService</title><rect fill="#FFFFFF" height="412.1782" style="stroke:#181818;stroke-width:1;" width="10" x="811.683" y="284.6659"/></g><g><title>ArtistApi</title><rect fill="#FFFFFF" height="348.7662" style="stroke:#181818;stroke-width:1;" width="10" x="1008.7212" y="316.3719"/></g><g><title>ApiService</title><rect fill="#FFFFFF" height="285.3541" style="stroke:#181818;stroke-width:1;" width="10" x="1233.3584" y="348.0779"/></g><g><title>ArtistBackendController</title><rect fill="#FFFFFF" height="221.9421" style="stroke:#181818;stroke-width:1;" width="10" x="1430.3965" y="379.784"/></g><g><title>ArtistBackendService</title><rect fill="#FFFFFF" height="158.5301" style="stroke:#181818;stroke-width:1;" width="10" x="1627.4346" y="411.49"/></g><g><title>ArtistBackendRepository</title><rect fill="#FFFFFF" height="95.118" style="stroke:#181818;stroke-width:1;" width="10" x="1824.4728" y="443.196"/></g><g><title>EventBus</title><rect fill="#FFFFFF" height="31.706" style="stroke:#181818;stroke-width:1;" width="10" x="2025.3948" y="728.5501"/></g><g class="participant-lifeline" data-entity-uid="part1" data-qualified-name="User" id="part1-lifeline"><g><title>User</title><rect fill="#000000" fill-opacity="0.00000" height="773.9622" width="8" x="19.3089" y="124.1358"/><line style="stroke:#181818;stroke-width:0.5;stroke-dasharray:5,5;" x1="23" x2="23" y1="124.1358" y2="898.098"/></g></g><g class="participant-lifeline" data-entity-uid="part2" data-qualified-name="MainPanel" id="part2-lifeline"><g><title>MainPanel</title><rect fill="#000000" fill-opacity="0.00000" height="773.9622" width="8" x="89.2678" y="124.1358"/><line style="stroke:#181818;stroke-width:0.5;stroke-dasharray:5,5;" x1="92.6179" x2="92.6179" y1="124.1358" y2="898.098"/></g></g><g class="participant-lifeline" data-entity-uid="part3" data-qualified-name="TopBarView" id="part3-lifeline"><g><title>TopBarView</title><rect fill="#000000" fill-opacity="0.00000" height="773.9622" width="8" x="187.1735" y="124.1358"/><line style="stroke:#181818;stroke-width:0.5;stroke-dasharray:5,5;" x1="190.9176" x2="190.9176" y1="124.1358" y2="898.098"/></g></g><g class="participant-lifeline" data-entity-uid="part4" data-qualified-name="TopBarController" id="part4-lifeline"><g><title>TopBarController</title><rect fill="#000000" fill-opacity="0.00000" height="773.9622" width="8" x="372.9926" y="124.1358"/><line style="stroke:#181818;stroke-width:0.5;stroke-dasharray:5,5;" x1="376.1038" x2="376.1038" y1="124.1358" y2="898.098"/></g></g><g class="participant-lifeline" data-entity-uid="part5" data-qualified-name="SearchView" id="part5-lifeline"><g><title>SearchView</title><rect fill="#000000" fill-opacity="0.00000" height="53.74" width="8" x="491.6322" y="844.358"/><line style="stroke:#181818;stroke-width:0.5;stroke-dasharray:5,5;" x1="494.8814" x2="494.8814" y1="844.358" y2="898.098"/></g></g><g class="participant-lifeline" data-entity-uid="part6" data-qualified-name="SearchController" id="part6-lifeline"><g><title>SearchController</title><rect fill="#000000" fill-opacity="0.00000" height="97.8079" width="8" x="692.3704" y="800.2901"/><line style="stroke:#181818;stroke-width:0.5;stroke-dasharray:5,5;" x1="695.9866" x2="695.9866" y1="800.2901" y2="898.098"/></g></g><g class="participant-lifeline" data-entity-uid="part7" data-qualified-name="ArtistService" id="part7-lifeline"><g><title>ArtistService</title><rect fill="#000000" fill-opacity="0.00000" height="773.9622" width="8" x="812.683" y="124.1358"/><line style="stroke:#181818;stroke-width:0.5;stroke-dasharray:5,5;" x1="815.7542" x2="815.7542" y1="124.1358" y2="898.098"/></g></g><g class="participant-lifeline" data-entity-uid="part8" data-qualified-name="ArtistApi" id="part8-lifeline"><g><title>ArtistApi</title><rect fill="#000000" fill-opacity="0.00000" height="773.9622" width="8" x="1009.7212" y="124.1358"/><line style="stroke:#181818;stroke-width:0.5;stroke-dasharray:5,5;" x1="1013.5603" x2="1013.5603" y1="124.1358" y2="898.098"/></g></g><g class="participant-lifeline" data-entity-uid="part9" data-qualified-name="ApiService" id="part9-lifeline"><g><title>ApiService</title><rect fill="#000000" fill-opacity="0.00000" height="773.9622" width="8" x="1234.3584" y="124.1358"/><line style="stroke:#181818;stroke-width:0.5;stroke-dasharray:5,5;" x1="1237.4225" x2="1237.4225" y1="124.1358" y2="898.098"/></g></g><g class="participant-lifeline" data-entity-uid="part10" data-qualified-name="ArtistBackendController" id="part10-lifeline"><g><title>ArtistBackendController</title><rect fill="#000000" fill-opacity="0.00000" height="773.9622" width="8" x="1431.3965" y="124.1358"/><line style="stroke:#181818;stroke-width:0.5;stroke-dasharray:5,5;" x1="1434.5768" x2="1434.5768" y1="124.1358" y2="898.098"/></g></g><g class="participant-lifeline" data-entity-uid="part11" data-qualified-name="ArtistBackendService" id="part11-lifeline"><g><title>ArtistBackendService</title><rect fill="#000000" fill-opacity="0.00000" height="773.9622" width="8" x="1628.4346" y="124.1358"/><line style="stroke:#181818;stroke-width:0.5;stroke-dasharray:5,5;" x1="1632.3519" x2="1632.3519" y1="124.1358" y2="898.098"/></g></g><g class="participant-lifeline" data-entity-uid="part12" data-qualified-name="ArtistBackendRepository" id="part12-lifeline"><g><title>ArtistBackendRepository</title><rect fill="#000000" fill-opacity="0.00000" height="773.9622" width="8" x="1825.4728" y="124.1358"/><line style="stroke:#181818;stroke-width:0.5;stroke-dasharray:5,5;" x1="1828.5181" x2="1828.5181" y1="124.1358" y2="898.098"/></g></g><g class="participant-lifeline" data-entity-uid="part13" data-qualified-name="DB" id="part13-lifeline"><g><title>DB</title><rect fill="#000000" fill-opacity="0.00000" height="773.9622" width="8" x="1960.9169" y="124.1358"/><line style="stroke:#181818;stroke-width:0.5;stroke-dasharray:5,5;" x1="1964.9169" x2="1964.9169" y1="124.1358" y2="898.098"/></g></g><g class="participant-lifeline" data-entity-uid="part14" data-qualified-name="EventBus" id="part14-lifeline"><g><title>EventBus</title><rect fill="#000000" fill-opacity="0.00000" height="773.9622" width="8" x="2026.3948" y="124.1358"/><line style="stroke:#181818;stroke-width:0.5;stroke-dasharray:5,5;" x1="2029.9169" x2="2029.9169" y1="124.1358" y2="898.098"/></g></g><g class="participant participant-head" data-entity-uid="part1" data-qualified-name="User" id="part1-head"><text fill="#000000" font-family="sans-serif" font-size="14" lengthAdjust="spacing" textLength="30.6179" x="5" y="120.0339">User</text><ellipse cx="23.3089" cy="53.5679" fill="#E2E2F0" rx="8" ry="8" style="stroke:#181818;stroke-width:0.5;"/><path d="M23.3089,61.5679 L23.3089,88.5679 M10.3089,69.5679 L36.3089,69.5679 M23.3089,88.5679 L10.3089,103.5679 M23.3089,88.5679 L36.3089,103.5679" fill="none" style="stroke:#181818;stroke-width:0.5;"/></g><g class="participant participant-tail" data-entity-uid="part1" data-qualified-name="User" id="part1-tail"><text fill="#000000" font-family="sans-serif" font-size="14" lengthAdjust="spacing" textLength="30.6179" x="5" y="912.0639">User</text><ellipse cx="23.3089" cy="924.6659" fill="#E2E2F0" rx="8" ry="8" style="stroke:#181818;stroke-width:0.5;"/><path d="M23.3089,932.6659 L23.3089,959.6659 M10.3089,940.6659 L36.3089,940.6659 M23.3089,959.6659 L10.3089,974.6659 M23.3089,959.6659 L36.3089,974.6659" fill="none" style="stroke:#181818;stroke-width:0.5;"/></g><g class="participant participant-head" data-entity-uid="part2" data-qualified-name="MainPanel" id="part2-head"><rect fill="#E2E2F0" height="33.0679" rx="2.5" ry="2.5" style="stroke:#181818;stroke-width:0.5;" width="83.2997" x="51.6179" y="90.0679"/><text fill="#000000" font-family="sans-serif" font-size="14" lengthAdjust="spacing" textLength="69.2997" x="58.6179" y="112.0339">MainPanel</text></g><g class="participant participant-tail" data-entity-uid="part2" data-qualified-name="MainPanel" id="part2-tail"><rect fill="#E2E2F0" height="33.0679" rx="2.5" ry="2.5" style="stroke:#181818;stroke-width:0.5;" width="83.2997" x="51.6179" y="897.098"/><text fill="#000000" font-family="sans-serif" font-size="14" lengthAdjust="spacing" textLength="69.2997" x="58.6179" y="919.0639">MainPanel</text></g><g class="participant participant-head" data-entity-uid="part3" data-qualified-name="TopBarView" id="part3-head"><rect fill="#E2E2F0" height="33.0679" rx="2.5" ry="2.5" style="stroke:#181818;stroke-width:0.5;" width="92.5117" x="144.9176" y="90.0679"/><text fill="#000000" font-family="sans-serif" font-size="14" lengthAdjust="spacing" textLength="78.5117" x="151.9176" y="112.0339">TopBarView</text></g><g class="participant participant-tail" data-entity-uid="part3" data-qualified-name="TopBarView" id="part3-tail"><rect fill="#E2E2F0" height="33.0679" rx="2.5" ry="2.5" style="stroke:#181818;stroke-width:0.5;" width="92.5117" x="144.9176" y="897.098"/><text fill="#000000" font-family="sans-serif" font-size="14" lengthAdjust="spacing" textLength="78.5117" x="151.9176" y="919.0639">TopBarView</text></g><g class="participant participant-head" data-entity-uid="part4" data-qualified-name="TopBarController" id="part4-head"><rect fill="#E2E2F0" height="33.0679" rx="2.5" ry="2.5" style="stroke:#181818;stroke-width:0.5;" width="127.7776" x="313.1038" y="90.0679"/><text fill="#000000" font-family="sans-serif" font-size="14" lengthAdjust="spacing" textLength="113.7776" x="320.1038" y="112.0339">TopBarController</text></g><g class="participant participant-tail" data-entity-uid="part4" data-qualified-name="TopBarController" id="part4-tail"><rect fill="#E2E2F0" height="33.0679" rx="2.5" ry="2.5" style="stroke:#181818;stroke-width:0.5;" width="127.7776" x="313.1038" y="897.098"/><text fill="#000000" font-family="sans-serif" font-size="14" lengthAdjust="spacing" textLength="113.7776" x="320.1038" y="919.0639">TopBarController</text></g><g class="participant participant-tail" data-entity-uid="part5" data-qualified-name="SearchView" id="part5-tail"><rect fill="#E2E2F0" height="33.0679" rx="2.5" ry="2.5" style="stroke:#181818;stroke-width:0.5;" width="89.5017" x="450.8814" y="897.098"/><text fill="#000000" font-family="sans-serif" font-size="14" lengthAdjust="spacing" textLength="75.5017" x="457.8814" y="919.0639">SearchView</text></g><g class="participant participant-tail" data-entity-uid="part6" data-qualified-name="SearchController" id="part6-tail"><rect fill="#E2E2F0" height="33.0679" rx="2.5" ry="2.5" style="stroke:#181818;stroke-width:0.5;" width="124.7676" x="633.9866" y="897.098"/><text fill="#000000" font-family="sans-serif" font-size="14" lengthAdjust="spacing" textLength="110.7676" x="640.9866" y="919.0639">SearchController</text></g><g class="participant participant-head" data-entity-uid="part7" data-qualified-name="ArtistService" id="part7-head"><rect fill="#E2E2F0" height="33.0679" rx="2.5" ry="2.5" style="stroke:#181818;stroke-width:0.5;" width="95.8577" x="768.7542" y="90.0679"/><text fill="#000000" font-family="sans-serif" font-size="14" lengthAdjust="spacing" textLength="81.8577" x="775.7542" y="112.0339">ArtistService</text></g><g class="participant participant-tail" data-entity-uid="part7" data-qualified-name="ArtistService" id="part7-tail"><rect fill="#E2E2F0" height="33.0679" rx="2.5" ry="2.5" style="stroke:#181818;stroke-width:0.5;" width="95.8577" x="768.7542" y="897.098"/><text fill="#000000" font-family="sans-serif" font-size="14" lengthAdjust="spacing" textLength="81.8577" x="775.7542" y="919.0639">ArtistService</text></g><g class="participant participant-head" data-entity-uid="part8" data-qualified-name="ArtistApi" id="part8-head"><rect fill="#E2E2F0" height="33.0679" rx="2.5" ry="2.5" style="stroke:#181818;stroke-width:0.5;" width="70.3218" x="978.5603" y="90.0679"/><text fill="#000000" font-family="sans-serif" font-size="14" lengthAdjust="spacing" textLength="56.3218" x="985.5603" y="112.0339">ArtistApi</text></g><g class="participant participant-tail" data-entity-uid="part8" data-qualified-name="ArtistApi" id="part8-tail"><rect fill="#E2E2F0" height="33.0679" rx="2.5" ry="2.5" style="stroke:#181818;stroke-width:0.5;" width="70.3218" x="978.5603" y="897.098"/><text fill="#000000" font-family="sans-serif" font-size="14" lengthAdjust="spacing" textLength="56.3218" x="985.5603" y="919.0639">ArtistApi</text></g><g class="participant participant-head" data-entity-uid="part9" data-qualified-name="ApiService" id="part9-head"><rect fill="#E2E2F0" height="33.0679" rx="2.5" ry="2.5" style="stroke:#181818;stroke-width:0.5;" width="81.8717" x="1197.4225" y="90.0679"/><text fill="#000000" font-family="sans-serif" font-size="14" lengthAdjust="spacing" textLength="67.8717" x="1204.4225" y="112.0339">ApiService</text></g><g class="participant participant-tail" data-entity-uid="part9" data-qualified-name="ApiService" id="part9-tail"><rect fill="#E2E2F0" height="33.0679" rx="2.5" ry="2.5" style="stroke:#181818;stroke-width:0.5;" width="81.8717" x="1197.4225" y="897.098"/><text fill="#000000" font-family="sans-serif" font-size="14" lengthAdjust="spacing" textLength="67.8717" x="1204.4225" y="919.0639">ApiService</text></g><g class="participant participant-head" data-entity-uid="part10" data-qualified-name="ArtistBackendController" id="part10-head"><rect fill="#E2E2F0" height="33.0679" rx="2.5" ry="2.5" style="stroke:#181818;stroke-width:0.5;" width="171.6394" x="1349.5768" y="90.0679"/><text fill="#000000" font-family="sans-serif" font-size="14" lengthAdjust="spacing" textLength="157.6394" x="1356.5768" y="112.0339">ArtistBackendController</text></g><g class="participant participant-tail" data-entity-uid="part10" data-qualified-name="ArtistBackendController" id="part10-tail"><rect fill="#E2E2F0" height="33.0679" rx="2.5" ry="2.5" style="stroke:#181818;stroke-width:0.5;" width="171.6394" x="1349.5768" y="897.098"/><text fill="#000000" font-family="sans-serif" font-size="14" lengthAdjust="spacing" textLength="157.6394" x="1356.5768" y="919.0639">ArtistBackendController</text></g><g class="participant participant-head" data-entity-uid="part11" data-qualified-name="ArtistBackendService" id="part11-head"><rect fill="#E2E2F0" height="33.0679" rx="2.5" ry="2.5" style="stroke:#181818;stroke-width:0.5;" width="152.1655" x="1556.3519" y="90.0679"/><text fill="#000000" font-family="sans-serif" font-size="14" lengthAdjust="spacing" textLength="138.1655" x="1563.3519" y="112.0339">ArtistBackendService</text></g><g class="participant participant-tail" data-entity-uid="part11" data-qualified-name="ArtistBackendService" id="part11-tail"><rect fill="#E2E2F0" height="33.0679" rx="2.5" ry="2.5" style="stroke:#181818;stroke-width:0.5;" width="152.1655" x="1556.3519" y="897.098"/><text fill="#000000" font-family="sans-serif" font-size="14" lengthAdjust="spacing" textLength="138.1655" x="1563.3519" y="919.0639">ArtistBackendService</text></g><g class="participant participant-head" data-entity-uid="part12" data-qualified-name="ArtistBackendRepository" id="part12-head"><rect fill="#E2E2F0" height="33.0679" rx="2.5" ry="2.5" style="stroke:#181818;stroke-width:0.5;" width="175.9094" x="1741.5181" y="90.0679"/><text fill="#000000" font-family="sans-serif" font-size="14" lengthAdjust="spacing" textLength="161.9094" x="1748.5181" y="112.0339">ArtistBackendRepository</text></g><g class="participant participant-tail" data-entity-uid="part12" data-qualified-name="ArtistBackendRepository" id="part12-tail"><rect fill="#E2E2F0" height="33.0679" rx="2.5" ry="2.5" style="stroke:#181818;stroke-width:0.5;" width="175.9094" x="1741.5181" y="897.098"/><text fill="#000000" font-family="sans-serif" font-size="14" lengthAdjust="spacing" textLength="161.9094" x="1748.5181" y="919.0639">ArtistBackendRepository</text></g><g class="participant participant-head" data-entity-uid="part13" data-qualified-name="DB" id="part13-head"><text fill="#000000" font-family="sans-serif" font-size="14" lengthAdjust="spacing" textLength="19.3199" x="1952.257" y="120.0339">DB</text><path d="M1946.9169,69.0679 C1946.9169,59.0679 1964.9169,59.0679 1964.9169,59.0679 C1964.9169,59.0679 1982.9169,59.0679 1982.9169,69.0679 L1982.9169,95.0679 C1982.9169,105.0679 1964.9169,105.0679 1964.9169,105.0679 C1964.9169,105.0679 1946.9169,105.0679 1946.9169,95.0679 L1946.9169,69.0679" fill="#E2E2F0" style="stroke:#181818;stroke-width:0.5;"/><path d="M1946.9169,69.0679 C1946.9169,79.0679 1964.9169,79.0679 1964.9169,79.0679 C1964.9169,79.0679 1982.9169,79.0679 1982.9169,69.0679" fill="none" style="stroke:#181818;stroke-width:0.5;"/></g><g class="participant participant-tail" data-entity-uid="part13" data-qualified-name="DB" id="part13-tail"><text fill="#000000" font-family="sans-serif" font-size="14" lengthAdjust="spacing" textLength="19.3199" x="1952.257" y="912.0639">DB</text><path d="M1946.9169,926.1659 C1946.9169,916.1659 1964.9169,916.1659 1964.9169,916.1659 C1964.9169,916.1659 1982.9169,916.1659 1982.9169,926.1659 L1982.9169,952.1659 C1982.9169,962.1659 1964.9169,962.1659 1964.9169,962.1659 C1964.9169,962.1659 1946.9169,962.1659 1946.9169,952.1659 L1946.9169,926.1659" fill="#E2E2F0" style="stroke:#181818;stroke-width:0.5;"/><path d="M1946.9169,926.1659 C1946.9169,936.1659 1964.9169,936.1659 1964.9169,936.1659 C1964.9169,936.1659 1982.9169,936.1659 1982.9169,926.1659" fill="none" style="stroke:#181818;stroke-width:0.5;"/></g><g class="participant participant-head" data-entity-uid="part14" data-qualified-name="EventBus" id="part14-head"><rect fill="#E2E2F0" height="33.0679" rx="2.5" ry="2.5" style="stroke:#181818;stroke-width:0.5;" width="74.9557" x="1992.9169" y="90.0679"/><text fill="#000000" font-family="sans-serif" font-size="14" lengthAdjust="spacing" textLength="60.9557" x="1999.9169" y="112.0339">EventBus</text></g><g class="participant participant-tail" data-entity-uid="part14" data-qualified-name="EventBus" id="part14-tail"><rect fill="#E2E2F0" height="33.0679" rx="2.5" ry="2.5" style="stroke:#181818;stroke-width:0.5;" width="74.9557" x="1992.9169" y="897.098"/><text fill="#000000" font-family="sans-serif" font-size="14" lengthAdjust="spacing" textLength="60.9557" x="1999.9169" y="919.0639">EventBus</text></g><g><title>MainPanel</title><rect fill="#FFFFFF" height="31.706" style="stroke:#181818;stroke-width:1;" width="10" x="88.2678" y="760.2562"/></g><g><title>TopBarView</title><rect fill="#FFFFFF" height="118.8241" style="stroke:#181818;stroke-width:1;" width="10" x="186.1735" y="134.1358"/></g><g><title>TopBarController</title><rect fill="#FFFFFF" height="31.706" style="stroke:#181818;stroke-width:1;" width="10" x="371.9926" y="252.9599"/></g><g><title>SearchView</title><rect fill="#FFFFFF" height="43.0679" style="stroke:#181818;stroke-width:1;" width="10" x="490.6322" y="846.0301"/></g><g><title>SearchController</title><rect fill="#FFFFFF" height="87.1358" style="stroke:#181818;stroke-width:1;" width="10" x="691.3704" y="801.9622"/></g><g><title>ArtistService</title><rect fill="#FFFFFF" height="412.1782" style="stroke:#181818;stroke-width:1;" width="10" x="811.683" y="284.6659"/></g><g><title>ArtistApi</title><rect fill="#FFFFFF" height="348.7662" style="stroke:#181818;stroke-width:1;" width="10" x="1008.7212" y="316.3719"/></g><g><title>ApiService</title><rect fill="#FFFFFF" height="285.3541" style="stroke:#181818;stroke-width:1;" width="10" x="1233.3584" y="348.0779"/></g><g><title>ArtistBackendController</title><rect fill="#FFFFFF" height="221.9421" style="stroke:#181818;stroke-width:1;" width="10" x="1430.3965" y="379.784"/></g><g><title>ArtistBackendService</title><rect fill="#FFFFFF" height="158.5301" style="stroke:#181818;stroke-width:1;" width="10" x="1627.4346" y="411.49"/></g><g><title>ArtistBackendRepository</title><rect fill="#FFFFFF" height="95.118" style="stroke:#181818;stroke-width:1;" width="10" x="1824.4728" y="443.196"/></g><g><title>EventBus</title><rect fill="#FFFFFF" height="31.706" style="stroke:#181818;stroke-width:1;" width="10" x="2025.3948" y="728.5501"/></g><g class="message" data-entity-1="part1" data-entity-2="part3" id="msg1"><polygon fill="#181818" points="174.1735,153.8419,184.1735,157.8419,174.1735,161.8419,178.1735,157.8419" style="stroke:#181818;stroke-width:1;"/><line style="stroke:#181818;stroke-width:1;" x1="23.3089" x2="180.1735" y1="157.8419" y2="157.8419"/><text fill="#000000" font-family="sans-serif" font-size="13" lengthAdjust="spacing" textLength="119.8081" x="30.3089" y="152.0328">writes search query</text></g><g class="message" data-entity-1="part1" data-entity-2="part3" id="msg2"><polygon fill="#181818" points="174.1735,185.5479,184.1735,189.5479,174.1735,193.5479,178.1735,189.5479" style="stroke:#181818;stroke-width:1;"/><line style="stroke:#181818;stroke-width:1;" x1="23.3089" x2="180.1735" y1="189.5479" y2="189.5479"/><text fill="#000000" font-family="sans-serif" font-size="13" lengthAdjust="spacing" textLength="77.4281" x="30.3089" y="183.7389">selects Artist</text></g><g class="message" data-entity-1="part1" data-entity-2="part3" id="msg3"><polygon fill="#181818" points="174.1735,217.2539,184.1735,221.2539,174.1735,225.2539,178.1735,221.2539" style="stroke:#181818;stroke-width:1;"/><line style="stroke:#181818;stroke-width:1;" x1="23.3089" x2="180.1735" y1="221.2539" y2="221.2539"/><text fill="#000000" font-family="sans-serif" font-size="13" lengthAdjust="spacing" textLength="107.0291" x="30.3089" y="215.4449">clicks on "Search"</text></g><g class="message" data-entity-1="part3" data-entity-2="part4" id="msg4"><polygon fill="#181818" points="359.9926,248.9599,369.9926,252.9599,359.9926,256.9599,363.9926,252.9599" style="stroke:#181818;stroke-width:1;"/><line style="stroke:#181818;stroke-width:1;" x1="191.1735" x2="365.9926" y1="252.9599" y2="252.9599"/><text fill="#000000" font-family="sans-serif" font-size="13" lengthAdjust="spacing" textLength="156.8191" x="198.1735" y="247.1509">search(query,searchType)</text></g><g class="message" data-entity-1="part4" data-entity-2="part7" id="msg5"><polygon fill="#181818" points="799.683,280.6659,809.683,284.6659,799.683,288.6659,803.683,284.6659" style="stroke:#181818;stroke-width:1;"/><line style="stroke:#181818;stroke-width:1;" x1="376.9926" x2="805.683" y1="284.6659" y2="284.6659"/><text fill="#000000" font-family="sans-serif" font-size="13" lengthAdjust="spacing" textLength="168.0381" x="383.9926" y="278.8569">searchArtistByName(query)</text></g><g class="message" data-entity-1="part7" data-entity-2="part8" id="msg6"><polygon fill="#181818" points="996.7212,312.3719,1006.7212,316.3719,996.7212,320.3719,1000.7212,316.3719" style="stroke:#181818;stroke-width:1;"/><line style="stroke:#181818;stroke-width:1;" x1="821.683" x2="1002.7212" y1="316.3719" y2="316.3719"/><text fill="#000000" font-family="sans-serif" font-size="13" lengthAdjust="spacing" textLength="168.0381" x="828.683" y="310.5629">searchArtistByName(query)</text></g><g class="message" data-entity-1="part8" data-entity-2="part9" id="msg7"><polygon fill="#181818" points="1221.3584,344.0779,1231.3584,348.0779,1221.3584,352.0779,1225.3584,348.0779" style="stroke:#181818;stroke-width:1;"/><line style="stroke:#181818;stroke-width:1;" x1="1018.7212" x2="1227.3584" y1="348.0779" y2="348.0779"/><text fill="#000000" font-family="sans-serif" font-size="13" lengthAdjust="spacing" textLength="195.6372" x="1025.7212" y="342.2689">post("artist/getByName", query)</text></g><g class="message" data-entity-1="part9" data-entity-2="part10" id="msg8"><polygon fill="#181818" points="1418.3965,375.784,1428.3965,379.784,1418.3965,383.784,1422.3965,379.784" style="stroke:#181818;stroke-width:1;"/><line style="stroke:#181818;stroke-width:1;" x1="1243.3584" x2="1424.3965" y1="379.784" y2="379.784"/><text fill="#000000" font-family="sans-serif" font-size="13" lengthAdjust="spacing" textLength="168.0381" x="1250.3584" y="373.975">searchArtistByName(query)</text></g><g class="message" data-entity-1="part10" data-entity-2="part11" id="msg9"><polygon fill="#181818" points="1615.4346,407.49,1625.4346,411.49,1615.4346,415.49,1619.4346,411.49" style="stroke:#181818;stroke-width:1;"/><line style="stroke:#181818;stroke-width:1;" x1="1440.3965" x2="1621.4346" y1="411.49" y2="411.49"/><text fill="#000000" font-family="sans-serif" font-size="13" lengthAdjust="spacing" textLength="168.0381" x="1447.3965" y="405.681">searchArtistByName(query)</text></g><g class="message" data-entity-1="part11" data-entity-2="part12" id="msg10"><polygon fill="#181818" points="1812.4728,439.196,1822.4728,443.196,1812.4728,447.196,1816.4728,443.196" style="stroke:#181818;stroke-width:1;"/><line style="stroke:#181818;stroke-width:1;" x1="1637.4346" x2="1818.4728" y1="443.196" y2="443.196"/><text fill="#000000" font-family="sans-serif" font-size="13" lengthAdjust="spacing" textLength="168.0381" x="1644.4346" y="437.387">searchArtistByName(query)</text></g><g class="message" data-entity-1="part12" data-entity-2="part13" id="msg11"><polygon fill="#181818" points="1952.9169,470.902,1962.9169,474.902,1952.9169,478.902,1956.9169,474.902" style="stroke:#181818;stroke-width:1;"/><line style="stroke:#181818;stroke-width:1;" x1="1834.4728" x2="1958.9169" y1="474.902" y2="474.902"/><text fill="#000000" font-family="sans-serif" font-size="13" lengthAdjust="spacing" textLength="106.4441" x="1841.4728" y="469.093">run mySQL query</text></g><g class="message" data-entity-1="part13" data-entity-2="part12" id="msg12"><polygon fill="#181818" points="1845.4728,502.608,1835.4728,506.608,1845.4728,510.608,1841.4728,506.608" style="stroke:#181818;stroke-width:1;"/><line style="stroke:#181818;stroke-width:1;stroke-dasharray:2,2;" x1="1839.4728" x2="1963.9169" y1="506.608" y2="506.608"/><text fill="#000000" font-family="sans-serif" font-size="13" lengthAdjust="spacing" textLength="83.4471" x="1851.4728" y="500.799">return results</text></g><g class="message" data-entity-1="part12" data-entity-2="part11" id="msg13"><polygon fill="#181818" points="1648.4346,534.314,1638.4346,538.314,1648.4346,542.314,1644.4346,538.314" style="stroke:#181818;stroke-width:1;"/><line style="stroke:#181818;stroke-width:1;stroke-dasharray:2,2;" x1="1642.4346" x2="1828.4728" y1="538.314" y2="538.314"/><text fill="#000000" font-family="sans-serif" font-size="13" lengthAdjust="spacing" textLength="83.4471" x="1654.4346" y="532.505">return results</text></g><g class="message" data-entity-1="part11" data-entity-2="part10" id="msg14"><polygon fill="#181818" points="1451.3965,566.0201,1441.3965,570.0201,1451.3965,574.0201,1447.3965,570.0201" style="stroke:#181818;stroke-width:1;"/><line style="stroke:#181818;stroke-width:1;stroke-dasharray:2,2;" x1="1445.3965" x2="1631.4346" y1="570.0201" y2="570.0201"/><text fill="#000000" font-family="sans-serif" font-size="13" lengthAdjust="spacing" textLength="83.4471" x="1457.3965" y="564.2111">return results</text></g><g class="message" data-entity-1="part10" data-entity-2="part9" id="msg15"><polygon fill="#181818" points="1254.3584,597.7261,1244.3584,601.7261,1254.3584,605.7261,1250.3584,601.7261" style="stroke:#181818;stroke-width:1;"/><line style="stroke:#181818;stroke-width:1;stroke-dasharray:2,2;" x1="1248.3584" x2="1434.3965" y1="601.7261" y2="601.7261"/><text fill="#000000" font-family="sans-serif" font-size="13" lengthAdjust="spacing" textLength="83.4471" x="1260.3584" y="595.9171">return results</text></g><g class="message" data-entity-1="part9" data-entity-2="part8" id="msg16"><polygon fill="#181818" points="1029.7212,629.4321,1019.7212,633.4321,1029.7212,637.4321,1025.7212,633.4321" style="stroke:#181818;stroke-width:1;"/><line style="stroke:#181818;stroke-width:1;stroke-dasharray:2,2;" x1="1023.7212" x2="1237.3584" y1="633.4321" y2="633.4321"/><text fill="#000000" font-family="sans-serif" font-size="13" lengthAdjust="spacing" textLength="83.4471" x="1035.7212" y="627.6231">return results</text></g><g class="message" data-entity-1="part8" data-entity-2="part7" id="msg17"><polygon fill="#181818" points="832.683,661.1381,822.683,665.1381,832.683,669.1381,828.683,665.1381" style="stroke:#181818;stroke-width:1;"/><line style="stroke:#181818;stroke-width:1;stroke-dasharray:2,2;" x1="826.683" x2="1012.7212" y1="665.1381" y2="665.1381"/><text fill="#000000" font-family="sans-serif" font-size="13" lengthAdjust="spacing" textLength="83.4471" x="838.683" y="659.3291">return results</text></g><g class="message" data-entity-1="part7" data-entity-2="part4" id="msg18"><polygon fill="#181818" points="387.9926,692.8441,377.9926,696.8441,387.9926,700.8441,383.9926,696.8441" style="stroke:#181818;stroke-width:1;"/><line style="stroke:#181818;stroke-width:1;stroke-dasharray:2,2;" x1="381.9926" x2="815.683" y1="696.8441" y2="696.8441"/><text fill="#000000" font-family="sans-serif" font-size="13" lengthAdjust="spacing" textLength="83.4471" x="393.9926" y="691.0351">return results</text></g><g class="message" data-entity-1="part4" data-entity-2="part14" id="msg19"><polygon fill="#181818" points="2013.3948,724.5501,2023.3948,728.5501,2013.3948,732.5501,2017.3948,728.5501" style="stroke:#181818;stroke-width:1;"/><line style="stroke:#181818;stroke-width:1;" x1="376.9926" x2="2019.3948" y1="728.5501" y2="728.5501"/><text fill="#000000" font-family="sans-serif" font-size="13" lengthAdjust="spacing" textLength="303.5762" x="383.9926" y="722.7411">publish SwitchMainScreenEvent, SearchController</text></g><g class="message" data-entity-1="part14" data-entity-2="part2" id="msg20"><polygon fill="#181818" points="109.2678,756.2562,99.2678,760.2562,109.2678,764.2562,105.2678,760.2562" style="stroke:#181818;stroke-width:1;"/><line style="stroke:#181818;stroke-width:1;" x1="103.2678" x2="2029.3948" y1="760.2562" y2="760.2562"/><text fill="#000000" font-family="sans-serif" font-size="13" lengthAdjust="spacing" textLength="221.3382" x="115.2678" y="754.4472">switchMainScreen(SearchController)</text></g><g class="message" data-entity-1="part2" data-entity-2="part6" id="msg21"><line style="stroke:#181818;stroke-width:1;" x1="631.9866" x2="621.9866" y1="791.9622" y2="787.9622"/><line style="stroke:#181818;stroke-width:1;" x1="631.9866" x2="621.9866" y1="791.9622" y2="795.9622"/><line style="stroke:#181818;stroke-width:1;stroke-dasharray:2,2;" x1="93.2678" x2="632.9866" y1="791.9622" y2="791.9622"/><text fill="#000000" font-family="sans-serif" font-size="13" lengthAdjust="spacing" textLength="74.6201" x="100.2678" y="786.1532">new(results)</text></g><rect fill="#E2E2F0" height="33.0679" rx="2.5" ry="2.5" style="stroke:#181818;stroke-width:0.5;" width="124.7676" x="633.9866" y="768.2562"/><text fill="#000000" font-family="sans-serif" font-size="14" lengthAdjust="spacing" textLength="110.7676" x="640.9866" y="790.2221">SearchController</text><g class="message" data-entity-1="part6" data-entity-2="part5" id="msg23"><line style="stroke:#181818;stroke-width:1;" x1="541.3831" x2="551.3831" y1="836.0301" y2="832.0301"/><line style="stroke:#181818;stroke-width:1;" x1="541.3831" x2="551.3831" y1="836.0301" y2="840.0301"/><line style="stroke:#181818;stroke-width:1;stroke-dasharray:2,2;" x1="540.3831" x2="690.3704" y1="836.0301" y2="836.0301"/><text fill="#000000" font-family="sans-serif" font-size="13" lengthAdjust="spacing" textLength="33.384" x="557.3831" y="830.2211">new()</text></g><rect fill="#E2E2F0" height="33.0679" rx="2.5" ry="2.5" style="stroke:#181818;stroke-width:0.5;" width="89.5017" x="450.8814" y="812.3241"/><text fill="#000000" font-family="sans-serif" font-size="14" lengthAdjust="spacing" textLength="75.5017" x="457.8814" y="834.29">SearchView</text><g class="message" data-entity-1="part6" data-entity-2="part5" id="msg25"><polygon fill="#181818" points="511.6322,876.098,501.6322,880.098,511.6322,884.098,507.6322,880.098" style="stroke:#181818;stroke-width:1;"/><line style="stroke:#181818;stroke-width:1;" x1="505.6322" x2="690.3704" y1="880.098" y2="880.098"/><text fill="#000000" font-family="sans-serif" font-size="13" lengthAdjust="spacing" textLength="166.7382" x="517.6322" y="874.289">showSearchResults(results)</text></g><?plantuml-src dPKzJyCm48Rt_0ghKoiLiJDK8i0620Ym6_T4BO8JRATH_prsdFexQM6gUZu_x-NrdIsfh05LW3dPeMikgP15WObiE7eJm8kYnIf8Q8kPH0-OiYVCe0wYhqrROlvEeS-4RnecULFN2kKl6i5aZmbFx37LLS3tb41cvRgbORIbqyab9b_0jhDIOyv9o0kqZQ3AiaDHRB747rW0kYr3x-xsm6JPYS5TkiSIVEEqr-XYuuNG5UevbI2GC8Vpqu4Io2OAg858SJo_R0wfAVaIg65eOLnU5DwwpNQ635oTk1oKr-RFww65LR65t4T4CS_RXAtqWkEqOgEnXqVy3KOue-QHxKhO7I7SggcMc5MAQBgZt4PDiIsbCEhGvNA1X_NBJnXHYpLAOAuHFO0jAcd5lvIOzl4KDDOxn_cyM6XoX8jbt73yGycRh2ceqhij5Pft37qVgkVxSL1Ky6As5WwouqpzYAwMOfe_xLj4yDhqh8-mZirsmfaYsJFnJp_ktZEvVcDvlHjDr0pCwtqtIPdnFrMFcqM_YCobTGfqB2Tt9nqlQJtTtKTDnGvLFPLafr--Yd00DgIiqvVAgjYBti8KsBwSUWWYuZ9c1JUUnTc8UuNLTXr8Qd5gogDDigvgOD0lHuS2DSUseOGUg0uNVoBWoOxFZnPSnT29pT5MiMjw4tWn5RlAVm40?></g></svg>