<?plantuml 1.2026.2?><svg xmlns="http://www.w3.org/2000/svg" xmlns:xlink="http://www.w3.org/1999/xlink" contentStyleType="text/css" data-diagram-type="SEQUENCE" height="981px" preserveAspectRatio="none" style="width:2065px;height:981px;background:#FFFFFF;" version="1.1" viewBox="0 0 2065 981" width="2065px" zoomAndPan="magnify"><title>Search Song</title><defs/><g><text fill="#000000" font-family="sans-serif" font-size="14" font-weight="bold" lengthAdjust="spacing" textLength="86.0227" x="988.513" y="29.9659">Search Song</text><g><title>MainPanel</title><rect fill="#FFFFFF" height="31.706" style="stroke:#181818;stroke-width:1;" width="10" x="88.2678" y="760.2562"/></g><g><title>TopBarView</title><rect fill="#FFFFFF" height="118.8241" style="stroke:#181818;stroke-width:1;" width="10" x="186.1735" y="134.1358"/></g><g><title>TopBarController</title><rect fill="#FFFFFF" height="31.706" style="stroke:#181818;stroke-width:1;" width="10" x="371.9926" y="252.9599"/></g><g><title>SearchView</title><rect fill="#FFFFFF" height="43.0679" style="stroke:#181818;stroke-width:1;" width="10" x="490.6322" y="846.0301"/></g><g><title>SearchController</title><rect fill="#FFFFFF" height="87.1358" style="stroke:#181818;stroke-width:1;" width="10" x="691.3704" y="801.9622"/></g><g><title>SongService</title><rect fill="#FFFFFF" height="412.1782" style="stroke:#181818;stroke-width:1;" width="10" x="810.815" y="284.6659"/></g><g><title>SongApi</title><rect fill="#FFFFFF" height="348.7662" style="stroke:#181818;stroke-width:1;" width="10" x="1006.2412" y="316.3719"/></g><g><title>ApiService</title><rect fill="#FFFFFF" height="285.3541" style="stroke:#181818;stroke-width:1;" width="10" x="1229.3704" y="348.0779"/></g><g><title>SongBackendController</title><rect fill="#FFFFFF" height="221.9421" style="stroke:#181818;stroke-width:1;" width="10" x="1424.7965" y="379.784"/></g><g><title>SongBackendService</title><rect fill="#FFFFFF" height="158.5301" style="stroke:#181818;stroke-width:1;" width="10" x="1620.2226" y="411.49"/></g><g><title>SongBackendRepository</title><rect fill="#FFFFFF" height="95.118" style="stroke:#181818;stroke-width:1;" width="10" x="1815.6488" y="443.196"/></g><g><title>EventBus</title><rect fill="#FFFFFF" height="31.706" style="stroke:#181818;stroke-width:1;" width="10" x="2016.5708" y="728.5501"/></g><g class="participant-lifeline" data-entity-uid="part1" data-qualified-name="User" id="part1-lifeline"><g><title>User</title><rect fill="#000000" fill-opacity="0.00000" height="773.9622" width="8" x="19.3089" y="124.1358"/><line style="stroke:#181818;stroke-width:0.5;stroke-dasharray:5,5;" x1="23" x2="23" y1="124.1358" y2="898.098"/></g></g><g class="participant-lifeline" data-entity-uid="part2" data-qualified-name="MainPanel" id="part2-lifeline"><g><title>MainPanel</title><rect fill="#000000" fill-opacity="0.00000" height="773.9622" width="8" x="89.2678" y="124.1358"/><line style="stroke:#181818;stroke-width:0.5;stroke-dasharray:5,5;" x1="92.6179" x2="92.6179" y1="124.1358" y2="898.098"/></g></g><g class="participant-lifeline" data-entity-uid="part3" data-qualified-name="TopBarView" id="part3-lifeline"><g><title>TopBarView</title><rect fill="#000000" fill-opacity="0.00000" height="773.9622" width="8" x="187.1735" y="124.1358"/><line style="stroke:#181818;stroke-width:0.5;stroke-dasharray:5,5;" x1="190.9176" x2="190.9176" y1="124.1358" y2="898.098"/></g></g><g class="participant-lifeline" data-entity-uid="part4" data-qualified-name="TopBarController" id="part4-lifeline"><g><title>TopBarController</title><rect fill="#000000" fill-opacity="0.00000" height="773.9622" width="8" x="372.9926" y="124.1358"/><line style="stroke:#181818;stroke-width:0.5;stroke-dasharray:5,5;" x1="376.1038" x2="376.1038" y1="124.1358" y2="898.098"/></g></g><g class="participant-lifeline" data-entity-uid="part5" data-qualified-name="SearchView" id="part5-lifeline"><g><title>SearchView</title><rect fill="#000000" fill-opacity="0.00000" height="53.74" width="8" x="491.6322" y="844.358"/><line style="stroke:#181818;stroke-width:0.5;stroke-dasharray:5,5;" x1="494.8814" x2="494.8814" y1="844.358" y2="898.098"/></g></g><g class="participant-lifeline" data-entity-uid="part6" data-qualified-name="SearchController" id="part6-lifeline"><g><title>SearchController</title><rect fill="#000000" fill-opacity="0.00000" height="97.8079" width="8" x="692.3704" y="800.2901"/><line style="stroke:#181818;stroke-width:0.5;stroke-dasharray:5,5;" x1="695.9866" x2="695.9866" y1="800.2901" y2="898.098"/></g></g><g class="participant-lifeline" data-entity-uid="part7" data-qualified-name="SongService" id="part7-lifeline"><g><title>SongService</title><rect fill="#000000" fill-opacity="0.00000" height="773.9622" width="8" x="811.815" y="124.1358"/><line style="stroke:#181818;stroke-width:0.5;stroke-dasharray:5,5;" x1="815.7542" x2="815.7542" y1="124.1358" y2="898.098"/></g></g><g class="participant-lifeline" data-entity-uid="part8" data-qualified-name="SongApi" id="part8-lifeline"><g><title>SongApi</title><rect fill="#000000" fill-opacity="0.00000" height="773.9622" width="8" x="1007.2412" y="124.1358"/><line style="stroke:#181818;stroke-width:0.5;stroke-dasharray:5,5;" x1="1010.9483" x2="1010.9483" y1="124.1358" y2="898.098"/></g></g><g class="participant-lifeline" data-entity-uid="part9" data-qualified-name="ApiService" id="part9-lifeline"><g><title>ApiService</title><rect fill="#000000" fill-opacity="0.00000" height="773.9622" width="8" x="1230.3704" y="124.1358"/><line style="stroke:#181818;stroke-width:0.5;stroke-dasharray:5,5;" x1="1233.4345" x2="1233.4345" y1="124.1358" y2="898.098"/></g></g><g class="participant-lifeline" data-entity-uid="part10" data-qualified-name="SongBackendController" id="part10-lifeline"><g><title>SongBackendController</title><rect fill="#000000" fill-opacity="0.00000" height="773.9622" width="8" x="1425.7965" y="124.1358"/><line style="stroke:#181818;stroke-width:0.5;stroke-dasharray:5,5;" x1="1428.8448" x2="1428.8448" y1="124.1358" y2="898.098"/></g></g><g class="participant-lifeline" data-entity-uid="part11" data-qualified-name="SongBackendService" id="part11-lifeline"><g><title>SongBackendService</title><rect fill="#000000" fill-opacity="0.00000" height="773.9622" width="8" x="1621.2226" y="124.1358"/><line style="stroke:#181818;stroke-width:0.5;stroke-dasharray:5,5;" x1="1625.0079" x2="1625.0079" y1="124.1358" y2="898.098"/></g></g><g class="participant-lifeline" data-entity-uid="part12" data-qualified-name="SongBackendRepository" id="part12-lifeline"><g><title>SongBackendRepository</title><rect fill="#000000" fill-opacity="0.00000" height="773.9622" width="8" x="1816.6488" y="124.1358"/><line style="stroke:#181818;stroke-width:0.5;stroke-dasharray:5,5;" x1="1820.5621" x2="1820.5621" y1="124.1358" y2="898.098"/></g></g><g class="participant-lifeline" data-entity-uid="part13" data-qualified-name="DB" id="part13-lifeline"><g><title>DB</title><rect fill="#000000" fill-opacity="0.00000" height="773.9622" width="8" x="1952.0929" y="124.1358"/><line style="stroke:#181818;stroke-width:0.5;stroke-dasharray:5,5;" x1="1956.0929" x2="1956.0929" y1="124.1358" y2="898.098"/></g></g><g class="participant-lifeline" data-entity-uid="part14" data-qualified-name="EventBus" id="part14-lifeline"><g><title>EventBus</title><rect fill="#000000" fill-opacity="0.00000" height="773.9622" width="8" x="2017.5708" y="124.1358"/><line style="stroke:#181818;stroke-width:0.5;stroke-dasharray:5,5;" x1="2021.0929" x2="2021.0929" y1="124.1358" y2="898.098"/></g></g><g class="participant participant-head" data-entity-uid="part1" data-qualified-name="User" id="part1-head"><text fill="#000000" font-family="sans-serif" font-size="14" lengthAdjust="spacing" textLength="30.6179" x="5" y="120.0339">User</text><ellipse cx="23.3089" cy="53.5679" fill="#E2E2F0" rx="8" ry="8" style="stroke:#181818;stroke-width:0.5;"/><path d="M23.3089,61.5679 L23.3089,88.5679 M10.3089,69.5679 L36.3089,69.5679 M23.3089,88.5679 L10.3089,103.5679 M23.3089,88.5679 L36.3089,103.5679" fill="none" style="stroke:#181818;stroke-width:0.5;"/></g><g class="participant participant-tail" data-entity-uid="part1" data-qualified-name="User" id="part1-tail"><text fill="#000000" font-family="sans-serif" font-size="14" lengthAdjust="spacing" textLength="30.6179" x="5" y="912.0639">User</text><ellipse cx="23.3089" cy="924.6659" fill="#E2E2F0" rx="8" ry="8" style="stroke:#181818;stroke-width:0.5;"/><path d="M23.3089,932.6659 L23.3089,959.6659 M10.3089,940.6659 L36.3089,940.6659 M23.3089,959.6659 L10.3089,974.6659 M23.3089,959.6659 L36.3089,974.6659" fill="none" style="stroke:#181818;stroke-width:0.5;"/></g><g class="participant participant-head" data-entity-uid="part2" data-qualified-name="MainPanel" id="part2-head"><rect fill="#E2E2F0" height="33.0679" rx="2.5" ry="2.5" style="stroke:#181818;stroke-width:0.5;" width="83.2997" x="51.6179" y="90.0679"/><text fill="#000000" font-family="sans-serif" font-size="14" lengthAdjust="spacing" textLength="69.2997" x="58.6179" y="112.0339">MainPanel</text></g><g class="participant participant-tail" data-entity-uid="part2" data-qualified-name="MainPanel" id="part2-tail"><rect fill="#E2E2F0" height="33.0679" rx="2.5" ry="2.5" style="stroke:#181818;stroke-width:0.5;" width="83.2997" x="51.6179" y="897.098"/><text fill="#000000" font-family="sans-serif" font-size="14" lengthAdjust="spacing" textLength="69.2997" x="58.6179" y="919.0639">MainPanel</text></g><g class="participant participant-head" data-entity-uid="part3" data-qualified-name="TopBarView" id="part3-head"><rect fill="#E2E2F0" height="33.0679" rx="2.5" ry="2.5" style="stroke:#181818;stroke-width:0.5;" width="92.5117" x="144.9176" y="90.0679"/><text fill="#000000" font-family="sans-serif" font-size="14" lengthAdjust="spacing" textLength="78.5117" x="151.9176" y="112.0339">TopBarView</text></g><g class="participant participant-tail" data-entity-uid="part3" data-qualified-name="TopBarView" id="part3-tail"><rect fill="#E2E2F0" height="33.0679" rx="2.5" ry="2.5" style="stroke:#181818;stroke-width:0.5;" width="92.5117" x="144.9176" y="897.098"/><text fill="#000000" font-family="sans-serif" font-size="14" lengthAdjust="spacing" textLength="78.5117" x="151.9176" y="919.0639">TopBarView</text></g><g class="participant participant-head" data-entity-uid="part4" data-qualified-name="TopBarController" id="part4-head"><rect fill="#E2E2F0" height="33.0679" rx="2.5" ry="2.5" style="stroke:#181818;stroke-width:0.5;" width="127.7776" x="313.1038" y="90.0679"/><text fill="#000000" font-family="sans-serif" font-size="14" lengthAdjust="spacing" textLength="113.7776" x="320.1038" y="112.0339">TopBarController</text></g><g class="participant participant-tail" data-entity-uid="part4" data-qualified-name="TopBarController" id="part4-tail"><rect fill="#E2E2F0" height="33.0679" rx="2.5" ry="2.5" style="stroke:#181818;stroke-width:0.5;" width="127.7776" x="313.1038" y="897.098"/><text fill="#000000" font-family="sans-serif" font-size="14" lengthAdjust="spacing" textLength="113.7776" x="320.1038" y="919.0639">TopBarController</text></g><g class="participant participant-tail" data-entity-uid="part5" data-qualified-name="SearchView" id="part5-tail"><rect fill="#E2E2F0" height="33.0679" rx="2.5" ry="2.5" style="stroke:#181818;stroke-width:0.5;" width="89.5017" x="450.8814" y="897.098"/><text fill="#000000" font-family="sans-serif" font-size="14" lengthAdjust="spacing" textLength="75.5017" x="457.8814" y="919.0639">SearchView</text></g><g class="participant participant-tail" data-entity-uid="part6" data-qualified-name="SearchController" id="part6-tail"><rect fill="#E2E2F0" height="33.0679" rx="2.5" ry="2.5" style="stroke:#181818;stroke-width:0.5;" width="124.7676" x="633.9866" y="897.098"/><text fill="#000000" font-family="sans-serif" font-size="14" lengthAdjust="spacing" textLength="110.7676" x="640.9866" y="919.0639">SearchController</text></g><g class="participant participant-head" data-entity-uid="part7" data-qualified-name="SongService" id="part7-head"><rect fill="#E2E2F0" height="33.0679" rx="2.5" ry="2.5" style="stroke:#181818;stroke-width:0.5;" width="94.1217" x="768.7542" y="90.0679"/><text fill="#000000" font-family="sans-serif" font-size="14" lengthAdjust="spacing" textLength="80.1217" x="775.7542" y="112.0339">SongService</text></g><g class="participant participant-tail" data-entity-uid="part7" data-qualified-name="SongService" id="part7-tail"><rect fill="#E2E2F0" height="33.0679" rx="2.5" ry="2.5" style="stroke:#181818;stroke-width:0.5;" width="94.1217" x="768.7542" y="897.098"/><text fill="#000000" font-family="sans-serif" font-size="14" lengthAdjust="spacing" textLength="80.1217" x="775.7542" y="919.0639">SongService</text></g><g class="participant participant-head" data-entity-uid="part8" data-qualified-name="SongApi" id="part8-head"><rect fill="#E2E2F0" height="33.0679" rx="2.5" ry="2.5" style="stroke:#181818;stroke-width:0.5;" width="68.5858" x="976.9483" y="90.0679"/><text fill="#000000" font-family="sans-serif" font-size="14" lengthAdjust="spacing" textLength="54.5858" x="983.9483" y="112.0339">SongApi</text></g><g class="participant participant-tail" data-entity-uid="part8" data-qualified-name="SongApi" id="part8-tail"><rect fill="#E2E2F0" height="33.0679" rx="2.5" ry="2.5" style="stroke:#181818;stroke-width:0.5;" width="68.5858" x="976.9483" y="897.098"/><text fill="#000000" font-family="sans-serif" font-size="14" lengthAdjust="spacing" textLength="54.5858" x="983.9483" y="919.0639">SongApi</text></g><g class="participant participant-head" data-entity-uid="part9" data-qualified-name="ApiService" id="part9-head"><rect fill="#E2E2F0" height="33.0679" rx="2.5" ry="2.5" style="stroke:#181818;stroke-width:0.5;" width="81.8717" x="1193.4345" y="90.0679"/><text fill="#000000" font-family="sans-serif" font-size="14" lengthAdjust="spacing" textLength="67.8717" x="1200.4345" y="112.0339">ApiService</text></g><g class="participant participant-tail" data-entity-uid="part9" data-qualified-name="ApiService" id="part9-tail"><rect fill="#E2E2F0" height="33.0679" rx="2.5" ry="2.5" style="stroke:#181818;stroke-width:0.5;" width="81.8717" x="1193.4345" y="897.098"/><text fill="#000000" font-family="sans-serif" font-size="14" lengthAdjust="spacing" textLength="67.8717" x="1200.4345" y="919.0639">ApiService</text></g><g class="participant participant-head" data-entity-uid="part10" data-qualified-name="SongBackendController" id="part10-head"><rect fill="#E2E2F0" height="33.0679" rx="2.5" ry="2.5" style="stroke:#181818;stroke-width:0.5;" width="169.9034" x="1344.8448" y="90.0679"/><text fill="#000000" font-family="sans-serif" font-size="14" lengthAdjust="spacing" textLength="155.9034" x="1351.8448" y="112.0339">SongBackendController</text></g><g class="participant participant-tail" data-entity-uid="part10" data-qualified-name="SongBackendController" id="part10-tail"><rect fill="#E2E2F0" height="33.0679" rx="2.5" ry="2.5" style="stroke:#181818;stroke-width:0.5;" width="169.9034" x="1344.8448" y="897.098"/><text fill="#000000" font-family="sans-serif" font-size="14" lengthAdjust="spacing" textLength="155.9034" x="1351.8448" y="919.0639">SongBackendController</text></g><g class="participant participant-head" data-entity-uid="part11" data-qualified-name="SongBackendService" id="part11-head"><rect fill="#E2E2F0" height="33.0679" rx="2.5" ry="2.5" style="stroke:#181818;stroke-width:0.5;" width="150.4295" x="1550.0079" y="90.0679"/><text fill="#000000" font-family="sans-serif" font-size="14" lengthAdjust="spacing" textLength="136.4295" x="1557.0079" y="112.0339">SongBackendService</text></g><g class="participant participant-tail" data-entity-uid="part11" data-qualified-name="SongBackendService" id="part11-tail"><rect fill="#E2E2F0" height="33.0679" rx="2.5" ry="2.5" style="stroke:#181818;stroke-width:0.5;" width="150.4295" x="1550.0079" y="897.098"/><text fill="#000000" font-family="sans-serif" font-size="14" lengthAdjust="spacing" textLength="136.4295" x="1557.0079" y="919.0639">SongBackendService</text></g><g class="participant participant-head" data-entity-uid="part12" data-qualified-name="SongBackendRepository" id="part12-head"><rect fill="#E2E2F0" height="33.0679" rx="2.5" ry="2.5" style="stroke:#181818;stroke-width:0.5;" width="174.1734" x="1733.5621" y="90.0679"/><text fill="#000000" font-family="sans-serif" font-size="14" lengthAdjust="spacing" textLength="160.1734" x="1740.5621" y="112.0339">SongBackendRepository</text></g><g class="participant participant-tail" data-entity-uid="part12" data-qualified-name="SongBackendRepository" id="part12-tail"><rect fill="#E2E2F0" height="33.0679" rx="2.5" ry="2.5" style="stroke:#181818;stroke-width:0.5;" width="174.1734" x="1733.5621" y="897.098"/><text fill="#000000" font-family="sans-serif" font-size="14" lengthAdjust="spacing" textLength="160.1734" x="1740.5621" y="919.0639">SongBackendRepository</text></g><g class="participant participant-head" data-entity-uid="part13" data-qualified-name="DB" id="part13-head"><text fill="#000000" font-family="sans-serif" font-size="14" lengthAdjust="spacing" textLength="19.3199" x="1943.433" y="120.0339">DB</text><path d="M1938.0929,69.0679 C1938.0929,59.0679 1956.0929,59.0679 1956.0929,59.0679 C1956.0929,59.0679 1974.0929,59.0679 1974.0929,69.0679 L1974.0929,95.0679 C1974.0929,105.0679 1956.0929,105.0679 1956.0929,105.0679 C1956.0929,105.0679 1938.0929,105.0679 1938.0929,95.0679 L1938.0929,69.0679" fill="#E2E2F0" style="stroke:#181818;stroke-width:0.5;"/><path d="M1938.0929,69.0679 C1938.0929,79.0679 1956.0929,79.0679 1956.0929,79.0679 C1956.0929,79.0679 1974.0929,79.0679 1974.0929,69.0679" fill="none" style="stroke:#181818;stroke-width:0.5;"/></g><g class="participant participant-tail" data-entity-uid="part13" data-qualified-name="DB" id="part13-tail"><text fill="#000000" font-family="sans-serif" font-size="14" lengthAdjust="spacing" textLength="19.3199" x="1943.433" y="912.0639">DB</text><path d="M1938.0929,926.1659 C1938.0929,916.1659 1956.0929,916.1659 1956.0929,916.1659 C1956.0929,916.1659 1974.0929,916.1659 1974.0929,926.1659 L1974.0929,952.1659 C1974.0929,962.1659 1956.0929,962.1659 1956.0929,962.1659 C1956.0929,962.1659 1938.0929,962.1659 1938.0929,952.1659 L1938.0929,926.1659" fill="#E2E2F0" style="stroke:#181818;stroke-width:0.5;"/><path d="M1938.0929,926.1659 C1938.0929,936.1659 1956.0929,936.1659 1956.0929,936.1659 C1956.0929,936.1659 1974.0929,936.1659 1974.0929,926.1659" fill="none" style="stroke:#181818;stroke-width:0.5;"/></g><g class="participant participant-head" data-entity-uid="part14" data-qualified-name="EventBus" id="part14-head"><rect fill="#E2E2F0" height="33.0679" rx="2.5" ry="2.5" style="stroke:#181818;stroke-width:0.5;" width="74.9557" x="1984.0929" y="90.0679"/><text fill="#000000" font-family="sans-serif" font-size="14" lengthAdjust="spacing" textLength="60.9557" x="1991.0929" y="112.0339">EventBus</text></g><g class="participant participant-tail" data-entity-uid="part14" data-qualified-name="EventBus" id="part14-tail"><rect fill="#E2E2F0" height="33.0679" rx="2.5" ry="2.5" style="stroke:#181818;stroke-width:0.5;" width="74.9557" x="1984.0929" y="897.098"/><text fill="#000000" font-family="sans-serif" font-size="14" lengthAdjust="spacing" textLength="60.9557" x="1991.0929" y="919.0639">EventBus</text></g><g><title>MainPanel</title><rect fill="#FFFFFF" height="31.706" style="stroke:#181818;stroke-width:1;" width="10" x="88.2678" y="760.2562"/></g><g><title>TopBarView</title><rect fill="#FFFFFF" height="118.8241" style="stroke:#181818;stroke-width:1;" width="10" x="186.1735" y="134.1358"/></g><g><title>TopBarController</title><rect fill="#FFFFFF" height="31.706" style="stroke:#181818;stroke-width:1;" width="10" x="371.9926" y="252.9599"/></g><g><title>SearchView</title><rect fill="#FFFFFF" height="43.0679" style="stroke:#181818;stroke-width:1;" width="10" x="490.6322" y="846.0301"/></g><g><title>SearchController</title><rect fill="#FFFFFF" height="87.1358" style="stroke:#181818;stroke-width:1;" width="10" x="691.3704" y="801.9622"/></g><g><title>SongService</title><rect fill="#FFFFFF" height="412.1782" style="stroke:#181818;stroke-width:1;" width="10" x="810.815" y="284.6659"/></g><g><title>SongApi</title><rect fill="#FFFFFF" height="348.7662" style="stroke:#181818;stroke-width:1;" width="10" x="1006.2412" y="316.3719"/></g><g><title>ApiService</title><rect fill="#FFFFFF" height="285.3541" style="stroke:#181818;stroke-width:1;" width="10" x="1229.3704" y="348.0779"/></g><g><title>SongBackendController</title><rect fill="#FFFFFF" height="221.9421" style="stroke:#181818;stroke-width:1;" width="10" x="1424.7965" y="379.784"/></g><g><title>SongBackendService</title><rect fill="#FFFFFF" height="158.5301" style="stroke:#181818;stroke-width:1;" width="10" x="1620.2226" y="411.49"/></g><g><title>SongBackendRepository</title><rect fill="#FFFFFF" height="95.118" style="stroke:#181818;stroke-width:1;" width="10" x="1815.6488" y="443.196"/></g><g><title>EventBus</title><rect fill="#FFFFFF" height="31.706" style="stroke:#181818;stroke-width:1;" width="10" x="2016.5708" y="728.5501"/></g><g class="message" data-entity-1="part1" data-entity-2="part3" id="msg1"><polygon fill="#181818" points="174.1735,153.8419,184.1735,157.8419,174.1735,161.8419,178.1735,157.8419" style="stroke:#181818;stroke-width:1;"/><line style="stroke:#181818;stroke-width:1;" x1="23.3089" x2="180.1735" y1="157.8419" y2="157.8419"/><text fill="#000000" font-family="sans-serif" font-size="13" lengthAdjust="spacing" textLength="119.8081" x="30.3089" y="152.0328">writes search query</text></g><g class="message" data-entity-1="part1" data-entity-2="part3" id="msg2"><polygon fill="#181818" points="174.1735,185.5479,184.1735,189.5479,174.1735,193.5479,178.1735,189.5479" style="stroke:#181818;stroke-width:1;"/><line style="stroke:#181818;stroke-width:1;" x1="23.3089" x2="180.1735" y1="189.5479" y2="189.5479"/><text fill="#000000" font-family="sans-serif" font-size="13" lengthAdjust="spacing" textLength="75.8161" x="30.3089" y="183.7389">selects Song</text></g><g class="message" data-entity-1="part1" data-entity-2="part3" id="msg3"><polygon fill="#181818" points="174.1735,217.2539,184.1735,221.2539,174.1735,225.2539,178.1735,221.2539" style="stroke:#181818;stroke-width:1;"/><line style="stroke:#181818;stroke-width:1;" x1="23.3089" x2="180.1735" y1="221.2539" y2="221.2539"/><text fill="#000000" font-family="sans-serif" font-size="13" lengthAdjust="spacing" textLength="107.0291" x="30.3089" y="215.4449">clicks on "Search"</text></g><g class="message" data-entity-1="part3" data-entity-2="part4" id="msg4"><polygon fill="#181818" points="359.9926,248.9599,369.9926,252.9599,359.9926,256.9599,363.9926,252.9599" style="stroke:#181818;stroke-width:1;"/><line style="stroke:#181818;stroke-width:1;" x1="191.1735" x2="365.9926" y1="252.9599" y2="252.9599"/><text fill="#000000" font-family="sans-serif" font-size="13" lengthAdjust="spacing" textLength="156.8191" x="198.1735" y="247.1509">search(query,searchType)</text></g><g class="message" data-entity-1="part4" data-entity-2="part7" id="msg5"><polygon fill="#181818" points="798.815,280.6659,808.815,284.6659,798.815,288.6659,802.815,284.6659" style="stroke:#181818;stroke-width:1;"/><line style="stroke:#181818;stroke-width:1;" x1="376.9926" x2="804.815" y1="284.6659" y2="284.6659"/><text fill="#000000" font-family="sans-serif" font-size="13" lengthAdjust="spacing" textLength="166.4261" x="383.9926" y="278.8569">searchSongByName(query)</text></g><g class="message" data-entity-1="part7" data-entity-2="part8" id="msg6"><polygon fill="#181818" points="994.2412,312.3719,1004.2412,316.3719,994.2412,320.3719,998.2412,316.3719" style="stroke:#181818;stroke-width:1;"/><line style="stroke:#181818;stroke-width:1;" x1="820.815" x2="1000.2412" y1="316.3719" y2="316.3719"/><text fill="#000000" font-family="sans-serif" font-size="13" lengthAdjust="spacing" textLength="166.4261" x="827.815" y="310.5629">searchSongByName(query)</text></g><g class="message" data-entity-1="part8" data-entity-2="part9" id="msg7"><polygon fill="#181818" points="1217.3704,344.0779,1227.3704,348.0779,1217.3704,352.0779,1221.3704,348.0779" style="stroke:#181818;stroke-width:1;"/><line style="stroke:#181818;stroke-width:1;" x1="1016.2412" x2="1223.3704" y1="348.0779" y2="348.0779"/><text fill="#000000" font-family="sans-serif" font-size="13" lengthAdjust="spacing" textLength="194.1292" x="1023.2412" y="342.2689">post("song/getByName", query)</text></g><g class="message" data-entity-1="part9" data-entity-2="part10" id="msg8"><polygon fill="#181818" points="1412.7965,375.784,1422.7965,379.784,1412.7965,383.784,1416.7965,379.784" style="stroke:#181818;stroke-width:1;"/><line style="stroke:#181818;stroke-width:1;" x1="1239.3704" x2="1418.7965" y1="379.784" y2="379.784"/><text fill="#000000" font-family="sans-serif" font-size="13" lengthAdjust="spacing" textLength="166.4261" x="1246.3704" y="373.975">searchSongByName(query)</text></g><g class="message" data-entity-1="part10" data-entity-2="part11" id="msg9"><polygon fill="#181818" points="1608.2226,407.49,1618.2226,411.49,1608.2226,415.49,1612.2226,411.49" style="stroke:#181818;stroke-width:1;"/><line style="stroke:#181818;stroke-width:1;" x1="1434.7965" x2="1614.2226" y1="411.49" y2="411.49"/><text fill="#000000" font-family="sans-serif" font-size="13" lengthAdjust="spacing" textLength="166.4261" x="1441.7965" y="405.681">searchSongByName(query)</text></g><g class="message" data-entity-1="part11" data-entity-2="part12" id="msg10"><polygon fill="#181818" points="1803.6488,439.196,1813.6488,443.196,1803.6488,447.196,1807.6488,443.196" style="stroke:#181818;stroke-width:1;"/><line style="stroke:#181818;stroke-width:1;" x1="1630.2226" x2="1809.6488" y1="443.196" y2="443.196"/><text fill="#000000" font-family="sans-serif" font-size="13" lengthAdjust="spacing" textLength="166.4261" x="1637.2226" y="437.387">searchSongByName(query)</text></g><g class="message" data-entity-1="part12" data-entity-2="part13" id="msg11"><polygon fill="#181818" points="1944.0929,470.902,1954.0929,474.902,1944.0929,478.902,1948.0929,474.902" style="stroke:#181818;stroke-width:1;"/><line style="stroke:#181818;stroke-width:1;" x1="1825.6488" x2="1950.0929" y1="474.902" y2="474.902"/><text fill="#000000" font-family="sans-serif" font-size="13" lengthAdjust="spacing" textLength="106.4441" x="1832.6488" y="469.093">run mySQL query</text></g><g class="message" data-entity-1="part13" data-entity-2="part12" id="msg12"><polygon fill="#181818" points="1836.6488,502.608,1826.6488,506.608,1836.6488,510.608,1832.6488,506.608" style="stroke:#181818;stroke-width:1;"/><line style="stroke:#181818;stroke-width:1;stroke-dasharray:2,2;" x1="1830.6488" x2="1955.0929" y1="506.608" y2="506.608"/><text fill="#000000" font-family="sans-serif" font-size="13" lengthAdjust="spacing" textLength="83.4471" x="1842.6488" y="500.799">return results</text></g><g class="message" data-entity-1="part12" data-entity-2="part11" id="msg13"><polygon fill="#181818" points="1641.2226,534.314,1631.2226,538.314,1641.2226,542.314,1637.2226,538.314" style="stroke:#181818;stroke-width:1;"/><line style="stroke:#181818;stroke-width:1;stroke-dasharray:2,2;" x1="1635.2226" x2="1819.6488" y1="538.314" y2="538.314"/><text fill="#000000" font-family="sans-serif" font-size="13" lengthAdjust="spacing" textLength="83.4471" x="1647.2226" y="532.505">return results</text></g><g class="message" data-entity-1="part11" data-entity-2="part10" id="msg14"><polygon fill="#181818" points="1445.7965,566.0201,1435.7965,570.0201,1445.7965,574.0201,1441.7965,570.0201" style="stroke:#181818;stroke-width:1;"/><line style="stroke:#181818;stroke-width:1;stroke-dasharray:2,2;" x1="1439.7965" x2="1624.2226" y1="570.0201" y2="570.0201"/><text fill="#000000" font-family="sans-serif" font-size="13" lengthAdjust="spacing" textLength="83.4471" x="1451.7965" y="564.2111">return results</text></g><g class="message" data-entity-1="part10" data-entity-2="part9" id="msg15"><polygon fill="#181818" points="1250.3704,597.7261,1240.3704,601.7261,1250.3704,605.7261,1246.3704,601.7261" style="stroke:#181818;stroke-width:1;"/><line style="stroke:#181818;stroke-width:1;stroke-dasharray:2,2;" x1="1244.3704" x2="1428.7965" y1="601.7261" y2="601.7261"/><text fill="#000000" font-family="sans-serif" font-size="13" lengthAdjust="spacing" textLength="83.4471" x="1256.3704" y="595.9171">return results</text></g><g class="message" data-entity-1="part9" data-entity-2="part8" id="msg16"><polygon fill="#181818" points="1027.2412,629.4321,1017.2412,633.4321,1027.2412,637.4321,1023.2412,633.4321" style="stroke:#181818;stroke-width:1;"/><line style="stroke:#181818;stroke-width:1;stroke-dasharray:2,2;" x1="1021.2412" x2="1233.3704" y1="633.4321" y2="633.4321"/><text fill="#000000" font-family="sans-serif" font-size="13" lengthAdjust="spacing" textLength="83.4471" x="1033.2412" y="627.6231">return results</text></g><g class="message" data-entity-1="part8" data-entity-2="part7" id="msg17"><polygon fill="#181818" points="831.815,661.1381,821.815,665.1381,831.815,669.1381,827.815,665.1381" style="stroke:#181818;stroke-width:1;"/><line style="stroke:#181818;stroke-width:1;stroke-dasharray:2,2;" x1="825.815" x2="1010.2412" y1="665.1381" y2="665.1381"/><text fill="#000000" font-family="sans-serif" font-size="13" lengthAdjust="spacing" textLength="83.4471" x="837.815" y="659.3291">return results</text></g><g class="message" data-entity-1="part7" data-entity-2="part4" id="msg18"><polygon fill="#181818" points="387.9926,692.8441,377.9926,696.8441,387.9926,700.8441,383.9926,696.8441" style="stroke:#181818;stroke-width:1;"/><line style="stroke:#181818;stroke-width:1;stroke-dasharray:2,2;" x1="381.9926" x2="814.815" y1="696.8441" y2="696.8441"/><text fill="#000000" font-family="sans-serif" font-size="13" lengthAdjust="spacing" textLength="83.4471" x="393.9926" y="691.0351">return results</text></g><g class="message" data-entity-1="part4" data-entity-2="part14" id="msg19"><polygon fill="#181818" points="2004.5708,724.5501,2014.5708,728.5501,2004.5708,732.5501,2008.5708,728.5501" style="stroke:#181818;stroke-width:1;"/><line style="stroke:#181818;stroke-width:1;" x1="376.9926" x2="2010.5708" y1="728.5501" y2="728.5501"/><text fill="#000000" font-family="sans-serif" font-size="13" lengthAdjust="spacing" textLength="303.5762" x="383.9926" y="722.7411">publish SwitchMainScreenEvent, SearchController</text></g><g class="message" data-entity-1="part14" data-entity-2="part2" id="msg20"><polygon fill="#181818" points="109.2678,756.2562,99.2678,760.2562,109.2678,764.2562,105.2678,760.2562" style="stroke:#181818;stroke-width:1;"/><line style="stroke:#181818;stroke-width:1;" x1="103.2678" x2="2020.5708" y1="760.2562" y2="760.2562"/><text fill="#000000" font-family="sans-serif" font-size="13" lengthAdjust="spacing" textLength="221.3382" x="115.2678" y="754.4472">switchMainScreen(SearchController)</text></g><g class="message" data-entity-1="part2" data-entity-2="part6" id="msg21"><line style="stroke:#181818;stroke-width:1;" x1="631.9866" x2="621.9866" y1="791.9622" y2="787.9622"/><line style="stroke:#181818;stroke-width:1;" x1="631.9866" x2="621.9866" y1="791.9622" y2="795.9622"/><line style="stroke:#181818;stroke-width:1;stroke-dasharray:2,2;" x1="93.2678" x2="632.9866" y1="791.9622" y2="791.9622"/><text fill="#000000" font-family="sans-serif" font-size="13" lengthAdjust="spacing" textLength="74.6201" x="100.2678" y="786.1532">new(results)</text></g><rect fill="#E2E2F0" height="33.0679" rx="2.5" ry="2.5" style="stroke:#181818;stroke-width:0.5;" width="124.7676" x="633.9866" y="768.2562"/><text fill="#000000" font-family="sans-serif" font-size="14" lengthAdjust="spacing" textLength="110.7676" x="640.9866" y="790.2221">SearchController</text><g class="message" data-entity-1="part6" data-entity-2="part5" id="msg23"><line style="stroke:#181818;stroke-width:1;" x1="541.3831" x2="551.3831" y1="836.0301" y2="832.0301"/><line style="stroke:#181818;stroke-width:1;" x1="541.3831" x2="551.3831" y1="836.0301" y2="840.0301"/><line style="stroke:#181818;stroke-width:1;stroke-dasharray:2,2;" x1="540.3831" x2="690.3704" y1="836.0301" y2="836.0301"/><text fill="#000000" font-family="sans-serif" font-size="13" lengthAdjust="spacing" textLength="33.384" x="557.3831" y="830.2211">new()</text></g><rect fill="#E2E2F0" height="33.0679" rx="2.5" ry="2.5" style="stroke:#181818;stroke-width:0.5;" width="89.5017" x="450.8814" y="812.3241"/><text fill="#000000" font-family="sans-serif" font-size="14" lengthAdjust="spacing" textLength="75.5017" x="457.8814" y="834.29">SearchView</text><g class="message" data-entity-1="part6" data-entity-2="part5" id="msg25"><polygon fill="#181818" points="511.6322,876.098,501.6322,880.098,511.6322,884.098,507.6322,880.098" style="stroke:#181818;stroke-width:1;"/><line style="stroke:#181818;stroke-width:1;" x1="505.6322" x2="690.3704" y1="880.098" y2="880.098"/><text fill="#000000" font-family="sans-serif" font-size="13" lengthAdjust="spacing" textLength="166.7382" x="517.6322" y="874.289">showSearchResults(results)</text></g><?plantuml-src bPLDRzim38Rl_XL2JYcGOlST2injR-smrTtkga8qGbtPa-GO-VUZBKUcFkoafo0K-RpqAqgoqjR0Ak1Q75ZLgFUYuC8sclqne8kYvTfA8LkkB7lcKltY2keW-jgq9TT_9VIPy7sZh6xg6b5qqSabDIwyL8EzLQ2FKa0I_z7A88R_br9BBZv0xLT4femBW1Te6oFHg5DHxBdbRzm0UoX3nnwFe6pPcT5JUUGMg5s3m-psZeJOTzPhQS4mupRaNmSea4qqK8EmnkrPDaFKKdmOrYYsSSvk2hBkisShHkgGk1rrT-xFwwc5cs8FkK-8OiJLX8rwP0kzr6ZfwIV_12UQKI9KlqAdWM8d5Ho05OM0CipEkGIhvz5106wntMuChdvx1-iWcnsBCMJSIFdKIZ9mrpQMJceU5-fSzZSdGgsCG25-7lilAf3paiUXpaE9KDqfzdcgVZzDmu_1svKUDDXEA_mnNMtD4dl9ewYQZDx5rhq_A_jy5JxZFTtTU2QlOfAXeHCPd8vb49bdVpAIuxlUn_bKKUdCTRCEEJUHkqlEL-jmIhktMXfylNffnM5ufIgX0TIOiajV5Q_XhsSFGx1_vOO1ZuZRc1NSLXxd8_EBYUNZLyMzp6heq5soZZqewBUJFu7Qp9uzY-c1wdXX9m94Tdes1i6R6BfG79MQGzExm8lhUExyFm00?></g></svg>