<?plantuml 1.2026.2?><svg xmlns="http://www.w3.org/2000/svg" xmlns:xlink="http://www.w3.org/1999/xlink" contentStyleType="text/css" data-diagram-type="SEQUENCE" height="1030px" preserveAspectRatio="none" style="width:2134px;height:1030px;background:#FFFFFF;" version="1.1" viewBox="0 0 2134 1030" width="2134px" zoomAndPan="magnify"><title>Select Playlist from Library</title><defs/><g><text fill="#000000" font-family="sans-serif" font-size="14" font-weight="bold" lengthAdjust="spacing" textLength="185.0548" x="973.6957" y="29.9659">Select Playlist from Library</text><g><title>MainPanel</title><rect fill="#FFFFFF" height="31.706" style="stroke:#181818;stroke-width:1;" width="10" x="88.2678" y="282.9599"/></g><g><title>LibraryView</title><rect fill="#FFFFFF" height="55.412" style="stroke:#181818;stroke-width:1;" width="10" x="202.7371" y="134.1358"/></g><g><title>LibraryController</title><rect fill="#FFFFFF" height="61.706" style="stroke:#181818;stroke-width:1;" width="10" x="386.8012" y="189.5479"/></g><g><title>MusicView</title><rect fill="#FFFFFF" height="125.4618" style="stroke:#181818;stroke-width:1;" width="10" x="501.5979" y="812.6181"/></g><g><title>MusicController</title><rect fill="#FFFFFF" height="613.414" style="stroke:#181818;stroke-width:1;" width="10" x="657.915" y="324.6659"/></g><g><title>PlaylistService</title><rect fill="#FFFFFF" height="412.1782" style="stroke:#181818;stroke-width:1;" width="10" x="840.2891" y="358.7338"/></g><g><title>PlaylistApiClient</title><rect fill="#FFFFFF" height="348.7662" style="stroke:#181818;stroke-width:1;" width="10" x="1022.6633" y="390.4398"/></g><g><title>ApiService</title><rect fill="#FFFFFF" height="285.3541" style="stroke:#181818;stroke-width:1;" width="10" x="1265.3185" y="422.1459"/></g><g><title>PlaylistBackendController</title><rect fill="#FFFFFF" height="221.9421" style="stroke:#181818;stroke-width:1;" width="10" x="1507.9737" y="453.8519"/></g><g><title>PlaylistBackendService</title><rect fill="#FFFFFF" height="158.5301" style="stroke:#181818;stroke-width:1;" width="10" x="1690.782" y="485.5579"/></g><g><title>PlaylistBackendRepository</title><rect fill="#FFFFFF" height="95.118" style="stroke:#181818;stroke-width:1;" width="10" x="1875.7254" y="517.2639"/></g><g><title>EventBus</title><rect fill="#FFFFFF" height="61.706" style="stroke:#181818;stroke-width:1;" width="10" x="2085.9684" y="221.2539"/></g><rect fill="none" height="100.0999" style="stroke:#000000;stroke-width:1.5;" width="277.2498" x="454.948" y="829.98"/><g class="participant-lifeline" data-entity-uid="part1" data-qualified-name="User" id="part1-lifeline"><g><title>User</title><rect fill="#000000" fill-opacity="0.00000" height="822.9441" width="8" x="19.3089" y="124.1358"/><line style="stroke:#181818;stroke-width:0.5;stroke-dasharray:5,5;" x1="23" x2="23" y1="124.1358" y2="947.0799"/></g></g><g class="participant-lifeline" data-entity-uid="part2" data-qualified-name="MainPanel" id="part2-lifeline"><g><title>MainPanel</title><rect fill="#000000" fill-opacity="0.00000" height="822.9441" width="8" x="89.2678" y="124.1358"/><line style="stroke:#181818;stroke-width:0.5;stroke-dasharray:5,5;" x1="92.6179" x2="92.6179" y1="124.1358" y2="947.0799"/></g></g><g class="participant-lifeline" data-entity-uid="part3" data-qualified-name="LibraryView" id="part3-lifeline"><g><title>LibraryView</title><rect fill="#000000" fill-opacity="0.00000" height="822.9441" width="8" x="203.7371" y="124.1358"/><line style="stroke:#181818;stroke-width:0.5;stroke-dasharray:5,5;" x1="207.2232" x2="207.2232" y1="124.1358" y2="947.0799"/></g></g><g class="participant-lifeline" data-entity-uid="part4" data-qualified-name="LibraryController" id="part4-lifeline"><g><title>LibraryController</title><rect fill="#000000" fill-opacity="0.00000" height="822.9441" width="8" x="387.8012" y="124.1358"/><line style="stroke:#181818;stroke-width:0.5;stroke-dasharray:5,5;" x1="391.6544" x2="391.6544" y1="124.1358" y2="947.0799"/></g></g><g class="participant-lifeline" data-entity-uid="part5" data-qualified-name="MusicView" id="part5-lifeline"><g><title>MusicView</title><rect fill="#000000" fill-opacity="0.00000" height="136.1339" width="8" x="502.5979" y="810.946"/><line style="stroke:#181818;stroke-width:0.5;stroke-dasharray:5,5;" x1="505.948" x2="505.948" y1="810.946" y2="947.0799"/></g></g><g class="participant-lifeline" data-entity-uid="part6" data-qualified-name="MusicController" id="part6-lifeline"><g><title>MusicController</title><rect fill="#000000" fill-opacity="0.00000" height="624.086" width="8" x="658.915" y="322.9939"/><line style="stroke:#181818;stroke-width:0.5;stroke-dasharray:5,5;" x1="662.6322" x2="662.6322" y1="322.9939" y2="947.0799"/></g></g><g class="participant-lifeline" data-entity-uid="part7" data-qualified-name="PlaylistService" id="part7-lifeline"><g><title>PlaylistService</title><rect fill="#000000" fill-opacity="0.00000" height="822.9441" width="8" x="841.2891" y="124.1358"/><line style="stroke:#181818;stroke-width:0.5;stroke-dasharray:5,5;" x1="844.9073" x2="844.9073" y1="124.1358" y2="947.0799"/></g></g><g class="participant-lifeline" data-entity-uid="part8" data-qualified-name="PlaylistApiClient" id="part8-lifeline"><g><title>PlaylistApiClient</title><rect fill="#000000" fill-opacity="0.00000" height="822.9441" width="8" x="1023.6633" y="124.1358"/><line style="stroke:#181818;stroke-width:0.5;stroke-dasharray:5,5;" x1="1027.2125" x2="1027.2125" y1="124.1358" y2="947.0799"/></g></g><g class="participant-lifeline" data-entity-uid="part9" data-qualified-name="ApiService" id="part9-lifeline"><g><title>ApiService</title><rect fill="#000000" fill-opacity="0.00000" height="822.9441" width="8" x="1266.3185" y="124.1358"/><line style="stroke:#181818;stroke-width:0.5;stroke-dasharray:5,5;" x1="1269.3826" x2="1269.3826" y1="124.1358" y2="947.0799"/></g></g><g class="participant-lifeline" data-entity-uid="part10" data-qualified-name="PlaylistBackendController" id="part10-lifeline"><g><title>PlaylistBackendController</title><rect fill="#000000" fill-opacity="0.00000" height="822.9441" width="8" x="1508.9737" y="124.1358"/><line style="stroke:#181818;stroke-width:0.5;stroke-dasharray:5,5;" x1="1512.701" x2="1512.701" y1="124.1358" y2="947.0799"/></g></g><g class="participant-lifeline" data-entity-uid="part11" data-qualified-name="PlaylistBackendService" id="part11-lifeline"><g><title>PlaylistBackendService</title><rect fill="#000000" fill-opacity="0.00000" height="822.9441" width="8" x="1691.782" y="124.1358"/><line style="stroke:#181818;stroke-width:0.5;stroke-dasharray:5,5;" x1="1695.2463" x2="1695.2463" y1="124.1358" y2="947.0799"/></g></g><g class="participant-lifeline" data-entity-uid="part12" data-qualified-name="PlaylistBackendRepository" id="part12-lifeline"><g><title>PlaylistBackendRepository</title><rect fill="#000000" fill-opacity="0.00000" height="822.9441" width="8" x="1876.7254" y="124.1358"/><line style="stroke:#181818;stroke-width:0.5;stroke-dasharray:5,5;" x1="1880.3177" x2="1880.3177" y1="124.1358" y2="947.0799"/></g></g><g class="participant-lifeline" data-entity-uid="part13" data-qualified-name="DB" id="part13-lifeline"><g><title>DB</title><rect fill="#000000" fill-opacity="0.00000" height="822.9441" width="8" x="2021.4905" y="124.1358"/><line style="stroke:#181818;stroke-width:0.5;stroke-dasharray:5,5;" x1="2025.4905" x2="2025.4905" y1="124.1358" y2="947.0799"/></g></g><g class="participant-lifeline" data-entity-uid="part14" data-qualified-name="EventBus" id="part14-lifeline"><g><title>EventBus</title><rect fill="#000000" fill-opacity="0.00000" height="822.9441" width="8" x="2086.9684" y="124.1358"/><line style="stroke:#181818;stroke-width:0.5;stroke-dasharray:5,5;" x1="2090.4905" x2="2090.4905" y1="124.1358" y2="947.0799"/></g></g><g class="participant participant-head" data-entity-uid="part1" data-qualified-name="User" id="part1-head"><text fill="#000000" font-family="sans-serif" font-size="14" lengthAdjust="spacing" textLength="30.6179" x="5" y="120.0339">User</text><ellipse cx="23.3089" cy="53.5679" fill="#E2E2F0" rx="8" ry="8" style="stroke:#181818;stroke-width:0.5;"/><path d="M23.3089,61.5679 L23.3089,88.5679 M10.3089,69.5679 L36.3089,69.5679 M23.3089,88.5679 L10.3089,103.5679 M23.3089,88.5679 L36.3089,103.5679" fill="none" style="stroke:#181818;stroke-width:0.5;"/></g><g class="participant participant-tail" data-entity-uid="part1" data-qualified-name="User" id="part1-tail"><text fill="#000000" font-family="sans-serif" font-size="14" lengthAdjust="spacing" textLength="30.6179" x="5" y="961.0458">User</text><ellipse cx="23.3089" cy="973.6478" fill="#E2E2F0" rx="8" ry="8" style="stroke:#181818;stroke-width:0.5;"/><path d="M23.3089,981.6478 L23.3089,1008.6478 M10.3089,989.6478 L36.3089,989.6478 M23.3089,1008.6478 L10.3089,1023.6478 M23.3089,1008.6478 L36.3089,1023.6478" fill="none" style="stroke:#181818;stroke-width:0.5;"/></g><g class="participant participant-head" data-entity-uid="part2" data-qualified-name="MainPanel" id="part2-head"><rect fill="#E2E2F0" height="33.0679" rx="2.5" ry="2.5" style="stroke:#181818;stroke-width:0.5;" width="83.2997" x="51.6179" y="90.0679"/><text fill="#000000" font-family="sans-serif" font-size="14" lengthAdjust="spacing" textLength="69.2997" x="58.6179" y="112.0339">MainPanel</text></g><g class="participant participant-tail" data-entity-uid="part2" data-qualified-name="MainPanel" id="part2-tail"><rect fill="#E2E2F0" height="33.0679" rx="2.5" ry="2.5" style="stroke:#181818;stroke-width:0.5;" width="83.2997" x="51.6179" y="946.0799"/><text fill="#000000" font-family="sans-serif" font-size="14" lengthAdjust="spacing" textLength="69.2997" x="58.6179" y="968.0458">MainPanel</text></g><g class="participant participant-head" data-entity-uid="part3" data-qualified-name="LibraryView" id="part3-head"><rect fill="#E2E2F0" height="33.0679" rx="2.5" ry="2.5" style="stroke:#181818;stroke-width:0.5;" width="91.0277" x="162.2232" y="90.0679"/><text fill="#000000" font-family="sans-serif" font-size="14" lengthAdjust="spacing" textLength="77.0277" x="169.2232" y="112.0339">LibraryView</text></g><g class="participant participant-tail" data-entity-uid="part3" data-qualified-name="LibraryView" id="part3-tail"><rect fill="#E2E2F0" height="33.0679" rx="2.5" ry="2.5" style="stroke:#181818;stroke-width:0.5;" width="91.0277" x="162.2232" y="946.0799"/><text fill="#000000" font-family="sans-serif" font-size="14" lengthAdjust="spacing" textLength="77.0277" x="169.2232" y="968.0458">LibraryView</text></g><g class="participant participant-head" data-entity-uid="part4" data-qualified-name="LibraryController" id="part4-head"><rect fill="#E2E2F0" height="33.0679" rx="2.5" ry="2.5" style="stroke:#181818;stroke-width:0.5;" width="126.2936" x="328.6544" y="90.0679"/><text fill="#000000" font-family="sans-serif" font-size="14" lengthAdjust="spacing" textLength="112.2936" x="335.6544" y="112.0339">LibraryController</text></g><g class="participant participant-tail" data-entity-uid="part4" data-qualified-name="LibraryController" id="part4-tail"><rect fill="#E2E2F0" height="33.0679" rx="2.5" ry="2.5" style="stroke:#181818;stroke-width:0.5;" width="126.2936" x="328.6544" y="946.0799"/><text fill="#000000" font-family="sans-serif" font-size="14" lengthAdjust="spacing" textLength="112.2936" x="335.6544" y="968.0458">LibraryController</text></g><g class="participant participant-tail" data-entity-uid="part5" data-qualified-name="MusicView" id="part5-tail"><rect fill="#E2E2F0" height="33.0679" rx="2.5" ry="2.5" style="stroke:#181818;stroke-width:0.5;" width="83.2997" x="464.948" y="946.0799"/><text fill="#000000" font-family="sans-serif" font-size="14" lengthAdjust="spacing" textLength="69.2997" x="471.948" y="968.0458">MusicView</text></g><g class="participant participant-tail" data-entity-uid="part6" data-qualified-name="MusicController" id="part6-tail"><rect fill="#E2E2F0" height="33.0679" rx="2.5" ry="2.5" style="stroke:#181818;stroke-width:0.5;" width="118.5656" x="603.6322" y="946.0799"/><text fill="#000000" font-family="sans-serif" font-size="14" lengthAdjust="spacing" textLength="104.5656" x="610.6322" y="968.0458">MusicController</text></g><g class="participant participant-head" data-entity-uid="part7" data-qualified-name="PlaylistService" id="part7-head"><rect fill="#E2E2F0" height="33.0679" rx="2.5" ry="2.5" style="stroke:#181818;stroke-width:0.5;" width="106.7636" x="791.9073" y="90.0679"/><text fill="#000000" font-family="sans-serif" font-size="14" lengthAdjust="spacing" textLength="92.7636" x="798.9073" y="112.0339">PlaylistService</text></g><g class="participant participant-tail" data-entity-uid="part7" data-qualified-name="PlaylistService" id="part7-tail"><rect fill="#E2E2F0" height="33.0679" rx="2.5" ry="2.5" style="stroke:#181818;stroke-width:0.5;" width="106.7636" x="791.9073" y="946.0799"/><text fill="#000000" font-family="sans-serif" font-size="14" lengthAdjust="spacing" textLength="92.7636" x="798.9073" y="968.0458">PlaylistService</text></g><g class="participant participant-head" data-entity-uid="part8" data-qualified-name="PlaylistApiClient" id="part8-head"><rect fill="#E2E2F0" height="33.0679" rx="2.5" ry="2.5" style="stroke:#181818;stroke-width:0.5;" width="118.9016" x="968.2125" y="90.0679"/><text fill="#000000" font-family="sans-serif" font-size="14" lengthAdjust="spacing" textLength="104.9016" x="975.2125" y="112.0339">PlaylistApiClient</text></g><g class="participant participant-tail" data-entity-uid="part8" data-qualified-name="PlaylistApiClient" id="part8-tail"><rect fill="#E2E2F0" height="33.0679" rx="2.5" ry="2.5" style="stroke:#181818;stroke-width:0.5;" width="118.9016" x="968.2125" y="946.0799"/><text fill="#000000" font-family="sans-serif" font-size="14" lengthAdjust="spacing" textLength="104.9016" x="975.2125" y="968.0458">PlaylistApiClient</text></g><g class="participant participant-head" data-entity-uid="part9" data-qualified-name="ApiService" id="part9-head"><rect fill="#E2E2F0" height="33.0679" rx="2.5" ry="2.5" style="stroke:#181818;stroke-width:0.5;" width="81.8717" x="1229.3826" y="90.0679"/><text fill="#000000" font-family="sans-serif" font-size="14" lengthAdjust="spacing" textLength="67.8717" x="1236.3826" y="112.0339">ApiService</text></g><g class="participant participant-tail" data-entity-uid="part9" data-qualified-name="ApiService" id="part9-tail"><rect fill="#E2E2F0" height="33.0679" rx="2.5" ry="2.5" style="stroke:#181818;stroke-width:0.5;" width="81.8717" x="1229.3826" y="946.0799"/><text fill="#000000" font-family="sans-serif" font-size="14" lengthAdjust="spacing" textLength="67.8717" x="1236.3826" y="968.0458">ApiService</text></g><g class="participant participant-head" data-entity-uid="part10" data-qualified-name="PlaylistBackendController" id="part10-head"><rect fill="#E2E2F0" height="33.0679" rx="2.5" ry="2.5" style="stroke:#181818;stroke-width:0.5;" width="182.5453" x="1421.701" y="90.0679"/><text fill="#000000" font-family="sans-serif" font-size="14" lengthAdjust="spacing" textLength="168.5453" x="1428.701" y="112.0339">PlaylistBackendController</text></g><g class="participant participant-tail" data-entity-uid="part10" data-qualified-name="PlaylistBackendController" id="part10-tail"><rect fill="#E2E2F0" height="33.0679" rx="2.5" ry="2.5" style="stroke:#181818;stroke-width:0.5;" width="182.5453" x="1421.701" y="946.0799"/><text fill="#000000" font-family="sans-serif" font-size="14" lengthAdjust="spacing" textLength="168.5453" x="1428.701" y="968.0458">PlaylistBackendController</text></g><g class="participant participant-head" data-entity-uid="part11" data-qualified-name="PlaylistBackendService" id="part11-head"><rect fill="#E2E2F0" height="33.0679" rx="2.5" ry="2.5" style="stroke:#181818;stroke-width:0.5;" width="163.0714" x="1614.2463" y="90.0679"/><text fill="#000000" font-family="sans-serif" font-size="14" lengthAdjust="spacing" textLength="149.0714" x="1621.2463" y="112.0339">PlaylistBackendService</text></g><g class="participant participant-tail" data-entity-uid="part11" data-qualified-name="PlaylistBackendService" id="part11-tail"><rect fill="#E2E2F0" height="33.0679" rx="2.5" ry="2.5" style="stroke:#181818;stroke-width:0.5;" width="163.0714" x="1614.2463" y="946.0799"/><text fill="#000000" font-family="sans-serif" font-size="14" lengthAdjust="spacing" textLength="149.0714" x="1621.2463" y="968.0458">PlaylistBackendService</text></g><g class="participant participant-head" data-entity-uid="part12" data-qualified-name="PlaylistBackendRepository" id="part12-head"><rect fill="#E2E2F0" height="33.0679" rx="2.5" ry="2.5" style="stroke:#181818;stroke-width:0.5;" width="186.8153" x="1787.3177" y="90.0679"/><text fill="#000000" font-family="sans-serif" font-size="14" lengthAdjust="spacing" textLength="172.8153" x="1794.3177" y="112.0339">PlaylistBackendRepository</text></g><g class="participant participant-tail" data-entity-uid="part12" data-qualified-name="PlaylistBackendRepository" id="part12-tail"><rect fill="#E2E2F0" height="33.0679" rx="2.5" ry="2.5" style="stroke:#181818;stroke-width:0.5;" width="186.8153" x="1787.3177" y="946.0799"/><text fill="#000000" font-family="sans-serif" font-size="14" lengthAdjust="spacing" textLength="172.8153" x="1794.3177" y="968.0458">PlaylistBackendRepository</text></g><g class="participant participant-head" data-entity-uid="part13" data-qualified-name="DB" id="part13-head"><text fill="#000000" font-family="sans-serif" font-size="14" lengthAdjust="spacing" textLength="19.3199" x="2012.8306" y="120.0339">DB</text><path d="M2007.4905,69.0679 C2007.4905,59.0679 2025.4905,59.0679 2025.4905,59.0679 C2025.4905,59.0679 2043.4905,59.0679 2043.4905,69.0679 L2043.4905,95.0679 C2043.4905,105.0679 2025.4905,105.0679 2025.4905,105.0679 C2025.4905,105.0679 2007.4905,105.0679 2007.4905,95.0679 L2007.4905,69.0679" fill="#E2E2F0" style="stroke:#181818;stroke-width:0.5;"/><path d="M2007.4905,69.0679 C2007.4905,79.0679 2025.4905,79.0679 2025.4905,79.0679 C2025.4905,79.0679 2043.4905,79.0679 2043.4905,69.0679" fill="none" style="stroke:#181818;stroke-width:0.5;"/></g><g class="participant participant-tail" data-entity-uid="part13" data-qualified-name="DB" id="part13-tail"><text fill="#000000" font-family="sans-serif" font-size="14" lengthAdjust="spacing" textLength="19.3199" x="2012.8306" y="961.0458">DB</text><path d="M2007.4905,975.1478 C2007.4905,965.1478 2025.4905,965.1478 2025.4905,965.1478 C2025.4905,965.1478 2043.4905,965.1478 2043.4905,975.1478 L2043.4905,1001.1478 C2043.4905,1011.1478 2025.4905,1011.1478 2025.4905,1011.1478 C2025.4905,1011.1478 2007.4905,1011.1478 2007.4905,1001.1478 L2007.4905,975.1478" fill="#E2E2F0" style="stroke:#181818;stroke-width:0.5;"/><path d="M2007.4905,975.1478 C2007.4905,985.1478 2025.4905,985.1478 2025.4905,985.1478 C2025.4905,985.1478 2043.4905,985.1478 2043.4905,975.1478" fill="none" style="stroke:#181818;stroke-width:0.5;"/></g><g class="participant participant-head" data-entity-uid="part14" data-qualified-name="EventBus" id="part14-head"><rect fill="#E2E2F0" height="33.0679" rx="2.5" ry="2.5" style="stroke:#181818;stroke-width:0.5;" width="74.9557" x="2053.4905" y="90.0679"/><text fill="#000000" font-family="sans-serif" font-size="14" lengthAdjust="spacing" textLength="60.9557" x="2060.4905" y="112.0339">EventBus</text></g><g class="participant participant-tail" data-entity-uid="part14" data-qualified-name="EventBus" id="part14-tail"><rect fill="#E2E2F0" height="33.0679" rx="2.5" ry="2.5" style="stroke:#181818;stroke-width:0.5;" width="74.9557" x="2053.4905" y="946.0799"/><text fill="#000000" font-family="sans-serif" font-size="14" lengthAdjust="spacing" textLength="60.9557" x="2060.4905" y="968.0458">EventBus</text></g><g><title>MainPanel</title><rect fill="#FFFFFF" height="31.706" style="stroke:#181818;stroke-width:1;" width="10" x="88.2678" y="282.9599"/></g><g><title>LibraryView</title><rect fill="#FFFFFF" height="55.412" style="stroke:#181818;stroke-width:1;" width="10" x="202.7371" y="134.1358"/></g><g><title>LibraryController</title><rect fill="#FFFFFF" height="61.706" style="stroke:#181818;stroke-width:1;" width="10" x="386.8012" y="189.5479"/></g><g><title>MusicView</title><rect fill="#FFFFFF" height="125.4618" style="stroke:#181818;stroke-width:1;" width="10" x="501.5979" y="812.6181"/></g><g><title>MusicController</title><rect fill="#FFFFFF" height="613.414" style="stroke:#181818;stroke-width:1;" width="10" x="657.915" y="324.6659"/></g><g><title>PlaylistService</title><rect fill="#FFFFFF" height="412.1782" style="stroke:#181818;stroke-width:1;" width="10" x="840.2891" y="358.7338"/></g><g><title>PlaylistApiClient</title><rect fill="#FFFFFF" height="348.7662" style="stroke:#181818;stroke-width:1;" width="10" x="1022.6633" y="390.4398"/></g><g><title>ApiService</title><rect fill="#FFFFFF" height="285.3541" style="stroke:#181818;stroke-width:1;" width="10" x="1265.3185" y="422.1459"/></g><g><title>PlaylistBackendController</title><rect fill="#FFFFFF" height="221.9421" style="stroke:#181818;stroke-width:1;" width="10" x="1507.9737" y="453.8519"/></g><g><title>PlaylistBackendService</title><rect fill="#FFFFFF" height="158.5301" style="stroke:#181818;stroke-width:1;" width="10" x="1690.782" y="485.5579"/></g><g><title>PlaylistBackendRepository</title><rect fill="#FFFFFF" height="95.118" style="stroke:#181818;stroke-width:1;" width="10" x="1875.7254" y="517.2639"/></g><g><title>EventBus</title><rect fill="#FFFFFF" height="61.706" style="stroke:#181818;stroke-width:1;" width="10" x="2085.9684" y="221.2539"/></g><g class="message" data-entity-1="part1" data-entity-2="part3" id="msg1"><polygon fill="#181818" points="190.7371,153.8419,200.7371,157.8419,190.7371,161.8419,194.7371,157.8419" style="stroke:#181818;stroke-width:1;"/><line style="stroke:#181818;stroke-width:1;" x1="23.3089" x2="196.7371" y1="157.8419" y2="157.8419"/><text fill="#000000" font-family="sans-serif" font-size="13" lengthAdjust="spacing" textLength="155.4281" x="30.3089" y="152.0328">clicks on playlist in library</text></g><g class="message" data-entity-1="part3" data-entity-2="part4" id="msg2"><polygon fill="#181818" points="374.8012,185.5479,384.8012,189.5479,374.8012,193.5479,378.8012,189.5479" style="stroke:#181818;stroke-width:1;"/><line style="stroke:#181818;stroke-width:1;" x1="207.7371" x2="380.8012" y1="189.5479" y2="189.5479"/><text fill="#000000" font-family="sans-serif" font-size="13" lengthAdjust="spacing" textLength="155.0641" x="214.7371" y="183.7389">showPlaylist(libraryAsset)</text></g><g class="message" data-entity-1="part4" data-entity-2="part14" id="msg3"><polygon fill="#181818" points="2073.9684,217.2539,2083.9684,221.2539,2073.9684,225.2539,2077.9684,221.2539" style="stroke:#181818;stroke-width:1;"/><line style="stroke:#181818;stroke-width:1;" x1="396.8012" x2="2079.9684" y1="221.2539" y2="221.2539"/><text fill="#000000" font-family="sans-serif" font-size="13" lengthAdjust="spacing" textLength="288.4963" x="403.8012" y="215.4449">publish switchToMusicView(MusicView, playlist)</text></g><g class="message" data-entity-1="part14" data-entity-2="part2" id="msg4"><polygon fill="#181818" points="109.2678,278.9599,99.2678,282.9599,109.2678,286.9599,105.2678,282.9599" style="stroke:#181818;stroke-width:1;"/><line style="stroke:#181818;stroke-width:1;" x1="103.2678" x2="2089.9684" y1="282.9599" y2="282.9599"/><text fill="#000000" font-family="sans-serif" font-size="13" lengthAdjust="spacing" textLength="240.1232" x="115.2678" y="277.1509">switchToMusicView(MusicView, playlist)</text></g><g class="message" data-entity-1="part2" data-entity-2="part6" id="msg5"><line style="stroke:#181818;stroke-width:1;" x1="601.6322" x2="591.6322" y1="314.6659" y2="310.6659"/><line style="stroke:#181818;stroke-width:1;" x1="601.6322" x2="591.6322" y1="314.6659" y2="318.6659"/><line style="stroke:#181818;stroke-width:1;stroke-dasharray:2,2;" x1="93.2678" x2="602.6322" y1="314.6659" y2="314.6659"/><text fill="#000000" font-family="sans-serif" font-size="13" lengthAdjust="spacing" textLength="76.2841" x="100.2678" y="308.8569">new(playlist)</text></g><rect fill="#E2E2F0" height="33.0679" rx="2.5" ry="2.5" style="stroke:#181818;stroke-width:0.5;" width="118.5656" x="603.6322" y="290.9599"/><text fill="#000000" font-family="sans-serif" font-size="14" lengthAdjust="spacing" textLength="104.5656" x="610.6322" y="312.9258">MusicController</text><g class="message" data-entity-1="part6" data-entity-2="part7" id="msg7"><polygon fill="#181818" points="828.2891,354.7338,838.2891,358.7338,828.2891,362.7338,832.2891,358.7338" style="stroke:#181818;stroke-width:1;"/><line style="stroke:#181818;stroke-width:1;" x1="667.915" x2="834.2891" y1="358.7338" y2="358.7338"/><text fill="#000000" font-family="sans-serif" font-size="13" lengthAdjust="spacing" textLength="153.3741" x="674.915" y="352.9248">getPlaylistById(playlistId)</text></g><g class="message" data-entity-1="part7" data-entity-2="part8" id="msg8"><polygon fill="#181818" points="1010.6633,386.4398,1020.6633,390.4398,1010.6633,394.4398,1014.6633,390.4398" style="stroke:#181818;stroke-width:1;"/><line style="stroke:#181818;stroke-width:1;" x1="850.2891" x2="1016.6633" y1="390.4398" y2="390.4398"/><text fill="#000000" font-family="sans-serif" font-size="13" lengthAdjust="spacing" textLength="153.3741" x="857.2891" y="384.6308">getPlaylistById(playlistId)</text></g><g class="message" data-entity-1="part8" data-entity-2="part9" id="msg9"><polygon fill="#181818" points="1253.3185,418.1459,1263.3185,422.1459,1253.3185,426.1459,1257.3185,422.1459" style="stroke:#181818;stroke-width:1;"/><line style="stroke:#181818;stroke-width:1;" x1="1032.6633" x2="1259.3185" y1="422.1459" y2="422.1459"/><text fill="#000000" font-family="sans-serif" font-size="13" lengthAdjust="spacing" textLength="213.6552" x="1039.6633" y="416.3369">post("/playlists/getById", playlistId)</text></g><g class="message" data-entity-1="part9" data-entity-2="part10" id="msg10"><polygon fill="#181818" points="1495.9737,449.8519,1505.9737,453.8519,1495.9737,457.8519,1499.9737,453.8519" style="stroke:#181818;stroke-width:1;"/><line style="stroke:#181818;stroke-width:1;" x1="1275.3185" x2="1501.9737" y1="453.8519" y2="453.8519"/><text fill="#000000" font-family="sans-serif" font-size="13" lengthAdjust="spacing" textLength="213.6552" x="1282.3185" y="448.0429">post("/playlists/getById", playlistId)</text></g><g class="message" data-entity-1="part10" data-entity-2="part11" id="msg11"><polygon fill="#181818" points="1678.782,481.5579,1688.782,485.5579,1678.782,489.5579,1682.782,485.5579" style="stroke:#181818;stroke-width:1;"/><line style="stroke:#181818;stroke-width:1;" x1="1517.9737" x2="1684.782" y1="485.5579" y2="485.5579"/><text fill="#000000" font-family="sans-serif" font-size="13" lengthAdjust="spacing" textLength="153.3741" x="1524.9737" y="479.7489">getPlaylistById(playlistId)</text></g><g class="message" data-entity-1="part11" data-entity-2="part12" id="msg12"><polygon fill="#181818" points="1863.7254,513.2639,1873.7254,517.2639,1863.7254,521.2639,1867.7254,517.2639" style="stroke:#181818;stroke-width:1;"/><line style="stroke:#181818;stroke-width:1;" x1="1700.782" x2="1869.7254" y1="517.2639" y2="517.2639"/><text fill="#000000" font-family="sans-serif" font-size="13" lengthAdjust="spacing" textLength="114.4391" x="1707.782" y="511.4549">findById(playlistId)</text></g><g class="message" data-entity-1="part12" data-entity-2="part13" id="msg13"><polygon fill="#181818" points="2013.4905,544.9699,2023.4905,548.9699,2013.4905,552.9699,2017.4905,548.9699" style="stroke:#181818;stroke-width:1;"/><line style="stroke:#181818;stroke-width:1;" x1="1885.7254" x2="2019.4905" y1="548.9699" y2="548.9699"/><text fill="#000000" font-family="sans-serif" font-size="13" lengthAdjust="spacing" textLength="114.3741" x="1892.7254" y="543.1609">query playlist by id</text></g><g class="message" data-entity-1="part13" data-entity-2="part12" id="msg14"><polygon fill="#181818" points="1896.7254,576.6759,1886.7254,580.6759,1896.7254,584.6759,1892.7254,580.6759" style="stroke:#181818;stroke-width:1;"/><line style="stroke:#181818;stroke-width:1;stroke-dasharray:2,2;" x1="1890.7254" x2="2024.4905" y1="580.6759" y2="580.6759"/><text fill="#000000" font-family="sans-serif" font-size="13" lengthAdjust="spacing" textLength="115.7651" x="1902.7254" y="574.8669">return playlist data</text></g><g class="message" data-entity-1="part12" data-entity-2="part11" id="msg15"><polygon fill="#181818" points="1711.782,608.382,1701.782,612.382,1711.782,616.382,1707.782,612.382" style="stroke:#181818;stroke-width:1;"/><line style="stroke:#181818;stroke-width:1;stroke-dasharray:2,2;" x1="1705.782" x2="1879.7254" y1="612.382" y2="612.382"/><text fill="#000000" font-family="sans-serif" font-size="13" lengthAdjust="spacing" textLength="115.7651" x="1717.782" y="606.573">return playlist data</text></g><g class="message" data-entity-1="part11" data-entity-2="part10" id="msg16"><polygon fill="#181818" points="1528.9737,640.088,1518.9737,644.088,1528.9737,648.088,1524.9737,644.088" style="stroke:#181818;stroke-width:1;"/><line style="stroke:#181818;stroke-width:1;stroke-dasharray:2,2;" x1="1522.9737" x2="1694.782" y1="644.088" y2="644.088"/><text fill="#000000" font-family="sans-serif" font-size="13" lengthAdjust="spacing" textLength="115.7651" x="1534.9737" y="638.279">return playlist data</text></g><g class="message" data-entity-1="part10" data-entity-2="part9" id="msg17"><polygon fill="#181818" points="1286.3185,671.794,1276.3185,675.794,1286.3185,679.794,1282.3185,675.794" style="stroke:#181818;stroke-width:1;"/><line style="stroke:#181818;stroke-width:1;stroke-dasharray:2,2;" x1="1280.3185" x2="1511.9737" y1="675.794" y2="675.794"/><text fill="#000000" font-family="sans-serif" font-size="13" lengthAdjust="spacing" textLength="115.7651" x="1292.3185" y="669.985">return playlist data</text></g><g class="message" data-entity-1="part9" data-entity-2="part8" id="msg18"><polygon fill="#181818" points="1043.6633,703.5,1033.6633,707.5,1043.6633,711.5,1039.6633,707.5" style="stroke:#181818;stroke-width:1;"/><line style="stroke:#181818;stroke-width:1;stroke-dasharray:2,2;" x1="1037.6633" x2="1269.3185" y1="707.5" y2="707.5"/><text fill="#000000" font-family="sans-serif" font-size="13" lengthAdjust="spacing" textLength="115.7651" x="1049.6633" y="701.691">return playlist data</text></g><g class="message" data-entity-1="part8" data-entity-2="part7" id="msg19"><polygon fill="#181818" points="861.2891,735.206,851.2891,739.206,861.2891,743.206,857.2891,739.206" style="stroke:#181818;stroke-width:1;"/><line style="stroke:#181818;stroke-width:1;stroke-dasharray:2,2;" x1="855.2891" x2="1026.6633" y1="739.206" y2="739.206"/><text fill="#000000" font-family="sans-serif" font-size="13" lengthAdjust="spacing" textLength="115.7651" x="867.2891" y="733.397">return playlist data</text></g><g class="message" data-entity-1="part7" data-entity-2="part6" id="msg20"><polygon fill="#181818" points="678.915,766.912,668.915,770.912,678.915,774.912,674.915,770.912" style="stroke:#181818;stroke-width:1;"/><line style="stroke:#181818;stroke-width:1;stroke-dasharray:2,2;" x1="672.915" x2="844.2891" y1="770.912" y2="770.912"/><text fill="#000000" font-family="sans-serif" font-size="13" lengthAdjust="spacing" textLength="115.7651" x="684.915" y="765.103">return playlist data</text></g><g class="message" data-entity-1="part6" data-entity-2="part5" id="msg21"><line style="stroke:#181818;stroke-width:1;" x1="549.2477" x2="559.2477" y1="802.6181" y2="798.6181"/><line style="stroke:#181818;stroke-width:1;" x1="549.2477" x2="559.2477" y1="802.6181" y2="806.6181"/><line style="stroke:#181818;stroke-width:1;stroke-dasharray:2,2;" x1="548.2477" x2="656.915" y1="802.6181" y2="802.6181"/><text fill="#000000" font-family="sans-serif" font-size="13" lengthAdjust="spacing" textLength="33.384" x="565.2477" y="796.8091">new()</text></g><rect fill="#E2E2F0" height="33.0679" rx="2.5" ry="2.5" style="stroke:#181818;stroke-width:0.5;" width="83.2997" x="464.948" y="778.912"/><text fill="#000000" font-family="sans-serif" font-size="14" lengthAdjust="spacing" textLength="69.2997" x="471.948" y="800.878">MusicView</text><path d="M454.948,829.98 L516.5068,829.98 L516.5068,839.686 L506.5068,849.686 L454.948,849.686 L454.948,829.98" fill="#EEEEEE" style="stroke:#000000;stroke-width:1.5;"/><rect fill="none" height="100.0999" style="stroke:#000000;stroke-width:1.5;" width="277.2498" x="454.948" y="829.98"/><text fill="#000000" font-family="sans-serif" font-size="13" font-weight="bold" lengthAdjust="spacing" textLength="16.5588" x="469.948" y="844.877">alt</text><text fill="#000000" font-family="sans-serif" font-size="11" font-weight="bold" lengthAdjust="spacing" textLength="104.4388" x="531.5068" y="843.7389">[playlist has songs]</text><g class="message" data-entity-1="part6" data-entity-2="part5" id="msg23"><polygon fill="#181818" points="522.5979,869.392,512.5979,873.392,522.5979,877.392,518.5979,873.392" style="stroke:#181818;stroke-width:1;"/><line style="stroke:#181818;stroke-width:1;" x1="516.5979" x2="656.915" y1="873.392" y2="873.392"/><text fill="#000000" font-family="sans-serif" font-size="13" lengthAdjust="spacing" textLength="122.3171" x="528.5979" y="867.583">display(playlistData)</text></g><line style="stroke:#000000;stroke-width:1;stroke-dasharray:2,2;" x1="454.948" x2="732.1978" y1="882.392" y2="882.392"/><text fill="#000000" font-family="sans-serif" font-size="11" font-weight="bold" lengthAdjust="spacing" textLength="96.0431" x="459.948" y="894.1509">[playlist is empty]</text><g class="message" data-entity-1="part6" data-entity-2="part5" id="msg24"><polygon fill="#181818" points="522.5979,918.0799,512.5979,922.0799,522.5979,926.0799,518.5979,922.0799" style="stroke:#181818;stroke-width:1;"/><line style="stroke:#181818;stroke-width:1;" x1="516.5979" x2="656.915" y1="922.0799" y2="922.0799"/><text fill="#000000" font-family="sans-serif" font-size="13" lengthAdjust="spacing" textLength="50.6481" x="528.5979" y="916.2709">display()</text></g><?plantuml-src dPN1RXiX48RlF0NAAPPgvPw3fJZk8L8hHKtREsOdCGg13R2szkqxw-x267RjTNoo1_D_mp3p4rJGm5z0WmpyMOjMAn_ugxCV_8VQEk5QneGCrl4_7XohXGjAgbgOm7yAPPw50NqIxNVzLN0OYpzQ4vpLEjTgl9B5dcDqOiUGwmkulP8mklPGgqUjm8IJLOoUsxGMyXrCTG7R_sk6q2-ehLTOGQna9OBO2WzyisOdUxxlCSjruu_5LdiHuAIGNUtvSaLZ_9vBhUIxvzRmUhWuPRZkhut-DsrDnq81lxE78TlRVj-3zn0Mh8BHHF8WgL89GEfmBeJLpHOvE-uFAiZTRnkl_3P--nOFiaYaM9eo9KAF88J6nkoEE8z6j2ClHbAZImV7GDQN2RXShbRvCcPXa3iAIz8fb8jdQdZ0hFSHy0OXjbtxL4NOKqKgcOzCBaEKu-HSgvr6hfH2_JHxNKTORBkRkq7Fto6f8zoacpbXaC4bEYJhOdI_09csWMbAcS8NRoPpbGdH4fSy1eclobIpKSITfZKHk5cZycS3-2kQpRRbgcAuihoGaOFGEE9IdGsUmvshvwWMcQZPvulLlD10Lm8dxevsIpu7Ln98Iz8nc9ZUI-9ag4OcTjHivkPRUW5DjdJ9kRf3ljIDZwzJOPNHZViNi_FXHMQr_zyr7H9t9pptrhnvnl4puhzKibA-snY7ROD9BnXeVEJJg-mvVDIXlKOFDKp5s3y0?></g></svg>