<?plantuml 1.2026.2?><svg xmlns="http://www.w3.org/2000/svg" xmlns:xlink="http://www.w3.org/1999/xlink" contentStyleType="text/css" data-diagram-type="SEQUENCE" height="1497px" preserveAspectRatio="none" style="width:2954px;height:1497px;background:#FFFFFF;" version="1.1" viewBox="0 0 2954 1497" width="2954px" zoomAndPan="magnify"><title>Add Song To Playlist</title><defs/><g><text fill="#000000" font-family="sans-serif" font-size="14" font-weight="bold" lengthAdjust="spacing" textLength="140.255" x="1408.315" y="29.9659">Add Song To Playlist</text><g><title>SongView</title><rect fill="#FFFFFF" height="1271.1045" style="stroke:#181818;stroke-width:1;" width="10" x="223.7971" y="134.1358"/></g><g><title>SongController</title><rect fill="#FFFFFF" height="897.0443" style="stroke:#181818;stroke-width:1;" width="10" x="561.2433" y="508.196"/></g><g><title>PlaylistService</title><rect fill="#FFFFFF" height="865.3383" style="stroke:#181818;stroke-width:1;" width="10" x="856.0105" y="539.902"/></g><g><title>PlaylistApi</title><rect fill="#FFFFFF" height="833.6323" style="stroke:#181818;stroke-width:1;" width="10" x="1109.6768" y="571.608"/></g><g><title>ApiClient</title><rect fill="#FFFFFF" height="801.9263" style="stroke:#181818;stroke-width:1;" width="10" x="1710.3781" y="603.314"/></g><g><title>PlaylistBackendController</title><rect fill="#FFFFFF" height="770.2203" style="stroke:#181818;stroke-width:1;" width="10" x="2016.1433" y="635.0201"/></g><g><title>PlaylistBackendService</title><rect fill="#FFFFFF" height="738.5143" style="stroke:#181818;stroke-width:1;" width="10" x="2269.8095" y="666.7261"/></g><g><title>PlaylistBackendRepository</title><rect fill="#FFFFFF" height="95.118" style="stroke:#181818;stroke-width:1;" width="10" x="2573.1748" y="743.1381"/></g><g><title>PlaylistBackendRepository</title><rect fill="#FFFFFF" height="95.118" style="stroke:#181818;stroke-width:1;" width="10" x="2573.1748" y="1103.8862"/></g><rect fill="none" height="543.9842" style="stroke:#000000;stroke-width:1.5;" width="2768.2528" x="179.6322" y="853.2562"/><g class="participant-lifeline" data-entity-uid="part1" data-qualified-name="User" id="part1-lifeline"><g><title>User</title><rect fill="#000000" fill-opacity="0.00000" height="1290.1045" width="8" x="19.3089" y="124.1358"/><line style="stroke:#181818;stroke-width:0.5;stroke-dasharray:5,5;" x1="23" x2="23" y1="124.1358" y2="1414.2403"/></g></g><g class="participant-lifeline" data-entity-uid="part2" data-qualified-name="SongView" id="part2-lifeline"><g><title>SongView</title><rect fill="#000000" fill-opacity="0.00000" height="1290.1045" width="8" x="224.7971" y="124.1358"/><line style="stroke:#181818;stroke-width:0.5;stroke-dasharray:5,5;" x1="228.6322" x2="228.6322" y1="124.1358" y2="1414.2403"/></g></g><g class="participant-lifeline" data-entity-uid="part3" data-qualified-name="SongController" id="part3-lifeline"><g><title>SongController</title><rect fill="#000000" fill-opacity="0.00000" height="1290.1045" width="8" x="562.2433" y="124.1358"/><line style="stroke:#181818;stroke-width:0.5;stroke-dasharray:5,5;" x1="565.4455" x2="565.4455" y1="124.1358" y2="1414.2403"/></g></g><g class="participant-lifeline" data-entity-uid="part4" data-qualified-name="PlaylistService" id="part4-lifeline"><g><title>PlaylistService</title><rect fill="#000000" fill-opacity="0.00000" height="1290.1045" width="8" x="857.0105" y="124.1358"/><line style="stroke:#181818;stroke-width:0.5;stroke-dasharray:5,5;" x1="860.6287" x2="860.6287" y1="124.1358" y2="1414.2403"/></g></g><g class="participant-lifeline" data-entity-uid="part5" data-qualified-name="PlaylistApi" id="part5-lifeline"><g><title>PlaylistApi</title><rect fill="#000000" fill-opacity="0.00000" height="1290.1045" width="8" x="1110.6768" y="124.1358"/><line style="stroke:#181818;stroke-width:0.5;stroke-dasharray:5,5;" x1="1114.0629" x2="1114.0629" y1="124.1358" y2="1414.2403"/></g></g><g class="participant-lifeline" data-entity-uid="part6" data-qualified-name="ApiClient" id="part6-lifeline"><g><title>ApiClient</title><rect fill="#000000" fill-opacity="0.00000" height="1290.1045" width="8" x="1711.3781" y="124.1358"/><line style="stroke:#181818;stroke-width:0.5;stroke-dasharray:5,5;" x1="1714.9572" x2="1714.9572" y1="124.1358" y2="1414.2403"/></g></g><g class="participant-lifeline" data-entity-uid="part7" data-qualified-name="PlaylistBackendController" id="part7-lifeline"><g><title>PlaylistBackendController</title><rect fill="#000000" fill-opacity="0.00000" height="1290.1045" width="8" x="2017.1433" y="124.1358"/><line style="stroke:#181818;stroke-width:0.5;stroke-dasharray:5,5;" x1="2020.8706" x2="2020.8706" y1="124.1358" y2="1414.2403"/></g></g><g class="participant-lifeline" data-entity-uid="part8" data-qualified-name="PlaylistBackendService" id="part8-lifeline"><g><title>PlaylistBackendService</title><rect fill="#000000" fill-opacity="0.00000" height="1290.1045" width="8" x="2270.8095" y="124.1358"/><line style="stroke:#181818;stroke-width:0.5;stroke-dasharray:5,5;" x1="2274.2738" x2="2274.2738" y1="124.1358" y2="1414.2403"/></g></g><g class="participant-lifeline" data-entity-uid="part9" data-qualified-name="PlaylistBackendRepository" id="part9-lifeline"><g><title>PlaylistBackendRepository</title><rect fill="#000000" fill-opacity="0.00000" height="1290.1045" width="8" x="2574.1748" y="124.1358"/><line style="stroke:#181818;stroke-width:0.5;stroke-dasharray:5,5;" x1="2577.7671" x2="2577.7671" y1="124.1358" y2="1414.2403"/></g></g><g class="participant-lifeline" data-entity-uid="part10" data-qualified-name="Database" id="part10-lifeline"><g><title>Database</title><rect fill="#000000" fill-opacity="0.00000" height="1290.1045" width="8" x="2899.8611" y="124.1358"/><line style="stroke:#181818;stroke-width:0.5;stroke-dasharray:5,5;" x1="2903.8372" x2="2903.8372" y1="124.1358" y2="1414.2403"/></g></g><g class="participant participant-head" data-entity-uid="part1" data-qualified-name="User" id="part1-head"><text fill="#000000" font-family="sans-serif" font-size="14" lengthAdjust="spacing" textLength="30.6179" x="5" y="120.0339">User</text><ellipse cx="23.3089" cy="53.5679" fill="#E2E2F0" rx="8" ry="8" style="stroke:#181818;stroke-width:0.5;"/><path d="M23.3089,61.5679 L23.3089,88.5679 M10.3089,69.5679 L36.3089,69.5679 M23.3089,88.5679 L10.3089,103.5679 M23.3089,88.5679 L36.3089,103.5679" fill="none" style="stroke:#181818;stroke-width:0.5;"/></g><g class="participant participant-tail" data-entity-uid="part1" data-qualified-name="User" id="part1-tail"><text fill="#000000" font-family="sans-serif" font-size="14" lengthAdjust="spacing" textLength="30.6179" x="5" y="1428.2063">User</text><ellipse cx="23.3089" cy="1440.8083" fill="#E2E2F0" rx="8" ry="8" style="stroke:#181818;stroke-width:0.5;"/><path d="M23.3089,1448.8083 L23.3089,1475.8083 M10.3089,1456.8083 L36.3089,1456.8083 M23.3089,1475.8083 L10.3089,1490.8083 M23.3089,1475.8083 L36.3089,1490.8083" fill="none" style="stroke:#181818;stroke-width:0.5;"/></g><g class="participant participant-head" data-entity-uid="part2" data-qualified-name="SongView" id="part2-head"><rect fill="#E2E2F0" height="33.0679" rx="2.5" ry="2.5" style="stroke:#181818;stroke-width:0.5;" width="78.3297" x="189.6322" y="90.0679"/><text fill="#000000" font-family="sans-serif" font-size="14" lengthAdjust="spacing" textLength="64.3297" x="196.6322" y="112.0339">SongView</text></g><g class="participant participant-tail" data-entity-uid="part2" data-qualified-name="SongView" id="part2-tail"><rect fill="#E2E2F0" height="33.0679" rx="2.5" ry="2.5" style="stroke:#181818;stroke-width:0.5;" width="78.3297" x="189.6322" y="1413.2403"/><text fill="#000000" font-family="sans-serif" font-size="14" lengthAdjust="spacing" textLength="64.3297" x="196.6322" y="1435.2063">SongView</text></g><g class="participant participant-head" data-entity-uid="part3" data-qualified-name="SongController" id="part3-head"><rect fill="#E2E2F0" height="33.0679" rx="2.5" ry="2.5" style="stroke:#181818;stroke-width:0.5;" width="113.5956" x="509.4455" y="90.0679"/><text fill="#000000" font-family="sans-serif" font-size="14" lengthAdjust="spacing" textLength="99.5956" x="516.4455" y="112.0339">SongController</text></g><g class="participant participant-tail" data-entity-uid="part3" data-qualified-name="SongController" id="part3-tail"><rect fill="#E2E2F0" height="33.0679" rx="2.5" ry="2.5" style="stroke:#181818;stroke-width:0.5;" width="113.5956" x="509.4455" y="1413.2403"/><text fill="#000000" font-family="sans-serif" font-size="14" lengthAdjust="spacing" textLength="99.5956" x="516.4455" y="1435.2063">SongController</text></g><g class="participant participant-head" data-entity-uid="part4" data-qualified-name="PlaylistService" id="part4-head"><rect fill="#E2E2F0" height="33.0679" rx="2.5" ry="2.5" style="stroke:#181818;stroke-width:0.5;" width="106.7636" x="807.6287" y="90.0679"/><text fill="#000000" font-family="sans-serif" font-size="14" lengthAdjust="spacing" textLength="92.7636" x="814.6287" y="112.0339">PlaylistService</text></g><g class="participant participant-tail" data-entity-uid="part4" data-qualified-name="PlaylistService" id="part4-tail"><rect fill="#E2E2F0" height="33.0679" rx="2.5" ry="2.5" style="stroke:#181818;stroke-width:0.5;" width="106.7636" x="807.6287" y="1413.2403"/><text fill="#000000" font-family="sans-serif" font-size="14" lengthAdjust="spacing" textLength="92.7636" x="814.6287" y="1435.2063">PlaylistService</text></g><g class="participant participant-head" data-entity-uid="part5" data-qualified-name="PlaylistApi" id="part5-head"><rect fill="#E2E2F0" height="33.0679" rx="2.5" ry="2.5" style="stroke:#181818;stroke-width:0.5;" width="81.2278" x="1074.0629" y="90.0679"/><text fill="#000000" font-family="sans-serif" font-size="14" lengthAdjust="spacing" textLength="67.2278" x="1081.0629" y="112.0339">PlaylistApi</text></g><g class="participant participant-tail" data-entity-uid="part5" data-qualified-name="PlaylistApi" id="part5-tail"><rect fill="#E2E2F0" height="33.0679" rx="2.5" ry="2.5" style="stroke:#181818;stroke-width:0.5;" width="81.2278" x="1074.0629" y="1413.2403"/><text fill="#000000" font-family="sans-serif" font-size="14" lengthAdjust="spacing" textLength="67.2278" x="1081.0629" y="1435.2063">PlaylistApi</text></g><g class="participant participant-head" data-entity-uid="part6" data-qualified-name="ApiClient" id="part6-head"><rect fill="#E2E2F0" height="33.0679" rx="2.5" ry="2.5" style="stroke:#181818;stroke-width:0.5;" width="72.8418" x="1678.9572" y="90.0679"/><text fill="#000000" font-family="sans-serif" font-size="14" lengthAdjust="spacing" textLength="58.8418" x="1685.9572" y="112.0339">ApiClient</text></g><g class="participant participant-tail" data-entity-uid="part6" data-qualified-name="ApiClient" id="part6-tail"><rect fill="#E2E2F0" height="33.0679" rx="2.5" ry="2.5" style="stroke:#181818;stroke-width:0.5;" width="72.8418" x="1678.9572" y="1413.2403"/><text fill="#000000" font-family="sans-serif" font-size="14" lengthAdjust="spacing" textLength="58.8418" x="1685.9572" y="1435.2063">ApiClient</text></g><g class="participant participant-head" data-entity-uid="part7" data-qualified-name="PlaylistBackendController" id="part7-head"><rect fill="#E2E2F0" height="33.0679" rx="2.5" ry="2.5" style="stroke:#181818;stroke-width:0.5;" width="182.5453" x="1929.8706" y="90.0679"/><text fill="#000000" font-family="sans-serif" font-size="14" lengthAdjust="spacing" textLength="168.5453" x="1936.8706" y="112.0339">PlaylistBackendController</text></g><g class="participant participant-tail" data-entity-uid="part7" data-qualified-name="PlaylistBackendController" id="part7-tail"><rect fill="#E2E2F0" height="33.0679" rx="2.5" ry="2.5" style="stroke:#181818;stroke-width:0.5;" width="182.5453" x="1929.8706" y="1413.2403"/><text fill="#000000" font-family="sans-serif" font-size="14" lengthAdjust="spacing" textLength="168.5453" x="1936.8706" y="1435.2063">PlaylistBackendController</text></g><g class="participant participant-head" data-entity-uid="part8" data-qualified-name="PlaylistBackendService" id="part8-head"><rect fill="#E2E2F0" height="33.0679" rx="2.5" ry="2.5" style="stroke:#181818;stroke-width:0.5;" width="163.0714" x="2193.2738" y="90.0679"/><text fill="#000000" font-family="sans-serif" font-size="14" lengthAdjust="spacing" textLength="149.0714" x="2200.2738" y="112.0339">PlaylistBackendService</text></g><g class="participant participant-tail" data-entity-uid="part8" data-qualified-name="PlaylistBackendService" id="part8-tail"><rect fill="#E2E2F0" height="33.0679" rx="2.5" ry="2.5" style="stroke:#181818;stroke-width:0.5;" width="163.0714" x="2193.2738" y="1413.2403"/><text fill="#000000" font-family="sans-serif" font-size="14" lengthAdjust="spacing" textLength="149.0714" x="2200.2738" y="1435.2063">PlaylistBackendService</text></g><g class="participant participant-head" data-entity-uid="part9" data-qualified-name="PlaylistBackendRepository" id="part9-head"><rect fill="#E2E2F0" height="33.0679" rx="2.5" ry="2.5" style="stroke:#181818;stroke-width:0.5;" width="186.8153" x="2484.7671" y="90.0679"/><text fill="#000000" font-family="sans-serif" font-size="14" lengthAdjust="spacing" textLength="172.8153" x="2491.7671" y="112.0339">PlaylistBackendRepository</text></g><g class="participant participant-tail" data-entity-uid="part9" data-qualified-name="PlaylistBackendRepository" id="part9-tail"><rect fill="#E2E2F0" height="33.0679" rx="2.5" ry="2.5" style="stroke:#181818;stroke-width:0.5;" width="186.8153" x="2484.7671" y="1413.2403"/><text fill="#000000" font-family="sans-serif" font-size="14" lengthAdjust="spacing" textLength="172.8153" x="2491.7671" y="1435.2063">PlaylistBackendRepository</text></g><g class="participant participant-head" data-entity-uid="part10" data-qualified-name="Database" id="part10-head"><text fill="#000000" font-family="sans-serif" font-size="14" lengthAdjust="spacing" textLength="62.0478" x="2869.8372" y="120.0339">Database</text><path d="M2885.8611,69.0679 C2885.8611,59.0679 2903.8611,59.0679 2903.8611,59.0679 C2903.8611,59.0679 2921.8611,59.0679 2921.8611,69.0679 L2921.8611,95.0679 C2921.8611,105.0679 2903.8611,105.0679 2903.8611,105.0679 C2903.8611,105.0679 2885.8611,105.0679 2885.8611,95.0679 L2885.8611,69.0679" fill="#E2E2F0" style="stroke:#181818;stroke-width:0.5;"/><path d="M2885.8611,69.0679 C2885.8611,79.0679 2903.8611,79.0679 2903.8611,79.0679 C2903.8611,79.0679 2921.8611,79.0679 2921.8611,69.0679" fill="none" style="stroke:#181818;stroke-width:0.5;"/></g><g class="participant participant-tail" data-entity-uid="part10" data-qualified-name="Database" id="part10-tail"><text fill="#000000" font-family="sans-serif" font-size="14" lengthAdjust="spacing" textLength="62.0478" x="2869.8372" y="1428.2063">Database</text><path d="M2885.8611,1442.3083 C2885.8611,1432.3083 2903.8611,1432.3083 2903.8611,1432.3083 C2903.8611,1432.3083 2921.8611,1432.3083 2921.8611,1442.3083 L2921.8611,1468.3083 C2921.8611,1478.3083 2903.8611,1478.3083 2903.8611,1478.3083 C2903.8611,1478.3083 2885.8611,1478.3083 2885.8611,1468.3083 L2885.8611,1442.3083" fill="#E2E2F0" style="stroke:#181818;stroke-width:0.5;"/><path d="M2885.8611,1442.3083 C2885.8611,1452.3083 2903.8611,1452.3083 2903.8611,1452.3083 C2903.8611,1452.3083 2921.8611,1452.3083 2921.8611,1442.3083" fill="none" style="stroke:#181818;stroke-width:0.5;"/></g><g><title>SongView</title><rect fill="#FFFFFF" height="1271.1045" style="stroke:#181818;stroke-width:1;" width="10" x="223.7971" y="134.1358"/></g><g><title>SongController</title><rect fill="#FFFFFF" height="897.0443" style="stroke:#181818;stroke-width:1;" width="10" x="561.2433" y="508.196"/></g><g><title>PlaylistService</title><rect fill="#FFFFFF" height="865.3383" style="stroke:#181818;stroke-width:1;" width="10" x="856.0105" y="539.902"/></g><g><title>PlaylistApi</title><rect fill="#FFFFFF" height="833.6323" style="stroke:#181818;stroke-width:1;" width="10" x="1109.6768" y="571.608"/></g><g><title>ApiClient</title><rect fill="#FFFFFF" height="801.9263" style="stroke:#181818;stroke-width:1;" width="10" x="1710.3781" y="603.314"/></g><g><title>PlaylistBackendController</title><rect fill="#FFFFFF" height="770.2203" style="stroke:#181818;stroke-width:1;" width="10" x="2016.1433" y="635.0201"/></g><g><title>PlaylistBackendService</title><rect fill="#FFFFFF" height="738.5143" style="stroke:#181818;stroke-width:1;" width="10" x="2269.8095" y="666.7261"/></g><g><title>PlaylistBackendRepository</title><rect fill="#FFFFFF" height="95.118" style="stroke:#181818;stroke-width:1;" width="10" x="2573.1748" y="743.1381"/></g><g><title>PlaylistBackendRepository</title><rect fill="#FFFFFF" height="95.118" style="stroke:#181818;stroke-width:1;" width="10" x="2573.1748" y="1103.8862"/></g><g class="message" data-entity-1="part1" data-entity-2="part2" id="msg1"><polygon fill="#181818" points="211.7971,153.8419,221.7971,157.8419,211.7971,161.8419,215.7971,157.8419" style="stroke:#181818;stroke-width:1;"/><line style="stroke:#181818;stroke-width:1;" x1="23.3089" x2="217.7971" y1="157.8419" y2="157.8419"/><text fill="#000000" font-family="sans-serif" font-size="13" lengthAdjust="spacing" textLength="114.4521" x="30.3089" y="152.0328">Right click on song</text></g><g class="message" data-entity-1="part2" data-entity-2="part2" id="msg2"><line style="stroke:#181818;stroke-width:1;" x1="233.7971" x2="275.7971" y1="189.5479" y2="189.5479"/><line style="stroke:#181818;stroke-width:1;" x1="275.7971" x2="275.7971" y1="189.5479" y2="202.5479"/><line style="stroke:#181818;stroke-width:1;" x1="234.7971" x2="275.7971" y1="202.5479" y2="202.5479"/><polygon fill="#181818" points="244.7971,198.5479,234.7971,202.5479,244.7971,206.5479,240.7971,202.5479" style="stroke:#181818;stroke-width:1;"/><text fill="#000000" font-family="sans-serif" font-size="13" lengthAdjust="spacing" textLength="114.9981" x="240.7971" y="183.7389">onSongRightClick()</text></g><g class="message" data-entity-1="part2" data-entity-2="part2" id="msg3"><line style="stroke:#181818;stroke-width:1;" x1="233.7971" x2="275.7971" y1="234.2539" y2="234.2539"/><line style="stroke:#181818;stroke-width:1;" x1="275.7971" x2="275.7971" y1="234.2539" y2="247.2539"/><line style="stroke:#181818;stroke-width:1;" x1="234.7971" x2="275.7971" y1="247.2539" y2="247.2539"/><polygon fill="#181818" points="244.7971,243.2539,234.7971,247.2539,244.7971,251.2539,240.7971,247.2539" style="stroke:#181818;stroke-width:1;"/><text fill="#000000" font-family="sans-serif" font-size="13" lengthAdjust="spacing" textLength="123.6561" x="240.7971" y="228.4449">showOptionsMenu()</text></g><g class="message" data-entity-1="part1" data-entity-2="part2" id="msg4"><polygon fill="#181818" points="211.7971,274.9599,221.7971,278.9599,211.7971,282.9599,215.7971,278.9599" style="stroke:#181818;stroke-width:1;"/><line style="stroke:#181818;stroke-width:1;" x1="23.3089" x2="217.7971" y1="278.9599" y2="278.9599"/><text fill="#000000" font-family="sans-serif" font-size="13" lengthAdjust="spacing" textLength="128.4791" x="30.3089" y="273.1509">Click "Add to Playlist"</text></g><g class="message" data-entity-1="part2" data-entity-2="part2" id="msg5"><line style="stroke:#181818;stroke-width:1;" x1="233.7971" x2="275.7971" y1="310.6659" y2="310.6659"/><line style="stroke:#181818;stroke-width:1;" x1="275.7971" x2="275.7971" y1="310.6659" y2="323.6659"/><line style="stroke:#181818;stroke-width:1;" x1="234.7971" x2="275.7971" y1="323.6659" y2="323.6659"/><polygon fill="#181818" points="244.7971,319.6659,234.7971,323.6659,244.7971,327.6659,240.7971,323.6659" style="stroke:#181818;stroke-width:1;"/><text fill="#000000" font-family="sans-serif" font-size="13" lengthAdjust="spacing" textLength="149.2921" x="240.7971" y="304.8569">onAddToPlaylistClicked()</text></g><g class="message" data-entity-1="part2" data-entity-2="part2" id="msg6"><line style="stroke:#181818;stroke-width:1;" x1="233.7971" x2="275.7971" y1="355.3719" y2="355.3719"/><line style="stroke:#181818;stroke-width:1;" x1="275.7971" x2="275.7971" y1="355.3719" y2="368.3719"/><line style="stroke:#181818;stroke-width:1;" x1="234.7971" x2="275.7971" y1="368.3719" y2="368.3719"/><polygon fill="#181818" points="244.7971,364.3719,234.7971,368.3719,244.7971,372.3719,240.7971,368.3719" style="stroke:#181818;stroke-width:1;"/><text fill="#000000" font-family="sans-serif" font-size="13" lengthAdjust="spacing" textLength="177.6062" x="240.7971" y="349.5629">showPlaylistSelectionDialog()</text></g><g class="message" data-entity-1="part1" data-entity-2="part2" id="msg7"><polygon fill="#181818" points="211.7971,396.0779,221.7971,400.0779,211.7971,404.0779,215.7971,400.0779" style="stroke:#181818;stroke-width:1;"/><line style="stroke:#181818;stroke-width:1;" x1="23.3089" x2="217.7971" y1="400.0779" y2="400.0779"/><text fill="#000000" font-family="sans-serif" font-size="13" lengthAdjust="spacing" textLength="176.4881" x="30.3089" y="394.2689">Select playlist or "Favourites"</text></g><g class="message" data-entity-1="part1" data-entity-2="part2" id="msg8"><polygon fill="#181818" points="211.7971,427.784,221.7971,431.784,211.7971,435.784,215.7971,431.784" style="stroke:#181818;stroke-width:1;"/><line style="stroke:#181818;stroke-width:1;" x1="23.3089" x2="217.7971" y1="431.784" y2="431.784"/><text fill="#000000" font-family="sans-serif" font-size="13" lengthAdjust="spacing" textLength="147.5631" x="30.3089" y="425.975">Click "Confirm" in dialog</text></g><g class="message" data-entity-1="part2" data-entity-2="part2" id="msg9"><line style="stroke:#181818;stroke-width:1;" x1="233.7971" x2="275.7971" y1="463.49" y2="463.49"/><line style="stroke:#181818;stroke-width:1;" x1="275.7971" x2="275.7971" y1="463.49" y2="476.49"/><line style="stroke:#181818;stroke-width:1;" x1="234.7971" x2="275.7971" y1="476.49" y2="476.49"/><polygon fill="#181818" points="244.7971,472.49,234.7971,476.49,244.7971,480.49,240.7971,476.49" style="stroke:#181818;stroke-width:1;"/><text fill="#000000" font-family="sans-serif" font-size="13" lengthAdjust="spacing" textLength="303.4462" x="240.7971" y="457.681">onConfirmAddToPlaylistClicked(playlistId, songId)</text></g><g class="message" data-entity-1="part2" data-entity-2="part3" id="msg10"><polygon fill="#181818" points="549.2433,504.196,559.2433,508.196,549.2433,512.196,553.2433,508.196" style="stroke:#181818;stroke-width:1;"/><line style="stroke:#181818;stroke-width:1;" x1="233.7971" x2="555.2433" y1="508.196" y2="508.196"/><text fill="#000000" font-family="sans-serif" font-size="13" lengthAdjust="spacing" textLength="224.6662" x="240.7971" y="502.387">addSongToPlaylist(songId, playlistId)</text></g><g class="message" data-entity-1="part3" data-entity-2="part4" id="msg11"><polygon fill="#181818" points="844.0105,535.902,854.0105,539.902,844.0105,543.902,848.0105,539.902" style="stroke:#181818;stroke-width:1;"/><line style="stroke:#181818;stroke-width:1;" x1="571.2433" x2="850.0105" y1="539.902" y2="539.902"/><text fill="#000000" font-family="sans-serif" font-size="13" lengthAdjust="spacing" textLength="224.6662" x="578.2433" y="534.093">addSongToPlaylist(songId, playlistId)</text></g><g class="message" data-entity-1="part4" data-entity-2="part5" id="msg12"><polygon fill="#181818" points="1097.6768,567.608,1107.6768,571.608,1097.6768,575.608,1101.6768,571.608" style="stroke:#181818;stroke-width:1;"/><line style="stroke:#181818;stroke-width:1;" x1="866.0105" x2="1103.6768" y1="571.608" y2="571.608"/><text fill="#000000" font-family="sans-serif" font-size="13" lengthAdjust="spacing" textLength="224.6662" x="873.0105" y="565.799">addSongToPlaylist(songId, playlistId)</text></g><g class="message" data-entity-1="part5" data-entity-2="part6" id="msg13"><polygon fill="#181818" points="1698.3781,599.314,1708.3781,603.314,1698.3781,607.314,1702.3781,603.314" style="stroke:#181818;stroke-width:1;"/><line style="stroke:#181818;stroke-width:1;" x1="1119.6768" x2="1704.3781" y1="603.314" y2="603.314"/><text fill="#000000" font-family="sans-serif" font-size="13" lengthAdjust="spacing" textLength="571.7013" x="1126.6768" y="597.505">post("/playlists/" + playlistId + "/add", new AddSongRequest(songId), AddSongResponse.class)</text></g><g class="message" data-entity-1="part6" data-entity-2="part7" id="msg14"><polygon fill="#181818" points="2004.1433,631.0201,2014.1433,635.0201,2004.1433,639.0201,2008.1433,635.0201" style="stroke:#181818;stroke-width:1;"/><line style="stroke:#181818;stroke-width:1;" x1="1720.3781" x2="2010.1433" y1="635.0201" y2="635.0201"/><text fill="#000000" font-family="sans-serif" font-size="13" lengthAdjust="spacing" textLength="187.8632" x="1727.3781" y="629.2111">POST /playlists/{playlistId}/add</text></g><g class="message" data-entity-1="part7" data-entity-2="part8" id="msg15"><polygon fill="#181818" points="2257.8095,662.7261,2267.8095,666.7261,2257.8095,670.7261,2261.8095,666.7261" style="stroke:#181818;stroke-width:1;"/><line style="stroke:#181818;stroke-width:1;" x1="2026.1433" x2="2263.8095" y1="666.7261" y2="666.7261"/><text fill="#000000" font-family="sans-serif" font-size="13" lengthAdjust="spacing" textLength="224.6662" x="2033.1433" y="660.9171">addSongToPlaylist(playlistId, songId)</text></g><g class="message" data-entity-1="part8" data-entity-2="part8" id="msg16"><line style="stroke:#181818;stroke-width:1;" x1="2279.8095" x2="2321.8095" y1="698.4321" y2="698.4321"/><line style="stroke:#181818;stroke-width:1;" x1="2321.8095" x2="2321.8095" y1="698.4321" y2="711.4321"/><line style="stroke:#181818;stroke-width:1;" x1="2280.8095" x2="2321.8095" y1="711.4321" y2="711.4321"/><polygon fill="#181818" points="2290.8095,707.4321,2280.8095,711.4321,2290.8095,715.4321,2286.8095,711.4321" style="stroke:#181818;stroke-width:1;"/><text fill="#000000" font-family="sans-serif" font-size="13" lengthAdjust="spacing" textLength="205.0622" x="2286.8095" y="692.6231">checkDuplicate(playlistId, songId)</text></g><g class="message" data-entity-1="part8" data-entity-2="part9" id="msg17"><polygon fill="#181818" points="2561.1748,739.1381,2571.1748,743.1381,2561.1748,747.1381,2565.1748,743.1381" style="stroke:#181818;stroke-width:1;"/><line style="stroke:#181818;stroke-width:1;" x1="2279.8095" x2="2567.1748" y1="743.1381" y2="743.1381"/><text fill="#000000" font-family="sans-serif" font-size="13" lengthAdjust="spacing" textLength="274.3653" x="2286.8095" y="737.3291">findByPlaylistIdAndSongId(playlistId, songId)</text></g><g class="message" data-entity-1="part9" data-entity-2="part10" id="msg18"><polygon fill="#181818" points="2891.8611,770.8441,2901.8611,774.8441,2891.8611,778.8441,2895.8611,774.8441" style="stroke:#181818;stroke-width:1;"/><line style="stroke:#181818;stroke-width:1;" x1="2583.1748" x2="2897.8611" y1="774.8441" y2="774.8441"/><text fill="#000000" font-family="sans-serif" font-size="13" lengthAdjust="spacing" textLength="296.6863" x="2590.1748" y="769.0351">Execute SQL to check if song is already in playlist</text></g><g class="message" data-entity-1="part10" data-entity-2="part9" id="msg19"><polygon fill="#181818" points="2594.1748,802.5501,2584.1748,806.5501,2594.1748,810.5501,2590.1748,806.5501" style="stroke:#181818;stroke-width:1;"/><line style="stroke:#181818;stroke-width:1;stroke-dasharray:2,2;" x1="2588.1748" x2="2902.8611" y1="806.5501" y2="806.5501"/><text fill="#000000" font-family="sans-serif" font-size="13" lengthAdjust="spacing" textLength="103.8701" x="2600.1748" y="800.7411">Return true/false</text></g><g class="message" data-entity-1="part9" data-entity-2="part8" id="msg20"><polygon fill="#181818" points="2290.8095,834.2562,2280.8095,838.2562,2290.8095,842.2562,2286.8095,838.2562" style="stroke:#181818;stroke-width:1;"/><line style="stroke:#181818;stroke-width:1;stroke-dasharray:2,2;" x1="2284.8095" x2="2577.1748" y1="838.2562" y2="838.2562"/><text fill="#000000" font-family="sans-serif" font-size="13" lengthAdjust="spacing" textLength="103.8701" x="2296.8095" y="832.4472">Return true/false</text></g><path d="M179.6322,853.2562 L241.191,853.2562 L241.191,862.9622 L231.191,872.9622 L179.6322,872.9622 L179.6322,853.2562" fill="#EEEEEE" style="stroke:#000000;stroke-width:1.5;"/><rect fill="none" height="543.9842" style="stroke:#000000;stroke-width:1.5;" width="2768.2528" x="179.6322" y="853.2562"/><text fill="#000000" font-family="sans-serif" font-size="13" font-weight="bold" lengthAdjust="spacing" textLength="16.5588" x="194.6322" y="868.1532">alt</text><text fill="#000000" font-family="sans-serif" font-size="11" font-weight="bold" lengthAdjust="spacing" textLength="134.2184" x="256.191" y="867.0151">[Song already in playlist]</text><g class="message" data-entity-1="part8" data-entity-2="part7" id="msg21"><polygon fill="#181818" points="2037.1433,892.6682,2027.1433,896.6682,2037.1433,900.6682,2033.1433,896.6682" style="stroke:#181818;stroke-width:1;"/><line style="stroke:#181818;stroke-width:1;" x1="2031.1433" x2="2268.8095" y1="896.6682" y2="896.6682"/><text fill="#000000" font-family="sans-serif" font-size="13" lengthAdjust="spacing" textLength="70.8891" x="2043.1433" y="890.8592">return false</text></g><g class="message" data-entity-1="part7" data-entity-2="part6" id="msg22"><polygon fill="#181818" points="1731.3781,924.3742,1721.3781,928.3742,1731.3781,932.3742,1727.3781,928.3742" style="stroke:#181818;stroke-width:1;"/><line style="stroke:#181818;stroke-width:1;" x1="1725.3781" x2="2015.1433" y1="928.3742" y2="928.3742"/><text fill="#000000" font-family="sans-serif" font-size="13" lengthAdjust="spacing" textLength="271.7652" x="1737.3781" y="922.5652">return HTTP 409 Conflict with error message</text></g><g class="message" data-entity-1="part6" data-entity-2="part5" id="msg23"><polygon fill="#181818" points="1130.6768,956.0802,1120.6768,960.0802,1130.6768,964.0802,1126.6768,960.0802" style="stroke:#181818;stroke-width:1;"/><line style="stroke:#181818;stroke-width:1;" x1="1124.6768" x2="1709.3781" y1="960.0802" y2="960.0802"/><text fill="#000000" font-family="sans-serif" font-size="13" lengthAdjust="spacing" textLength="73.5151" x="1136.6768" y="954.2712">return error</text></g><g class="message" data-entity-1="part5" data-entity-2="part4" id="msg24"><polygon fill="#181818" points="877.0105,987.7862,867.0105,991.7862,877.0105,995.7862,873.0105,991.7862" style="stroke:#181818;stroke-width:1;"/><line style="stroke:#181818;stroke-width:1;" x1="871.0105" x2="1108.6768" y1="991.7862" y2="991.7862"/><text fill="#000000" font-family="sans-serif" font-size="13" lengthAdjust="spacing" textLength="73.5151" x="883.0105" y="985.9772">return error</text></g><g class="message" data-entity-1="part4" data-entity-2="part3" id="msg25"><polygon fill="#181818" points="582.2433,1019.4923,572.2433,1023.4923,582.2433,1027.4923,578.2433,1023.4923" style="stroke:#181818;stroke-width:1;"/><line style="stroke:#181818;stroke-width:1;" x1="576.2433" x2="855.0105" y1="1023.4923" y2="1023.4923"/><text fill="#000000" font-family="sans-serif" font-size="13" lengthAdjust="spacing" textLength="260.7672" x="588.2433" y="1017.6833">showError("Song already exists in playlist")</text></g><g class="message" data-entity-1="part3" data-entity-2="part2" id="msg26"><polygon fill="#181818" points="244.7971,1051.1983,234.7971,1055.1983,244.7971,1059.1983,240.7971,1055.1983" style="stroke:#181818;stroke-width:1;"/><line style="stroke:#181818;stroke-width:1;" x1="238.7971" x2="560.2433" y1="1055.1983" y2="1055.1983"/><text fill="#000000" font-family="sans-serif" font-size="13" lengthAdjust="spacing" textLength="300.1183" x="250.7971" y="1049.3893">showErrorDialog("Song already exists in playlist")</text></g><line style="stroke:#000000;stroke-width:1;stroke-dasharray:2,2;" x1="179.6322" x2="2947.885" y1="1064.1983" y2="1064.1983"/><text fill="#000000" font-family="sans-serif" font-size="11" font-weight="bold" lengthAdjust="spacing" textLength="111.9655" x="184.6322" y="1075.9572">[Song not in playlist]</text><g class="message" data-entity-1="part8" data-entity-2="part9" id="msg27"><polygon fill="#181818" points="2561.1748,1099.8862,2571.1748,1103.8862,2561.1748,1107.8862,2565.1748,1103.8862" style="stroke:#181818;stroke-width:1;"/><line style="stroke:#181818;stroke-width:1;" x1="2279.8095" x2="2567.1748" y1="1103.8862" y2="1103.8862"/><text fill="#000000" font-family="sans-serif" font-size="13" lengthAdjust="spacing" textLength="143.1691" x="2286.8095" y="1098.0772">Insert song into playlist</text></g><g class="message" data-entity-1="part9" data-entity-2="part10" id="msg28"><polygon fill="#181818" points="2891.8611,1131.5922,2901.8611,1135.5922,2891.8611,1139.5922,2895.8611,1135.5922" style="stroke:#181818;stroke-width:1;"/><line style="stroke:#181818;stroke-width:1;" x1="2583.1748" x2="2897.8611" y1="1135.5922" y2="1135.5922"/><text fill="#000000" font-family="sans-serif" font-size="13" lengthAdjust="spacing" textLength="229.3852" x="2590.1748" y="1129.7832">Insert record into playlist_songs table</text></g><g class="message" data-entity-1="part10" data-entity-2="part9" id="msg29"><polygon fill="#181818" points="2594.1748,1163.2982,2584.1748,1167.2982,2594.1748,1171.2982,2590.1748,1167.2982" style="stroke:#181818;stroke-width:1;"/><line style="stroke:#181818;stroke-width:1;stroke-dasharray:2,2;" x1="2588.1748" x2="2902.8611" y1="1167.2982" y2="1167.2982"/><text fill="#000000" font-family="sans-serif" font-size="13" lengthAdjust="spacing" textLength="47.437" x="2600.1748" y="1161.4892">Success</text></g><g class="message" data-entity-1="part9" data-entity-2="part8" id="msg30"><polygon fill="#181818" points="2290.8095,1195.0042,2280.8095,1199.0042,2290.8095,1203.0042,2286.8095,1199.0042" style="stroke:#181818;stroke-width:1;"/><line style="stroke:#181818;stroke-width:1;stroke-dasharray:2,2;" x1="2284.8095" x2="2577.1748" y1="1199.0042" y2="1199.0042"/><text fill="#000000" font-family="sans-serif" font-size="13" lengthAdjust="spacing" textLength="88.7381" x="2296.8095" y="1193.1952">return success</text></g><g class="message" data-entity-1="part8" data-entity-2="part7" id="msg31"><polygon fill="#181818" points="2037.1433,1226.7103,2027.1433,1230.7103,2037.1433,1234.7103,2033.1433,1230.7103" style="stroke:#181818;stroke-width:1;"/><line style="stroke:#181818;stroke-width:1;" x1="2031.1433" x2="2268.8095" y1="1230.7103" y2="1230.7103"/><text fill="#000000" font-family="sans-serif" font-size="13" lengthAdjust="spacing" textLength="148.4991" x="2043.1433" y="1224.9012">return success response</text></g><g class="message" data-entity-1="part7" data-entity-2="part6" id="msg32"><polygon fill="#181818" points="1731.3781,1258.4163,1721.3781,1262.4163,1731.3781,1266.4163,1727.3781,1262.4163" style="stroke:#181818;stroke-width:1;"/><line style="stroke:#181818;stroke-width:1;" x1="1725.3781" x2="2015.1433" y1="1262.4163" y2="1262.4163"/><text fill="#000000" font-family="sans-serif" font-size="13" lengthAdjust="spacing" textLength="121.4331" x="1737.3781" y="1256.6073">return HTTP 200 OK</text></g><g class="message" data-entity-1="part6" data-entity-2="part5" id="msg33"><polygon fill="#181818" points="1130.6768,1290.1223,1120.6768,1294.1223,1130.6768,1298.1223,1126.6768,1294.1223" style="stroke:#181818;stroke-width:1;"/><line style="stroke:#181818;stroke-width:1;" x1="1124.6768" x2="1709.3781" y1="1294.1223" y2="1294.1223"/><text fill="#000000" font-family="sans-serif" font-size="13" lengthAdjust="spacing" textLength="88.7381" x="1136.6768" y="1288.3133">return success</text></g><g class="message" data-entity-1="part5" data-entity-2="part4" id="msg34"><polygon fill="#181818" points="877.0105,1321.8283,867.0105,1325.8283,877.0105,1329.8283,873.0105,1325.8283" style="stroke:#181818;stroke-width:1;"/><line style="stroke:#181818;stroke-width:1;" x1="871.0105" x2="1108.6768" y1="1325.8283" y2="1325.8283"/><text fill="#000000" font-family="sans-serif" font-size="13" lengthAdjust="spacing" textLength="88.7381" x="883.0105" y="1320.0193">return success</text></g><g class="message" data-entity-1="part4" data-entity-2="part3" id="msg35"><polygon fill="#181818" points="582.2433,1353.5343,572.2433,1357.5343,582.2433,1361.5343,578.2433,1357.5343" style="stroke:#181818;stroke-width:1;"/><line style="stroke:#181818;stroke-width:1;" x1="576.2433" x2="855.0105" y1="1357.5343" y2="1357.5343"/><text fill="#000000" font-family="sans-serif" font-size="13" lengthAdjust="spacing" textLength="233.4282" x="588.2433" y="1351.7253">showSuccess("Song added to playlist")</text></g><g class="message" data-entity-1="part3" data-entity-2="part2" id="msg36"><polygon fill="#181818" points="244.7971,1385.2403,234.7971,1389.2403,244.7971,1393.2403,240.7971,1389.2403" style="stroke:#181818;stroke-width:1;"/><line style="stroke:#181818;stroke-width:1;" x1="238.7971" x2="560.2433" y1="1389.2403" y2="1389.2403"/><text fill="#000000" font-family="sans-serif" font-size="13" lengthAdjust="spacing" textLength="272.7793" x="250.7971" y="1383.4313">showSuccessDialog("Song added to playlist")</text></g><?plantuml-src fLPDRzim3BtdLn2-BC7IfHXssGu3qezXmJOqIx9T1yrY4g6kv4boss3OVozbo_6tutOzLJBv7YdoaR72HWXppc6jv0us2fOHEqJ2sD68XLPf-65GZsAchGX5pAHD3NyAV6XSNYffjOgYcdqEk4PzBq9i_JQFHUMUpfUHG6bRhIzOU8kId-3pLdsqtcI5iJA2aZsCEBFiDpC8L_wVz1d4FRDO9EwU1Cu-7Y_W0wp4RcyXZ4Hu2qg2eI-Zu-UggPBka3fSEllnfClIxDN3JMo5akORoeGCMvXJ30XS2MrHlQ2RdImtAhTBlP7tnr1KCCBGXNCbMAHsxV5aHX1x7w0M2ZwnUvLeOT44FIbGFRT2tmKW9F2KeJi9RzkQIqwzuDEq40lUpAxe7O9ZdBkx0ccSkKsXW9fK-w3KUpKu8gXr_FCPwfAf0vOuI2alntUoAmCHxb5vX4ggiEDWbaEOMG2lIu1q26R474n1qilEinXM-2V1Om2JQN5lOcfaV1D6p9XIC8NM2-vIWWsnKs3Bc_K6Id7zBOBwvo9gPjeS6TtuJVA-GhPrMnTzlPur-1xYS8_XxLKIKuiJRYlfOD1Yt552Mo7vnM5vn9lBDC45VrPYfGdQJKQHv5ELYAyVCKoSchv_TOChJH34DgK2OO156Xa_k66GHp8wkf-To6g5Dj4Ih4vmjcMHmRwm-khT1E8uu15ObAt4rYo0_WONgzBtEeic2wG5fjh4PIbxpy-RpHBUdRy7Dp-fbomy2Bi7r9h6z1qQmtOPSAiKirdZeJAVIXH-X3J7Nzcbub7Akp6LtUQvTXxZeFAK-EWqNtxHO9A2DWTnRO-bQ7vt3SHyLLuSwUgY3KTGFds_ff3gaTLRAlloMbTQU46pKbil1qaAgM0EwC4MwaunUZADeTAyIlVBHM20JAEiDGQBS9s48RNKgK3wvESRnvIG1kdlloNc6UcORQsNg-tj-JdSV1aeAjFoPATKrUPpIbU-DBaAECVqr-Dp1ULXgfBg0EjKKlxKkPOaVm80?></g></svg>