<?plantuml 1.2026.2?><svg xmlns="http://www.w3.org/2000/svg" xmlns:xlink="http://www.w3.org/1999/xlink" contentStyleType="text/css" data-diagram-type="SEQUENCE" height="1001px" preserveAspectRatio="none" style="width:2464px;height:1001px;background:#FFFFFF;" version="1.1" viewBox="0 0 2464 1001" width="2464px" zoomAndPan="magnify"><title>Check Statistics</title><defs/><g><text fill="#000000" font-family="sans-serif" font-size="14" font-weight="bold" lengthAdjust="spacing" textLength="109.9696" x="1178.7213" y="29.9659">Check Statistics</text><g><title>HomeView</title><rect fill="#FFFFFF" height="55.412" style="stroke:#181818;stroke-width:1;" width="10" x="150.561" y="134.1358"/></g><g><title>HomeController</title><rect fill="#FFFFFF" height="31.706" style="stroke:#181818;stroke-width:1;" width="10" x="286.3041" y="189.5479"/></g><g><title>ArtistProfileView</title><rect fill="#FFFFFF" height="624.4143" style="stroke:#181818;stroke-width:1;" width="10" x="417.6697" y="284.6659"/></g><g><title>ArtistProfileController</title><rect fill="#FFFFFF" height="647.1203" style="stroke:#181818;stroke-width:1;" width="10" x="637.9989" y="252.9599"/></g><g><title>ArtistService</title><rect fill="#FFFFFF" height="412.1782" style="stroke:#181818;stroke-width:1;" width="10" x="835.591" y="456.196"/></g><g><title>ArtistApiClient</title><rect fill="#FFFFFF" height="348.7662" style="stroke:#181818;stroke-width:1;" width="10" x="1033.1832" y="487.902"/></g><g><title>ApiClient</title><rect fill="#FFFFFF" height="285.3541" style="stroke:#181818;stroke-width:1;" width="10" x="1596.6655" y="519.608"/></g><g><title>ArtistBackendController</title><rect fill="#FFFFFF" height="221.9421" style="stroke:#181818;stroke-width:1;" width="10" x="1794.2577" y="551.314"/></g><g><title>ArtistBackendService</title><rect fill="#FFFFFF" height="158.5301" style="stroke:#181818;stroke-width:1;" width="10" x="1991.8498" y="583.0201"/></g><g><title>ArtistBackendRepository</title><rect fill="#FFFFFF" height="95.118" style="stroke:#181818;stroke-width:1;" width="10" x="2189.442" y="614.7261"/></g><g><title>EventBus</title><rect fill="#FFFFFF" height="687.8263" style="stroke:#181818;stroke-width:1;" width="10" x="2324.8746" y="221.2539"/></g><g class="participant-lifeline" data-entity-uid="part1" data-qualified-name="artist" id="part1-lifeline"><g><title>Artist</title><rect fill="#000000" fill-opacity="0.00000" height="793.9444" width="8" x="21.5769" y="124.1358"/><line style="stroke:#181818;stroke-width:0.5;stroke-dasharray:5,5;" x1="25" x2="25" y1="124.1358" y2="918.0802"/></g></g><g class="participant-lifeline" data-entity-uid="part2" data-qualified-name="HomeView" id="part2-lifeline"><g><title>HomeView</title><rect fill="#000000" fill-opacity="0.00000" height="793.9444" width="8" x="151.561" y="124.1358"/><line style="stroke:#181818;stroke-width:0.5;stroke-dasharray:5,5;" x1="155.1902" x2="155.1902" y1="124.1358" y2="918.0802"/></g></g><g class="participant-lifeline" data-entity-uid="part3" data-qualified-name="HomeController" id="part3-lifeline"><g><title>HomeController</title><rect fill="#000000" fill-opacity="0.00000" height="793.9444" width="8" x="287.3041" y="124.1358"/><line style="stroke:#181818;stroke-width:0.5;stroke-dasharray:5,5;" x1="291.3003" x2="291.3003" y1="124.1358" y2="918.0802"/></g></g><g class="participant-lifeline" data-entity-uid="part4" data-qualified-name="ArtistProfileView" id="part4-lifeline"><g><title>ArtistProfileView</title><rect fill="#000000" fill-opacity="0.00000" height="793.9444" width="8" x="418.6697" y="124.1358"/><line style="stroke:#181818;stroke-width:0.5;stroke-dasharray:5,5;" x1="422.3079" x2="422.3079" y1="124.1358" y2="918.0802"/></g></g><g class="participant-lifeline" data-entity-uid="part5" data-qualified-name="ArtistProfileController" id="part5-lifeline"><g><title>ArtistProfileController</title><rect fill="#000000" fill-opacity="0.00000" height="793.9444" width="8" x="638.9989" y="124.1358"/><line style="stroke:#181818;stroke-width:0.5;stroke-dasharray:5,5;" x1="642.0041" x2="642.0041" y1="124.1358" y2="918.0802"/></g></g><g class="participant-lifeline" data-entity-uid="part6" data-qualified-name="ArtistService" id="part6-lifeline"><g><title>ArtistService</title><rect fill="#000000" fill-opacity="0.00000" height="793.9444" width="8" x="836.591" y="124.1358"/><line style="stroke:#181818;stroke-width:0.5;stroke-dasharray:5,5;" x1="839.6622" x2="839.6622" y1="124.1358" y2="918.0802"/></g></g><g class="participant-lifeline" data-entity-uid="part7" data-qualified-name="ArtistApiClient" id="part7-lifeline"><g><title>ArtistApiClient</title><rect fill="#000000" fill-opacity="0.00000" height="793.9444" width="8" x="1034.1832" y="124.1358"/><line style="stroke:#181818;stroke-width:0.5;stroke-dasharray:5,5;" x1="1037.1854" x2="1037.1854" y1="124.1358" y2="918.0802"/></g></g><g class="participant-lifeline" data-entity-uid="part8" data-qualified-name="ApiClient" id="part8-lifeline"><g><title>ApiClient</title><rect fill="#000000" fill-opacity="0.00000" height="793.9444" width="8" x="1597.6655" y="124.1358"/><line style="stroke:#181818;stroke-width:0.5;stroke-dasharray:5,5;" x1="1601.2446" x2="1601.2446" y1="124.1358" y2="918.0802"/></g></g><g class="participant-lifeline" data-entity-uid="part9" data-qualified-name="ArtistBackendController" id="part9-lifeline"><g><title>ArtistBackendController</title><rect fill="#000000" fill-opacity="0.00000" height="793.9444" width="8" x="1795.2577" y="124.1358"/><line style="stroke:#181818;stroke-width:0.5;stroke-dasharray:5,5;" x1="1798.438" x2="1798.438" y1="124.1358" y2="918.0802"/></g></g><g class="participant-lifeline" data-entity-uid="part10" data-qualified-name="ArtistBackendService" id="part10-lifeline"><g><title>ArtistBackendService</title><rect fill="#000000" fill-opacity="0.00000" height="793.9444" width="8" x="1992.8498" y="124.1358"/><line style="stroke:#181818;stroke-width:0.5;stroke-dasharray:5,5;" x1="1996.7671" x2="1996.7671" y1="124.1358" y2="918.0802"/></g></g><g class="participant-lifeline" data-entity-uid="part11" data-qualified-name="ArtistBackendRepository" id="part11-lifeline"><g><title>ArtistBackendRepository</title><rect fill="#000000" fill-opacity="0.00000" height="793.9444" width="8" x="2190.442" y="124.1358"/><line style="stroke:#181818;stroke-width:0.5;stroke-dasharray:5,5;" x1="2193.4873" x2="2193.4873" y1="124.1358" y2="918.0802"/></g></g><g class="participant-lifeline" data-entity-uid="part12" data-qualified-name="EventBus" id="part12-lifeline"><g><title>EventBus</title><rect fill="#000000" fill-opacity="0.00000" height="793.9444" width="8" x="2325.8746" y="124.1358"/><line style="stroke:#181818;stroke-width:0.5;stroke-dasharray:5,5;" x1="2329.3967" x2="2329.3967" y1="124.1358" y2="918.0802"/></g></g><g class="participant-lifeline" data-entity-uid="part13" data-qualified-name="Database" id="part13-lifeline"><g><title>Database</title><rect fill="#000000" fill-opacity="0.00000" height="793.9444" width="8" x="2425.3882" y="124.1358"/><line style="stroke:#181818;stroke-width:0.5;stroke-dasharray:5,5;" x1="2429.3643" x2="2429.3643" y1="124.1358" y2="918.0802"/></g></g><g class="participant participant-head" data-entity-uid="part1" data-qualified-name="artist" id="part1-head"><text fill="#000000" font-family="sans-serif" font-size="14" lengthAdjust="spacing" textLength="35.1539" x="5" y="120.0339">Artist</text><ellipse cx="25.5769" cy="53.5679" fill="#E2E2F0" rx="8" ry="8" style="stroke:#181818;stroke-width:0.5;"/><path d="M25.5769,61.5679 L25.5769,88.5679 M12.5769,69.5679 L38.5769,69.5679 M25.5769,88.5679 L12.5769,103.5679 M25.5769,88.5679 L38.5769,103.5679" fill="none" style="stroke:#181818;stroke-width:0.5;"/></g><g class="participant participant-tail" data-entity-uid="part1" data-qualified-name="artist" id="part1-tail"><text fill="#000000" font-family="sans-serif" font-size="14" lengthAdjust="spacing" textLength="35.1539" x="5" y="932.0462">Artist</text><ellipse cx="25.5769" cy="944.6481" fill="#E2E2F0" rx="8" ry="8" style="stroke:#181818;stroke-width:0.5;"/><path d="M25.5769,952.6481 L25.5769,979.6481 M12.5769,960.6481 L38.5769,960.6481 M25.5769,979.6481 L12.5769,994.6481 M25.5769,979.6481 L38.5769,994.6481" fill="none" style="stroke:#181818;stroke-width:0.5;"/></g><g class="participant participant-head" data-entity-uid="part2" data-qualified-name="HomeView" id="part2-head"><rect fill="#E2E2F0" height="33.0679" rx="2.5" ry="2.5" style="stroke:#181818;stroke-width:0.5;" width="84.7417" x="113.1902" y="90.0679"/><text fill="#000000" font-family="sans-serif" font-size="14" lengthAdjust="spacing" textLength="70.7417" x="120.1902" y="112.0339">HomeView</text></g><g class="participant participant-tail" data-entity-uid="part2" data-qualified-name="HomeView" id="part2-tail"><rect fill="#E2E2F0" height="33.0679" rx="2.5" ry="2.5" style="stroke:#181818;stroke-width:0.5;" width="84.7417" x="113.1902" y="917.0802"/><text fill="#000000" font-family="sans-serif" font-size="14" lengthAdjust="spacing" textLength="70.7417" x="120.1902" y="939.0462">HomeView</text></g><g class="participant participant-head" data-entity-uid="part3" data-qualified-name="HomeController" id="part3-head"><rect fill="#E2E2F0" height="33.0679" rx="2.5" ry="2.5" style="stroke:#181818;stroke-width:0.5;" width="120.0076" x="231.3003" y="90.0679"/><text fill="#000000" font-family="sans-serif" font-size="14" lengthAdjust="spacing" textLength="106.0076" x="238.3003" y="112.0339">HomeController</text></g><g class="participant participant-tail" data-entity-uid="part3" data-qualified-name="HomeController" id="part3-tail"><rect fill="#E2E2F0" height="33.0679" rx="2.5" ry="2.5" style="stroke:#181818;stroke-width:0.5;" width="120.0076" x="231.3003" y="917.0802"/><text fill="#000000" font-family="sans-serif" font-size="14" lengthAdjust="spacing" textLength="106.0076" x="238.3003" y="939.0462">HomeController</text></g><g class="participant participant-head" data-entity-uid="part4" data-qualified-name="ArtistProfileView" id="part4-head"><rect fill="#E2E2F0" height="33.0679" rx="2.5" ry="2.5" style="stroke:#181818;stroke-width:0.5;" width="122.7236" x="361.3079" y="90.0679"/><text fill="#000000" font-family="sans-serif" font-size="14" lengthAdjust="spacing" textLength="108.7236" x="368.3079" y="112.0339">ArtistProfileView</text></g><g class="participant participant-tail" data-entity-uid="part4" data-qualified-name="ArtistProfileView" id="part4-tail"><rect fill="#E2E2F0" height="33.0679" rx="2.5" ry="2.5" style="stroke:#181818;stroke-width:0.5;" width="122.7236" x="361.3079" y="917.0802"/><text fill="#000000" font-family="sans-serif" font-size="14" lengthAdjust="spacing" textLength="108.7236" x="368.3079" y="939.0462">ArtistProfileView</text></g><g class="participant participant-head" data-entity-uid="part5" data-qualified-name="ArtistProfileController" id="part5-head"><rect fill="#E2E2F0" height="33.0679" rx="2.5" ry="2.5" style="stroke:#181818;stroke-width:0.5;" width="157.9895" x="564.0041" y="90.0679"/><text fill="#000000" font-family="sans-serif" font-size="14" lengthAdjust="spacing" textLength="143.9895" x="571.0041" y="112.0339">ArtistProfileController</text></g><g class="participant participant-tail" data-entity-uid="part5" data-qualified-name="ArtistProfileController" id="part5-tail"><rect fill="#E2E2F0" height="33.0679" rx="2.5" ry="2.5" style="stroke:#181818;stroke-width:0.5;" width="157.9895" x="564.0041" y="917.0802"/><text fill="#000000" font-family="sans-serif" font-size="14" lengthAdjust="spacing" textLength="143.9895" x="571.0041" y="939.0462">ArtistProfileController</text></g><g class="participant participant-head" data-entity-uid="part6" data-qualified-name="ArtistService" id="part6-head"><rect fill="#E2E2F0" height="33.0679" rx="2.5" ry="2.5" style="stroke:#181818;stroke-width:0.5;" width="95.8577" x="792.6622" y="90.0679"/><text fill="#000000" font-family="sans-serif" font-size="14" lengthAdjust="spacing" textLength="81.8577" x="799.6622" y="112.0339">ArtistService</text></g><g class="participant participant-tail" data-entity-uid="part6" data-qualified-name="ArtistService" id="part6-tail"><rect fill="#E2E2F0" height="33.0679" rx="2.5" ry="2.5" style="stroke:#181818;stroke-width:0.5;" width="95.8577" x="792.6622" y="917.0802"/><text fill="#000000" font-family="sans-serif" font-size="14" lengthAdjust="spacing" textLength="81.8577" x="799.6622" y="939.0462">ArtistService</text></g><g class="participant participant-head" data-entity-uid="part7" data-qualified-name="ArtistApiClient" id="part7-head"><rect fill="#E2E2F0" height="33.0679" rx="2.5" ry="2.5" style="stroke:#181818;stroke-width:0.5;" width="107.9957" x="984.1854" y="90.0679"/><text fill="#000000" font-family="sans-serif" font-size="14" lengthAdjust="spacing" textLength="93.9957" x="991.1854" y="112.0339">ArtistApiClient</text></g><g class="participant participant-tail" data-entity-uid="part7" data-qualified-name="ArtistApiClient" id="part7-tail"><rect fill="#E2E2F0" height="33.0679" rx="2.5" ry="2.5" style="stroke:#181818;stroke-width:0.5;" width="107.9957" x="984.1854" y="917.0802"/><text fill="#000000" font-family="sans-serif" font-size="14" lengthAdjust="spacing" textLength="93.9957" x="991.1854" y="939.0462">ArtistApiClient</text></g><g class="participant participant-head" data-entity-uid="part8" data-qualified-name="ApiClient" id="part8-head"><rect fill="#E2E2F0" height="33.0679" rx="2.5" ry="2.5" style="stroke:#181818;stroke-width:0.5;" width="72.8418" x="1565.2446" y="90.0679"/><text fill="#000000" font-family="sans-serif" font-size="14" lengthAdjust="spacing" textLength="58.8418" x="1572.2446" y="112.0339">ApiClient</text></g><g class="participant participant-tail" data-entity-uid="part8" data-qualified-name="ApiClient" id="part8-tail"><rect fill="#E2E2F0" height="33.0679" rx="2.5" ry="2.5" style="stroke:#181818;stroke-width:0.5;" width="72.8418" x="1565.2446" y="917.0802"/><text fill="#000000" font-family="sans-serif" font-size="14" lengthAdjust="spacing" textLength="58.8418" x="1572.2446" y="939.0462">ApiClient</text></g><g class="participant participant-head" data-entity-uid="part9" data-qualified-name="ArtistBackendController" id="part9-head"><rect fill="#E2E2F0" height="33.0679" rx="2.5" ry="2.5" style="stroke:#181818;stroke-width:0.5;" width="171.6394" x="1713.438" y="90.0679"/><text fill="#000000" font-family="sans-serif" font-size="14" lengthAdjust="spacing" textLength="157.6394" x="1720.438" y="112.0339">ArtistBackendController</text></g><g class="participant participant-tail" data-entity-uid="part9" data-qualified-name="ArtistBackendController" id="part9-tail"><rect fill="#E2E2F0" height="33.0679" rx="2.5" ry="2.5" style="stroke:#181818;stroke-width:0.5;" width="171.6394" x="1713.438" y="917.0802"/><text fill="#000000" font-family="sans-serif" font-size="14" lengthAdjust="spacing" textLength="157.6394" x="1720.438" y="939.0462">ArtistBackendController</text></g><g class="participant participant-head" data-entity-uid="part10" data-qualified-name="ArtistBackendService" id="part10-head"><rect fill="#E2E2F0" height="33.0679" rx="2.5" ry="2.5" style="stroke:#181818;stroke-width:0.5;" width="152.1655" x="1920.7671" y="90.0679"/><text fill="#000000" font-family="sans-serif" font-size="14" lengthAdjust="spacing" textLength="138.1655" x="1927.7671" y="112.0339">ArtistBackendService</text></g><g class="participant participant-tail" data-entity-uid="part10" data-qualified-name="ArtistBackendService" id="part10-tail"><rect fill="#E2E2F0" height="33.0679" rx="2.5" ry="2.5" style="stroke:#181818;stroke-width:0.5;" width="152.1655" x="1920.7671" y="917.0802"/><text fill="#000000" font-family="sans-serif" font-size="14" lengthAdjust="spacing" textLength="138.1655" x="1927.7671" y="939.0462">ArtistBackendService</text></g><g class="participant participant-head" data-entity-uid="part11" data-qualified-name="ArtistBackendRepository" id="part11-head"><rect fill="#E2E2F0" height="33.0679" rx="2.5" ry="2.5" style="stroke:#181818;stroke-width:0.5;" width="175.9094" x="2106.4873" y="90.0679"/><text fill="#000000" font-family="sans-serif" font-size="14" lengthAdjust="spacing" textLength="161.9094" x="2113.4873" y="112.0339">ArtistBackendRepository</text></g><g class="participant participant-tail" data-entity-uid="part11" data-qualified-name="ArtistBackendRepository" id="part11-tail"><rect fill="#E2E2F0" height="33.0679" rx="2.5" ry="2.5" style="stroke:#181818;stroke-width:0.5;" width="175.9094" x="2106.4873" y="917.0802"/><text fill="#000000" font-family="sans-serif" font-size="14" lengthAdjust="spacing" textLength="161.9094" x="2113.4873" y="939.0462">ArtistBackendRepository</text></g><g class="participant participant-head" data-entity-uid="part12" data-qualified-name="EventBus" id="part12-head"><rect fill="#E2E2F0" height="33.0679" rx="2.5" ry="2.5" style="stroke:#181818;stroke-width:0.5;" width="74.9557" x="2292.3967" y="90.0679"/><text fill="#000000" font-family="sans-serif" font-size="14" lengthAdjust="spacing" textLength="60.9557" x="2299.3967" y="112.0339">EventBus</text></g><g class="participant participant-tail" data-entity-uid="part12" data-qualified-name="EventBus" id="part12-tail"><rect fill="#E2E2F0" height="33.0679" rx="2.5" ry="2.5" style="stroke:#181818;stroke-width:0.5;" width="74.9557" x="2292.3967" y="917.0802"/><text fill="#000000" font-family="sans-serif" font-size="14" lengthAdjust="spacing" textLength="60.9557" x="2299.3967" y="939.0462">EventBus</text></g><g class="participant participant-head" data-entity-uid="part13" data-qualified-name="Database" id="part13-head"><text fill="#000000" font-family="sans-serif" font-size="14" lengthAdjust="spacing" textLength="62.0478" x="2395.3643" y="120.0339">Database</text><path d="M2411.3882,69.0679 C2411.3882,59.0679 2429.3882,59.0679 2429.3882,59.0679 C2429.3882,59.0679 2447.3882,59.0679 2447.3882,69.0679 L2447.3882,95.0679 C2447.3882,105.0679 2429.3882,105.0679 2429.3882,105.0679 C2429.3882,105.0679 2411.3882,105.0679 2411.3882,95.0679 L2411.3882,69.0679" fill="#E2E2F0" style="stroke:#181818;stroke-width:0.5;"/><path d="M2411.3882,69.0679 C2411.3882,79.0679 2429.3882,79.0679 2429.3882,79.0679 C2429.3882,79.0679 2447.3882,79.0679 2447.3882,69.0679" fill="none" style="stroke:#181818;stroke-width:0.5;"/></g><g class="participant participant-tail" data-entity-uid="part13" data-qualified-name="Database" id="part13-tail"><text fill="#000000" font-family="sans-serif" font-size="14" lengthAdjust="spacing" textLength="62.0478" x="2395.3643" y="932.0462">Database</text><path d="M2411.3882,946.1481 C2411.3882,936.1481 2429.3882,936.1481 2429.3882,936.1481 C2429.3882,936.1481 2447.3882,936.1481 2447.3882,946.1481 L2447.3882,972.1481 C2447.3882,982.1481 2429.3882,982.1481 2429.3882,982.1481 C2429.3882,982.1481 2411.3882,982.1481 2411.3882,972.1481 L2411.3882,946.1481" fill="#E2E2F0" style="stroke:#181818;stroke-width:0.5;"/><path d="M2411.3882,946.1481 C2411.3882,956.1481 2429.3882,956.1481 2429.3882,956.1481 C2429.3882,956.1481 2447.3882,956.1481 2447.3882,946.1481" fill="none" style="stroke:#181818;stroke-width:0.5;"/></g><g><title>HomeView</title><rect fill="#FFFFFF" height="55.412" style="stroke:#181818;stroke-width:1;" width="10" x="150.561" y="134.1358"/></g><g><title>HomeController</title><rect fill="#FFFFFF" height="31.706" style="stroke:#181818;stroke-width:1;" width="10" x="286.3041" y="189.5479"/></g><g><title>ArtistProfileView</title><rect fill="#FFFFFF" height="624.4143" style="stroke:#181818;stroke-width:1;" width="10" x="417.6697" y="284.6659"/></g><g><title>ArtistProfileController</title><rect fill="#FFFFFF" height="647.1203" style="stroke:#181818;stroke-width:1;" width="10" x="637.9989" y="252.9599"/></g><g><title>ArtistService</title><rect fill="#FFFFFF" height="412.1782" style="stroke:#181818;stroke-width:1;" width="10" x="835.591" y="456.196"/></g><g><title>ArtistApiClient</title><rect fill="#FFFFFF" height="348.7662" style="stroke:#181818;stroke-width:1;" width="10" x="1033.1832" y="487.902"/></g><g><title>ApiClient</title><rect fill="#FFFFFF" height="285.3541" style="stroke:#181818;stroke-width:1;" width="10" x="1596.6655" y="519.608"/></g><g><title>ArtistBackendController</title><rect fill="#FFFFFF" height="221.9421" style="stroke:#181818;stroke-width:1;" width="10" x="1794.2577" y="551.314"/></g><g><title>ArtistBackendService</title><rect fill="#FFFFFF" height="158.5301" style="stroke:#181818;stroke-width:1;" width="10" x="1991.8498" y="583.0201"/></g><g><title>ArtistBackendRepository</title><rect fill="#FFFFFF" height="95.118" style="stroke:#181818;stroke-width:1;" width="10" x="2189.442" y="614.7261"/></g><g><title>EventBus</title><rect fill="#FFFFFF" height="687.8263" style="stroke:#181818;stroke-width:1;" width="10" x="2324.8746" y="221.2539"/></g><g class="message" data-entity-1="part1" data-entity-2="part2" id="msg1"><polygon fill="#181818" points="138.561,153.8419,148.561,157.8419,138.561,161.8419,142.561,157.8419" style="stroke:#181818;stroke-width:1;"/><line style="stroke:#181818;stroke-width:1;" x1="25.5769" x2="144.561" y1="157.8419" y2="157.8419"/><text fill="#000000" font-family="sans-serif" font-size="13" lengthAdjust="spacing" textLength="100.9841" x="32.5769" y="152.0328">Click on "Profile"</text></g><g class="message" data-entity-1="part2" data-entity-2="part3" id="msg2"><polygon fill="#181818" points="274.3041,185.5479,284.3041,189.5479,274.3041,193.5479,278.3041,189.5479" style="stroke:#181818;stroke-width:1;"/><line style="stroke:#181818;stroke-width:1;" x1="155.561" x2="280.3041" y1="189.5479" y2="189.5479"/><text fill="#000000" font-family="sans-serif" font-size="13" lengthAdjust="spacing" textLength="106.7431" x="162.561" y="183.7389">onProfileClicked()</text></g><g class="message" data-entity-1="part3" data-entity-2="part12" id="msg3"><polygon fill="#181818" points="2312.8746,217.2539,2322.8746,221.2539,2312.8746,225.2539,2316.8746,221.2539" style="stroke:#181818;stroke-width:1;"/><line style="stroke:#181818;stroke-width:1;" x1="291.3041" x2="2318.8746" y1="221.2539" y2="221.2539"/><text fill="#000000" font-family="sans-serif" font-size="13" lengthAdjust="spacing" textLength="282.1393" x="298.3041" y="215.4449">publish(OpenArtistProfileEvent) to subscribers</text></g><g class="message" data-entity-1="part12" data-entity-2="part5" id="msg4"><polygon fill="#181818" points="658.9989,248.9599,648.9989,252.9599,658.9989,256.9599,654.9989,252.9599" style="stroke:#181818;stroke-width:1;"/><line style="stroke:#181818;stroke-width:1;" x1="652.9989" x2="2323.8746" y1="252.9599" y2="252.9599"/><text fill="#000000" font-family="sans-serif" font-size="13" lengthAdjust="spacing" textLength="163.3582" x="664.9989" y="247.1509">onOpenArtistProfileEvent()</text></g><g class="message" data-entity-1="part5" data-entity-2="part4" id="msg5"><polygon fill="#181818" points="438.6697,280.6659,428.6697,284.6659,438.6697,288.6659,434.6697,284.6659" style="stroke:#181818;stroke-width:1;"/><line style="stroke:#181818;stroke-width:1;" x1="432.6697" x2="636.9989" y1="284.6659" y2="284.6659"/><text fill="#000000" font-family="sans-serif" font-size="13" lengthAdjust="spacing" textLength="112.3981" x="444.6697" y="278.8569">showArtistProfile()</text></g><g class="message" data-entity-1="part1" data-entity-2="part4" id="msg6"><polygon fill="#181818" points="405.6697,312.3719,415.6697,316.3719,405.6697,320.3719,409.6697,316.3719" style="stroke:#181818;stroke-width:1;"/><line style="stroke:#181818;stroke-width:1;" x1="25.5769" x2="411.6697" y1="316.3719" y2="316.3719"/><text fill="#000000" font-family="sans-serif" font-size="13" lengthAdjust="spacing" textLength="83.1611" x="32.5769" y="310.5629">open settings</text></g><g class="message" data-entity-1="part4" data-entity-2="part4" id="msg7"><line style="stroke:#181818;stroke-width:1;" x1="427.6697" x2="469.6697" y1="348.0779" y2="348.0779"/><line style="stroke:#181818;stroke-width:1;" x1="469.6697" x2="469.6697" y1="348.0779" y2="361.0779"/><line style="stroke:#181818;stroke-width:1;" x1="428.6697" x2="469.6697" y1="361.0779" y2="361.0779"/><polygon fill="#181818" points="438.6697,357.0779,428.6697,361.0779,438.6697,365.0779,434.6697,361.0779" style="stroke:#181818;stroke-width:1;"/><text fill="#000000" font-family="sans-serif" font-size="13" lengthAdjust="spacing" textLength="88.4911" x="434.6697" y="342.2689">openSettings()</text></g><g class="message" data-entity-1="part1" data-entity-2="part4" id="msg8"><polygon fill="#181818" points="405.6697,388.784,415.6697,392.784,405.6697,396.784,409.6697,392.784" style="stroke:#181818;stroke-width:1;"/><line style="stroke:#181818;stroke-width:1;" x1="25.5769" x2="411.6697" y1="392.784" y2="392.784"/><text fill="#000000" font-family="sans-serif" font-size="13" lengthAdjust="spacing" textLength="115.2841" x="32.5769" y="386.975">Click on "Statistics"</text></g><g class="message" data-entity-1="part4" data-entity-2="part5" id="msg9"><polygon fill="#181818" points="625.9989,420.49,635.9989,424.49,625.9989,428.49,629.9989,424.49" style="stroke:#181818;stroke-width:1;"/><line style="stroke:#181818;stroke-width:1;" x1="427.6697" x2="631.9989" y1="424.49" y2="424.49"/><text fill="#000000" font-family="sans-serif" font-size="13" lengthAdjust="spacing" textLength="92.4821" x="434.6697" y="418.681">fetchStatistics()</text></g><g class="message" data-entity-1="part5" data-entity-2="part6" id="msg10"><polygon fill="#181818" points="823.591,452.196,833.591,456.196,823.591,460.196,827.591,456.196" style="stroke:#181818;stroke-width:1;"/><line style="stroke:#181818;stroke-width:1;" x1="647.9989" x2="829.591" y1="456.196" y2="456.196"/><text fill="#000000" font-family="sans-serif" font-size="13" lengthAdjust="spacing" textLength="114.3741" x="654.9989" y="450.387">getArtistStatistics()</text></g><g class="message" data-entity-1="part6" data-entity-2="part7" id="msg11"><polygon fill="#181818" points="1021.1832,483.902,1031.1832,487.902,1021.1832,491.902,1025.1832,487.902" style="stroke:#181818;stroke-width:1;"/><line style="stroke:#181818;stroke-width:1;" x1="845.591" x2="1027.1832" y1="487.902" y2="487.902"/><text fill="#000000" font-family="sans-serif" font-size="13" lengthAdjust="spacing" textLength="114.3741" x="852.591" y="482.093">getArtistStatistics()</text></g><g class="message" data-entity-1="part7" data-entity-2="part8" id="msg12"><polygon fill="#181818" points="1584.6655,515.608,1594.6655,519.608,1584.6655,523.608,1588.6655,519.608" style="stroke:#181818;stroke-width:1;"/><line style="stroke:#181818;stroke-width:1;" x1="1043.1832" x2="1590.6655" y1="519.608" y2="519.608"/><text fill="#000000" font-family="sans-serif" font-size="13" lengthAdjust="spacing" textLength="534.4823" x="1050.1832" y="513.799">get("/artist/statistics", new TypeReference&lt;ApiResponse&lt;ArtistStatisticsResponse&gt;&gt;() {})</text></g><g class="message" data-entity-1="part8" data-entity-2="part9" id="msg13"><polygon fill="#181818" points="1782.2577,547.314,1792.2577,551.314,1782.2577,555.314,1786.2577,551.314" style="stroke:#181818;stroke-width:1;"/><line style="stroke:#181818;stroke-width:1;" x1="1606.6655" x2="1788.2577" y1="551.314" y2="551.314"/><text fill="#000000" font-family="sans-serif" font-size="13" lengthAdjust="spacing" textLength="121.6021" x="1613.6655" y="545.505">GET /artist/statistics</text></g><g class="message" data-entity-1="part9" data-entity-2="part10" id="msg14"><polygon fill="#181818" points="1979.8498,579.0201,1989.8498,583.0201,1979.8498,587.0201,1983.8498,583.0201" style="stroke:#181818;stroke-width:1;"/><line style="stroke:#181818;stroke-width:1;" x1="1804.2577" x2="1985.8498" y1="583.0201" y2="583.0201"/><text fill="#000000" font-family="sans-serif" font-size="13" lengthAdjust="spacing" textLength="114.3741" x="1811.2577" y="577.2111">getArtistStatistics()</text></g><g class="message" data-entity-1="part10" data-entity-2="part11" id="msg15"><polygon fill="#181818" points="2177.442,610.7261,2187.442,614.7261,2177.442,618.7261,2181.442,614.7261" style="stroke:#181818;stroke-width:1;"/><line style="stroke:#181818;stroke-width:1;" x1="2001.8498" x2="2183.442" y1="614.7261" y2="614.7261"/><text fill="#000000" font-family="sans-serif" font-size="13" lengthAdjust="spacing" textLength="114.3741" x="2008.8498" y="608.9171">getArtistStatistics()</text></g><g class="message" data-entity-1="part11" data-entity-2="part13" id="msg16"><polygon fill="#181818" points="2417.3882,642.4321,2427.3882,646.4321,2417.3882,650.4321,2421.3882,646.4321" style="stroke:#181818;stroke-width:1;"/><line style="stroke:#181818;stroke-width:1;" x1="2199.442" x2="2423.3882" y1="646.4321" y2="646.4321"/><text fill="#000000" font-family="sans-serif" font-size="13" lengthAdjust="spacing" textLength="205.9462" x="2206.442" y="640.6231">Execute SQL to get artist statistics</text></g><g class="message" data-entity-1="part13" data-entity-2="part11" id="msg17"><polygon fill="#181818" points="2210.442,674.1381,2200.442,678.1381,2210.442,682.1381,2206.442,678.1381" style="stroke:#181818;stroke-width:1;"/><line style="stroke:#181818;stroke-width:1;stroke-dasharray:2,2;" x1="2204.442" x2="2428.3882" y1="678.1381" y2="678.1381"/><text fill="#000000" font-family="sans-serif" font-size="13" lengthAdjust="spacing" textLength="163.5922" x="2216.442" y="672.3291">Return artist statistics data</text></g><g class="message" data-entity-1="part11" data-entity-2="part10" id="msg18"><polygon fill="#181818" points="2012.8498,705.8441,2002.8498,709.8441,2012.8498,713.8441,2008.8498,709.8441" style="stroke:#181818;stroke-width:1;"/><line style="stroke:#181818;stroke-width:1;stroke-dasharray:2,2;" x1="2006.8498" x2="2193.442" y1="709.8441" y2="709.8441"/><text fill="#000000" font-family="sans-serif" font-size="13" lengthAdjust="spacing" textLength="163.5922" x="2018.8498" y="704.0351">Return artist statistics data</text></g><g class="message" data-entity-1="part10" data-entity-2="part9" id="msg19"><polygon fill="#181818" points="1815.2577,737.5501,1805.2577,741.5501,1815.2577,745.5501,1811.2577,741.5501" style="stroke:#181818;stroke-width:1;"/><line style="stroke:#181818;stroke-width:1;" x1="1809.2577" x2="1995.8498" y1="741.5501" y2="741.5501"/><text fill="#000000" font-family="sans-serif" font-size="13" lengthAdjust="spacing" textLength="163.5922" x="1821.2577" y="735.7411">Return artist statistics data</text></g><g class="message" data-entity-1="part9" data-entity-2="part8" id="msg20"><polygon fill="#181818" points="1617.6655,769.2562,1607.6655,773.2562,1617.6655,777.2562,1613.6655,773.2562" style="stroke:#181818;stroke-width:1;"/><line style="stroke:#181818;stroke-width:1;" x1="1611.6655" x2="1798.2577" y1="773.2562" y2="773.2562"/><text fill="#000000" font-family="sans-serif" font-size="13" lengthAdjust="spacing" textLength="163.5922" x="1623.6655" y="767.4472">Return artist statistics data</text></g><g class="message" data-entity-1="part8" data-entity-2="part7" id="msg21"><polygon fill="#181818" points="1054.1832,800.9622,1044.1832,804.9622,1054.1832,808.9622,1050.1832,804.9622" style="stroke:#181818;stroke-width:1;"/><line style="stroke:#181818;stroke-width:1;" x1="1048.1832" x2="1600.6655" y1="804.9622" y2="804.9622"/><text fill="#000000" font-family="sans-serif" font-size="13" lengthAdjust="spacing" textLength="163.5922" x="1060.1832" y="799.1532">Return artist statistics data</text></g><g class="message" data-entity-1="part7" data-entity-2="part6" id="msg22"><polygon fill="#181818" points="856.591,832.6682,846.591,836.6682,856.591,840.6682,852.591,836.6682" style="stroke:#181818;stroke-width:1;"/><line style="stroke:#181818;stroke-width:1;stroke-dasharray:2,2;" x1="850.591" x2="1037.1832" y1="836.6682" y2="836.6682"/><text fill="#000000" font-family="sans-serif" font-size="13" lengthAdjust="spacing" textLength="163.5922" x="862.591" y="830.8592">Return artist statistics data</text></g><g class="message" data-entity-1="part6" data-entity-2="part5" id="msg23"><polygon fill="#181818" points="658.9989,864.3742,648.9989,868.3742,658.9989,872.3742,654.9989,868.3742" style="stroke:#181818;stroke-width:1;"/><line style="stroke:#181818;stroke-width:1;stroke-dasharray:2,2;" x1="652.9989" x2="839.591" y1="868.3742" y2="868.3742"/><text fill="#000000" font-family="sans-serif" font-size="13" lengthAdjust="spacing" textLength="163.5922" x="664.9989" y="862.5652">Return artist statistics data</text></g><g class="message" data-entity-1="part5" data-entity-2="part4" id="msg24"><polygon fill="#181818" points="438.6697,896.0802,428.6697,900.0802,438.6697,904.0802,434.6697,900.0802" style="stroke:#181818;stroke-width:1;"/><line style="stroke:#181818;stroke-width:1;" x1="432.6697" x2="641.9989" y1="900.0802" y2="900.0802"/><text fill="#000000" font-family="sans-serif" font-size="13" lengthAdjust="spacing" textLength="186.3292" x="444.6697" y="894.2712">displayStatistics(statisticsData)</text></g><?plantuml-src dLNBRjim4BphAmYVRA11xaLX876DzX2WhHtqJbFhc8X22YJbr2Zwxrt955yI5TitOXypo-7kqd1J0LaTWBsIhQ66QyEPBWhAZ5JaGRK6GZMXtQaewlR0U4s58T_b6_pcy3umhgGmIbOLgCXrHlkfv9vNmyJ8Eucm1NNa34Oy3pLVLHo4YNtZrYxZaR9N4EKadut9qzg03THISzJj5CMiZqZzsA2e9JLqHpMGh_RGwSoFr80NywmqkLiw4_bCi7vy82d8p0eqAvpNHlehOBmKlP1j8fJpHL7225Te2JH8y92XlmHYryskulem_r63Y1wjYraG8ubkTfeflWEbKzw0nTcTGeu56JFzq5rkd1elwI1ptPH3JGcjxleWtoDxbYDvkp4mYLKJ3SPmyQABOSH4sjPcjVIJ7BvH_3JFBk2A1Dw3OGUVZwGVocQ70vDVm5XJ2928rizIdEpGtCHUYkT7F0LeCMEq-Up-hE6zzX9z8W9LUJxLi84zA10Clc3U1dGjXSPpKaBlM2xd2_BtNrYGBoKgOdpTO4dVrizaM55wm-6YoY6cP5S-JRBjHg5I2h_vhcG9LcOE4BdwTOdWwp_06aJP_dfg5mrosQ-91DAv-Bl9GZTW6YM6-QJTq_bwylfE0mQBy28DSc97pNCRvUZZ9YqK3Crj966h3YVXDlpyc8zieYlBJi6T_fExyagIMFcB_w6IwxgYfs2YF5FRxOiXq_3lA_u3?></g></svg>